<?xml version="1.0" encoding="UTF-8" standalone="no"?>
<!-- Created with Inkscape (http://www.inkscape.org/) -->

<svg
   width="12.700012mm"
   height="12.7mm"
   viewBox="0 0 12.700012 12.7"
   version="1.1"
   id="svg5"
   xml:space="preserve"
   xmlns="http://www.w3.org/2000/svg"
   xmlns:svg="http://www.w3.org/2000/svg"><defs
     id="defs2"><linearGradient
       id="linearGradient13302"><stop
         style="stop-color:#ff0000;stop-opacity:1;"
         offset="0"
         id="stop13300" /></linearGradient></defs><g
     id="layer2-6-6"
     style="display:inline;fill:#ffffff;fill-opacity:1"
     transform="translate(-37.552368,-6.7111702)"><path
       id="rect13459-18-7"
       style="display:inline;opacity:1;fill:#ffffff;fill-opacity:1;fill-rule:nonzero;stroke-width:0.286427;stroke-dasharray:none"
       d="m 43.890489,12.815707 c -0.51186,0.02488 -0.97732,1.620539 -0.9803,2.342493 h 0.99219 0.99218 c -0.003,-0.727639 -0.47557,-2.342493 -0.99218,-2.342493 -0.004,0 -0.008,-1.96e-4 -0.0119,0 z m -0.9803,2.74867 v 3.44165 h -0.29972 v 0.405143 h 2.59984 v -0.405143 h -0.29973 v -3.44165 z" /><path
       id="rect5462-3"
       style="display:inline;fill:#781907;fill-opacity:1;stroke-width:1.00732;stroke-linecap:round;stroke-linejoin:round"
       d="m 39.775436,15.072376 c 0.08288,0.08796 3.240223,-2.576463 4.527313,-3.872803 1.28709,-1.2963391 3.84669,-4.3222572 3.68755,-4.4814 -0.15914,-0.1591428 -3.14857,2.4338697 -4.43063,3.733016 -1.28205,1.299148 -3.867061,4.533224 -3.784233,4.621187 z" /><path
       id="path8080"
       style="display:inline;fill:#781907;fill-opacity:1;stroke-width:1.00732;stroke-linecap:round;stroke-linejoin:round"
       d="m 39.74412,6.7443234 c -0.08872,0.082062 2.546359,3.2639306 3.830739,4.5629636 1.28437,1.299034 4.28646,3.88653 4.44707,3.72887 0.16061,-0.15766 -2.40462,-3.170962 -3.69185,-4.464991 C 43.042859,9.2771464 39.832845,6.6623131 39.74412,6.7443234 Z" /><path
       style="display:inline;opacity:1;fill:#781907;fill-opacity:1;stroke:none;stroke-width:0.564999;stroke-linecap:round;stroke-linejoin:round;stroke-dasharray:none;stroke-dashoffset:0;stroke-opacity:1;paint-order:normal"
       d="m 41.590029,13.65295 c 0.25699,-0.220179 -0.0431,0.520265 -0.0431,0.820562 0,0.535769 0.53606,0.53555 0.53606,0 0,-0.331853 -0.41733,-0.885031 0.16284,-1.38543 -0.21634,-0.07605 -0.64433,0.266673 -0.65598,0.564868 z"
       id="path8292" /><path
       style="opacity:1;fill:#781907;fill-opacity:1;stroke:none;stroke-width:0.564999;stroke-linecap:round;stroke-linejoin:round;stroke-dasharray:none;stroke-dashoffset:0;stroke-opacity:1;paint-order:normal"
       d="m 46.854349,8.3323834 c 0.42789,-0.5306205 0.005,1.2175232 0.005,1.8789046 -0.008,0.660091 0.66133,0.669621 0.66133,0.0082 0,-0.6613814 -0.46703,-2.1380328 -0.002,-2.7234421 -0.1579,-0.081874 -0.72873,0.5849199 -0.66433,0.8362975 z"
       id="path8182" /></g></svg>
