<?xml version="1.0" encoding="UTF-8" standalone="no"?>
<!-- Generator: Adobe Illustrator 23.0.1, SVG Export Plug-In . SVG Version: 6.00 Build 0)  -->

<svg
   version="1.1"
   x="0px"
   y="0px"
   viewBox="0 0 48 48"
   xml:space="preserve"
   id="svg969"
   width="48"
   height="48"
   xmlns="http://www.w3.org/2000/svg"
   xmlns:svg="http://www.w3.org/2000/svg"><defs
   id="defs973" />
<style
   type="text/css"
   id="style2">
	.st0{fill:#FFFFFF;}
	.st1{fill:#B65A27;}
	.st2{fill:#898966;}
	.st3{fill:#417E24;}
	.st4{fill:#4D545E;}
	.st5{fill:#781907;}
	.st6{fill:#838383;}
	.st7{fill:#D6A648;}
	.st8{fill:#AE4025;}
	.st9{fill:#727272;}
	.st10{fill:#A15841;}
	.st11{fill:#7F8036;}
	.st12{fill:#DF6F5A;}
	.st13{enable-background:new    ;}
	.st14{fill:#B14D39;}
	.st15{fill:none;stroke:#FFFFFF;stroke-width:2.9294;stroke-miterlimit:10;}
	.st16{fill:#515A65;enable-background:new    ;}
	.st17{fill:#617F92;}
	.st18{fill:#555F47;}
	.st19{fill:#686868;}
	.st20{fill:#635956;}
	.st21{fill:#636363;}
</style>


<g
   id="layer41"
   transform="translate(3251.3315,-91.137128)"><path
     class="st0"
     d="m -3227.3315,97.703646 c -9.2,0 -12.2,9.300004 -12.2,9.300004 -1.2,4.9 1.1,8.9 -0.2,9.2 v 1.3 c 2.8,0 1.4,3.7 0.6,3.7 l 0.1,1.4 c 0,0 0.2,2.6 5.9,2.6 v 3 c 0.6,0.8 1.4,1.3 2.1,1.7 0,0 0,0 0,0 0.1,0 0.1,0.1 0.2,0.1 l 1.2,0.4 c 1,0.2 1.8,0.2 2.3,0.2 0.4,0 1,0 1.8,-0.1 v 0 c 0,0 0,0 0,0 0.3,-0.1 1.2,-0.4 1.6,-0.5 0,0 0,0 0.1,0 v 0 c 0,0 0,0 0,0 0,0 0,0 0,0 0.4,-0.2 1.6,-0.9 2.3,-1.7 v -3 c 5.7,0 5.9,-2.6 5.9,-2.6 l 0.1,-1.4 c -0.9,0 -2.2,-3.7 0.6,-3.7 v -1.4 c -1.3,-0.3 1,-4.3 -0.2,-9.2 0,0 -3,-9.300004 -12.2,-9.300004 z m -4.3,23.700004 c -4.9,0 -6.2,-5.1 -4.1,-5.1 2.6,0 6.1,0.9 6.1,1.9 0.1,1 0,3.2 -2,3.2 z m 4.3,3.7 c -1,0 -1.4,-0.6 -1.8,-0.6 0,-1.1 1.3,-3.7 1.8,-3.7 0.4,0 1.8,2.6 1.8,3.7 -0.3,0 -0.7,0.6 -1.8,0.6 z m 4.4,-3.7 c -1.9,0 -2,-2.2 -2,-3.3 0,-1 3.5,-1.9 6.1,-1.9 2.1,0.1 0.8,5.2 -4.1,5.2 z"
     id="path932" /></g></svg>
