<?xml version="1.0" encoding="UTF-8" standalone="no"?>
<!-- Generator: Adobe Illustrator 23.0.1, SVG Export Plug-In . SVG Version: 6.00 Build 0)  -->

<svg
   version="1.1"
   x="0px"
   y="0px"
   viewBox="0 0 72 72"
   xml:space="preserve"
   id="svg969"
   width="72"
   height="72"
   xmlns="http://www.w3.org/2000/svg"
   xmlns:svg="http://www.w3.org/2000/svg"><defs
   id="defs973" />
<style
   type="text/css"
   id="style2">
	.st0{fill:#FFFFFF;}
	.st1{fill:#B65A27;}
	.st2{fill:#898966;}
	.st3{fill:#417E24;}
	.st4{fill:#4D545E;}
	.st5{fill:#781907;}
	.st6{fill:#838383;}
	.st7{fill:#D6A648;}
	.st8{fill:#AE4025;}
	.st9{fill:#727272;}
	.st10{fill:#A15841;}
	.st11{fill:#7F8036;}
	.st12{fill:#DF6F5A;}
	.st13{enable-background:new    ;}
	.st14{fill:#B14D39;}
	.st15{fill:none;stroke:#FFFFFF;stroke-width:2.9294;stroke-miterlimit:10;}
	.st16{fill:#515A65;enable-background:new    ;}
	.st17{fill:#617F92;}
	.st18{fill:#555F47;}
	.st19{fill:#686868;}
	.st20{fill:#635956;}
	.st21{fill:#636363;}
</style>
<g
   id="layer2"
   transform="translate(-248.24335,-69.104521)"><polygon
     class="st0"
     points="281.2,105.4 280.2,105.4 280.2,106.7 288.8,106.7 288.8,105.4 287.9,105.4 287.9,94.4 281.2,94.4 "
     id="polygon12"
     transform="matrix(1.4124398,0,0,1.39538,-117.6639,-7.7825246)" /><path
     class="st0"
     d="m 288.83624,121.42966 h -9.32209 c 0,-3.34891 2.25989,-10.88396 4.66104,-10.88396 2.40116,0 4.66105,7.53505 4.66105,10.88396 z"
     id="path14"
     style="stroke-width:1.40389" /><path
     id="path13948_2_"
     class="st1"
     d="m 291.7856,123.10218 c 2.96613,-5.22603 4.66106,-12.42949 2.2599,-16.38431 0,2.11866 -3.38985,4.09608 -5.22602,4.5198 1.97742,-7.20343 0,-15.113111 -4.66105,-17.373001 1.55368,12.994461 -14.40689,12.146981 -7.20344,28.390041 -11.29953,-2.68364 -15.96057,-24.435211 -7.48593,-29.378751 -2.25991,5.22602 -1.27119,8.898371 3.67233,9.745841 4.23733,-5.932261 2.25991,-8.474641 3.24863,-13.841921 0.9887,-5.36727 5.36727,-11.29951 12.71194,-11.29951 -6.7797,6.7797 6.0735,8.47463 6.0735,21.61032 1.69493,-3.10736 4.23732,-6.35598 8.19215,-7.20345 -2.82487,5.36727 -2.54239,9.180871 -0.70621,15.960581 1.83617,6.92095 -5.93226,13.70066 -10.8758,15.25436 z"
     style="stroke-width:1.41244" /></g>

</svg>
