<?xml version="1.0" encoding="UTF-8" standalone="no"?>
<!-- Generator: Adobe Illustrator 23.0.1, SVG Export Plug-In . SVG Version: 6.00 Build 0)  -->

<svg
   version="1.1"
   x="0px"
   y="0px"
   viewBox="0 0 72 72"
   xml:space="preserve"
   id="svg969"
   width="72"
   height="72"
   xmlns="http://www.w3.org/2000/svg"
   xmlns:svg="http://www.w3.org/2000/svg"><defs
   id="defs973" />
<style
   type="text/css"
   id="style2">
	.st0{fill:#FFFFFF;}
	.st1{fill:#B65A27;}
	.st2{fill:#898966;}
	.st3{fill:#417E24;}
	.st4{fill:#4D545E;}
	.st5{fill:#781907;}
	.st6{fill:#838383;}
	.st7{fill:#D6A648;}
	.st8{fill:#AE4025;}
	.st9{fill:#727272;}
	.st10{fill:#A15841;}
	.st11{fill:#7F8036;}
	.st12{fill:#DF6F5A;}
	.st13{enable-background:new    ;}
	.st14{fill:#B14D39;}
	.st15{fill:none;stroke:#FFFFFF;stroke-width:2.9294;stroke-miterlimit:10;}
	.st16{fill:#515A65;enable-background:new    ;}
	.st17{fill:#617F92;}
	.st18{fill:#555F47;}
	.st19{fill:#686868;}
	.st20{fill:#635956;}
	.st21{fill:#636363;}
</style>
<g
   id="layer16"
   transform="translate(-454.60524,-807.89322)"><g
     id="g112"
     transform="matrix(1.2584085,0,0,1.2584085,396.79089,659.253)">
					<g
   id="layer4_7_"
   transform="translate(-1.9975827,0.33274602)">
						<path
   class="st0"
   d="m 81.5,173.5 v 1.5 h -10 v -1.5 h 1.2 v -15.2 c 0,-1.1 1,-1.8 1,-3.3 h 5.6 c 0,1.5 1,2.3 1,3.3 v 15.2 z"
   id="path98" />
						<path
   class="st0"
   d="m 79.4,153.3 h -5.6 c 0,-1.9 1.1,-6.2 2.8,-6.2 1.7,0 2.8,4.3 2.8,6.2 z"
   id="path100" />
					</g>
					<g
   id="layer4_8_">
						<g
   id="g107">
							<polygon
   class="st0"
   points="70,153.6 70,155.4 "
   id="polygon103" />
							<polygon
   class="st0"
   points="79.1,155.4 79.1,153.6 "
   id="polygon105" />
						</g>
					</g>
					<path
   class="st7"
   d="m 89.1,144.1 -6.6,11.3 h -3.3 v -1.8 c 0,-2.1 -1.1,-7.9 -4.6,-7.9 -3.4,0 -4.6,5.9 -4.6,7.9 v 1.8 h -3.3 l -6.7,-11.3 8.2,6.2 -6.3,-17.8 9.1,9.8 3.5,-20.8 3.5,20.8 9.1,-9.8 -6.3,17.8 z"
   id="path110" />
				</g></g>

</svg>
