<?xml version="1.0" encoding="UTF-8" standalone="no"?>
<!-- Generator: Adobe Illustrator 23.0.1, SVG Export Plug-In . SVG Version: 6.00 Build 0)  -->

<svg
   version="1.1"
   x="0px"
   y="0px"
   viewBox="0 0 72 72"
   xml:space="preserve"
   id="svg969"
   width="72"
   height="72"
   xmlns="http://www.w3.org/2000/svg"
   xmlns:svg="http://www.w3.org/2000/svg"><defs
   id="defs973" />
<style
   type="text/css"
   id="style2">
	.st0{fill:#FFFFFF;}
	.st1{fill:#B65A27;}
	.st2{fill:#898966;}
	.st3{fill:#417E24;}
	.st4{fill:#4D545E;}
	.st5{fill:#781907;}
	.st6{fill:#838383;}
	.st7{fill:#D6A648;}
	.st8{fill:#AE4025;}
	.st9{fill:#727272;}
	.st10{fill:#A15841;}
	.st11{fill:#7F8036;}
	.st12{fill:#DF6F5A;}
	.st13{enable-background:new    ;}
	.st14{fill:#B14D39;}
	.st15{fill:none;stroke:#FFFFFF;stroke-width:2.9294;stroke-miterlimit:10;}
	.st16{fill:#515A65;enable-background:new    ;}
	.st17{fill:#617F92;}
	.st18{fill:#555F47;}
	.st19{fill:#686868;}
	.st20{fill:#635956;}
	.st21{fill:#636363;}
</style>
<g
   id="layer57"
   transform="translate(1605.6279,17.165642)"><g
     id="g764"
     transform="matrix(1.1318991,0,0,1.1318991,-1812.1938,-613.21247)">
						<rect
   x="213.39999"
   y="546.79999"
   class="st0"
   width="1.8"
   height="22.9"
   id="rect762" />
					</g><polygon
     class="st0"
     points="211.9,540.8 214.3,535.6 216.6,540.8 215.6,545 212.9,545 "
     id="polygon766"
     transform="matrix(1.1318991,0,0,1.1318991,-1812.1938,-613.21247)" /><polygon
     class="st0"
     points="216.9,559.1 216.9,566.3 220.7,569.6 219.7,562 "
     id="polygon768"
     transform="matrix(1.1318991,0,0,1.1318991,-1812.1938,-613.21247)" /><polygon
     class="st0"
     points="211.6,559.1 211.6,566.3 207.8,569.6 208.8,562 "
     id="polygon770"
     transform="matrix(1.1318991,0,0,1.1318991,-1812.1938,-613.21247)" /><path
     id="path14434_3_"
     class="st3"
     d="m -1566.1189,54.042029 c 0,0 0,0 0,0 v 0 c 0.1131,-0.11319 0,0 0,0 z"
     style="stroke-width:1.13189" /><path
     class="st3"
     d="m -1556.8374,29.819389 c -0.4527,-1.697849 -2.0373,-4.527596 -4.4144,-5.659495 l 1.4715,12.3377 -6.9045,-5.999065 v 3.056127 h -5.9992 v -3.056127 l -6.9045,5.999065 1.5846,-12.22451 c -2.3769,1.131899 -4.0748,3.961647 -4.4144,5.659495 -1.245,5.093546 1.1319,9.394763 -0.2263,9.734332 v 1.358279 c 2.9429,0 1.4715,3.848457 0.5659,3.848457 l 0.1131,1.471469 c 0,0 0.2265,2.716557 6.2255,2.716557 v 3.169317 c 0.6792,0.79233 1.4715,1.35828 2.2638,1.811039 0,0 0,0 0,0 0,0 0.1133,0.11319 0.2264,0.11319 l 1.3583,0.45276 c 1.0187,0.226379 1.9243,0.226379 2.377,0.226379 0.4527,0 1.0187,0 1.811,-0.113189 v 0 c 0,0 0,0 0,0 0.3396,-0.11319 1.2451,-0.33957 1.6978,-0.45276 0,0 0,0 0.1133,0 v 0 c 0,0 0,0 0,0 0,0 0,0 0,0 0.4527,-0.22638 1.6978,-0.905519 2.3769,-1.811039 v -3.169317 c 5.9991,0 6.2255,-2.716557 6.2255,-2.716557 l 0.1132,-1.471469 c -0.9055,0 -2.377,-3.848457 0.566,-3.848457 v -1.358279 c -1.3583,-0.67914 1.0186,-4.980355 -0.2265,-10.073902 z m -17.4312,15.167447 c -5.2067,0 -6.565,-5.433115 -4.3012,-5.433115 2.7166,0 6.4518,0.90552 6.4518,1.924229 0,1.131898 -0.1131,3.508886 -2.1506,3.508886 z m 4.5276,3.961648 c -1.0187,0 -1.4715,-0.67914 -1.9242,-0.67914 0,-1.131899 1.4714,-3.848457 1.9242,-3.848457 0.4528,0 1.9243,2.829748 1.9243,3.848457 -0.3396,0 -0.7924,0.67914 -1.9243,0.67914 z m 4.6408,-3.961648 c -2.0375,0 -2.1506,-2.376988 -2.1506,-3.395697 0,-1.018709 3.7352,-1.924228 6.4518,-1.924228 2.2638,-0.11319 0.7924,5.319925 -4.3012,5.319925 z"
     id="path773"
     style="stroke-width:1.13189" /></g>

</svg>
