<?xml version="1.0" encoding="UTF-8" standalone="no"?>
<!-- Created with Inkscape (http://www.inkscape.org/) -->

<svg
   width="12.700012mm"
   height="12.700005mm"
   viewBox="0 0 12.700012 12.700005"
   version="1.1"
   id="svg5"
   xml:space="preserve"
   xmlns="http://www.w3.org/2000/svg"
   xmlns:svg="http://www.w3.org/2000/svg"><defs
     id="defs2"><linearGradient
       id="linearGradient13302"><stop
         style="stop-color:#ff0000;stop-opacity:1;"
         offset="0"
         id="stop13300" /></linearGradient></defs><g
     id="g4814"
     style="opacity:1"
     transform="matrix(0.7688893,0,0,0.7688893,-73.530536,-50.750749)"><path
       id="path4812"
       style="opacity:1;fill:#ffffff;stroke:none;stroke-width:0.2;stroke-linecap:round;stroke-linejoin:round"
       d="m 102.57927,73.938123 v 6.133475 h 2.62309 v -6.133475 z m 0,6.770129 v 1.364258 h -0.32711 v 0.450101 h 0.32711 2.62309 0.32712 V 82.07251 h -0.32712 v -1.364258 z" /><path
       id="path5628"
       style="opacity:1;fill:#df6f5a;stroke-width:0.2;stroke-linecap:round;stroke-linejoin:round"
       d="m 92.984764,66.005273 v 2.331641 h 0.776697 v -2.331641 z m -1.985408,1.946135 -0.587045,0.509013 1.051099,1.211812 0.587044,-0.509013 z m 4.908227,0.157096 -1.211812,1.050582 0.50953,0.587044 1.211295,-1.051098 z m -2.534212,1.563729 a 1.3227874,1.3227874 0 0 0 -1.322917,1.322917 1.3227874,1.3227874 0 0 0 1.322917,1.3224 1.3227874,1.3227874 0 0 0 1.3224,-1.3224 1.3227874,1.3227874 0 0 0 -1.3224,-1.322917 z m 2.368848,0.93431 v 0.777214 h 2.33164 v -0.777214 z m -7.069853,0.02481 v 0.776696 h 2.331641 v -0.776696 z m 3.042708,1.668632 -1.211812,1.051098 0.509013,0.587045 1.211812,-1.051099 z m 3.609082,0.04186 -0.587044,0.509012 1.051099,1.211813 0.587044,-0.50953 z"
       transform="translate(10.517703)" /></g></svg>
