<?xml version="1.0" encoding="UTF-8" standalone="no"?>
<!-- Generator: Adobe Illustrator 23.0.1, SVG Export Plug-In . SVG Version: 6.00 Build 0)  -->

<svg
   version="1.1"
   x="0px"
   y="0px"
   viewBox="0 0 72 72"
   xml:space="preserve"
   id="svg969"
   width="72"
   height="72"
   xmlns="http://www.w3.org/2000/svg"
   xmlns:svg="http://www.w3.org/2000/svg"><defs
   id="defs973" />
<style
   type="text/css"
   id="style2">
	.st0{fill:#FFFFFF;}
	.st1{fill:#B65A27;}
	.st2{fill:#898966;}
	.st3{fill:#417E24;}
	.st4{fill:#4D545E;}
	.st5{fill:#781907;}
	.st6{fill:#838383;}
	.st7{fill:#D6A648;}
	.st8{fill:#AE4025;}
	.st9{fill:#727272;}
	.st10{fill:#A15841;}
	.st11{fill:#7F8036;}
	.st12{fill:#DF6F5A;}
	.st13{enable-background:new    ;}
	.st14{fill:#B14D39;}
	.st15{fill:none;stroke:#FFFFFF;stroke-width:2.9294;stroke-miterlimit:10;}
	.st16{fill:#515A65;enable-background:new    ;}
	.st17{fill:#617F92;}
	.st18{fill:#555F47;}
	.st19{fill:#686868;}
	.st20{fill:#635956;}
	.st21{fill:#636363;}
</style>
<g
   id="layer51"
   transform="translate(3408.4534,20.418208)"><polygon
     class="st0"
     points="325,798.4 317.1,798.4 317.8,784.4 324.4,784.4 324.8,794 324.9,795.1 "
     id="polygon838"
     transform="matrix(1.2382991,0,0,1.2382991,-3770.0093,-943.88685)" /><polygon
     class="st0"
     points="317,799.5 325,799.5 325.1,800.8 316.9,800.8 "
     id="polygon840"
     transform="matrix(1.2382991,0,0,1.2382991,-3770.0093,-943.88685)" /><polygon
     class="st0"
     points="316.5,801.9 325.6,801.9 325.7,803.9 316.4,803.9 "
     id="polygon842"
     transform="matrix(1.2382991,0,0,1.2382991,-3770.0093,-943.88685)" /><path
     class="st0"
     d="m -3368.6766,25.20599 h -7.6775 c 0,-2.352768 1.7337,-8.544263 3.8388,-8.544263 2.1051,0.123829 3.8387,6.191495 3.8387,8.544263 z"
     id="path844"
     style="stroke-width:1.2383" /></g>

</svg>
