<?xml version="1.0" encoding="UTF-8" standalone="no"?>
<!-- Generator: Adobe Illustrator 23.0.1, SVG Export Plug-In . SVG Version: 6.00 Build 0)  -->

<svg
   version="1.1"
   x="0px"
   y="0px"
   viewBox="0 0 72 72"
   xml:space="preserve"
   id="svg969"
   width="72"
   height="72"
   xmlns="http://www.w3.org/2000/svg"
   xmlns:svg="http://www.w3.org/2000/svg"><defs
   id="defs973" />
<style
   type="text/css"
   id="style2">
	.st0{fill:#FFFFFF;}
	.st1{fill:#B65A27;}
	.st2{fill:#898966;}
	.st3{fill:#417E24;}
	.st4{fill:#4D545E;}
	.st5{fill:#781907;}
	.st6{fill:#838383;}
	.st7{fill:#D6A648;}
	.st8{fill:#AE4025;}
	.st9{fill:#727272;}
	.st10{fill:#A15841;}
	.st11{fill:#7F8036;}
	.st12{fill:#DF6F5A;}
	.st13{enable-background:new    ;}
	.st14{fill:#B14D39;}
	.st15{fill:none;stroke:#FFFFFF;stroke-width:2.9294;stroke-miterlimit:10;}
	.st16{fill:#515A65;enable-background:new    ;}
	.st17{fill:#617F92;}
	.st18{fill:#555F47;}
	.st19{fill:#686868;}
	.st20{fill:#635956;}
	.st21{fill:#636363;}
</style>
<g
   id="layer52"
   transform="translate(3375.7495,20.417469)"><g
     id="layer4_12_"
     transform="matrix(1.1599338,0,0,1.1599338,-3631.296,-800.15686)">
						<polygon
   class="st0"
   points="256.2,734.3 256.2,732.8 255.1,732.8 255.1,706.9 247.4,706.9 247.4,732.8 246.3,732.8 246.3,734.3 "
   id="polygon827" />
						<path
   class="st0"
   d="m 254.7,705.2 h -6.8 c 0,-1.9 1.6,-5.5 3.4,-5.5 1.7,0 3.4,3.5 3.4,5.5 z"
   id="path829" />
					</g><path
     class="st7"
     d="m -3322.9885,8.5110094 -7.6555,13.1072516 h -2.7838 v -3.711788 h -0.348 v 0 c 0,-2.899834 -2.5519,-8.4675166 -6.0317,-8.4675166 -3.5958,0 -5.9157,5.5676826 -5.9157,8.4675166 v 0 h -0.5799 v 3.711788 h -2.5519 l -7.6555,-13.1072516 9.5114,7.1915896 -7.3076,-20.6468213 10.5554,11.3673509 4.0598,-21.4587746 4.0598,21.4587746 10.5553,-11.3673509 -7.3075,20.6468213 z"
     id="path832"
     style="stroke-width:1.15994" /></g>

</svg>
