<?xml version="1.0" encoding="UTF-8" standalone="no"?>
<!-- Created with Inkscape (http://www.inkscape.org/) -->

<svg
   width="12.700012mm"
   height="12.700001mm"
   viewBox="0 0 12.700012 12.700001"
   version="1.1"
   id="svg5"
   xml:space="preserve"
   xmlns="http://www.w3.org/2000/svg"
   xmlns:svg="http://www.w3.org/2000/svg"><defs
     id="defs2"><linearGradient
       id="linearGradient13302"><stop
         style="stop-color:#ff0000;stop-opacity:1;"
         offset="0"
         id="stop13300" /></linearGradient></defs><g
     id="layer4-2"
     transform="matrix(0.85924031,0,0,0.85924031,-82.96823,-22.047599)"><path
       id="rect9814-0"
       style="opacity:1;fill:#ffffff;fill-opacity:1;stroke:none;stroke-width:0.277268;stroke-linecap:round;stroke-linejoin:round;stroke-dasharray:none;stroke-dashoffset:0;stroke-opacity:1;paint-order:normal"
       d="m 103.10017,34.439758 c 0,0.455937 -0.30024,0.683702 -0.30024,1.000456 V 40 h -0.34985 v 0.439909 h 1.50016 V 34.44 Z m 1.70014,0 c 0,0.455937 0.30024,0.683702 0.30024,1.000456 V 40 h 0.34985 v 0.439909 h -1.50016 V 34.44 Z"
       class="UnoptimicedTransforms" /><path
       id="path13635-5-6"
       style="display:inline;fill:#ffffff;fill-opacity:1;stroke-width:0.0790129"
       d="m 104.87852,15.551064 -0.85007,-2.73e-4 c 0.003,-0.810179 0.33346,-2.594822 0.85007,-2.594822 z m 0,0 0.85007,-2.73e-4 c -0.003,-0.810179 -0.33346,-2.594822 -0.85007,-2.594822 z"
       transform="matrix(1,0,0,0.71841695,-0.92828,22.883153)"
       class="UnoptimicedTransforms" /><path
       style="opacity:1;fill:#d6a648;fill-opacity:1;stroke:none;stroke-width:0.564999;stroke-linecap:round;stroke-linejoin:round;stroke-dasharray:none;stroke-dashoffset:0;stroke-opacity:1;paint-order:normal"
       d="m 103.95024,31.094626 v -6.018978 c -0.15201,0 -0.96769,5.518231 -0.96769,5.518231 0,0 -2.95579,-3.533943 -3.059374,-3.451304 -0.103582,0.08264 2.017774,5.671812 2.017774,5.671812 0,0 -2.547222,-2.047953 -2.629688,-1.967709 -0.08247,0.08024 1.604098,3.593078 2.116728,3.593078 h 1.08846 c 0,-1.688292 0.77193,-3.34513 1.43379,-3.34513 z m 0,0 v -6.018978 c 0.15201,0 0.96769,5.518231 0.96769,5.518231 0,0 2.95579,-3.533943 3.05937,-3.451304 0.10359,0.08264 -2.01777,5.671812 -2.01777,5.671812 0,0 2.54722,-2.047953 2.62969,-1.967709 0.0825,0.08024 -1.6041,3.593078 -2.11673,3.593078 h -1.08846 c 0,-1.688292 -0.77193,-3.34513 -1.43379,-3.34513 z"
       id="path10780"
       class="UnoptimicedTransforms"
       transform="translate(0,0.58566358)" /></g></svg>
