<?xml version="1.0" encoding="UTF-8" standalone="no"?>
<!-- Generator: Adobe Illustrator 23.0.1, SVG Export Plug-In . SVG Version: 6.00 Build 0)  -->

<svg
   version="1.1"
   x="0px"
   y="0px"
   viewBox="0 0 72 72"
   xml:space="preserve"
   id="svg969"
   width="72"
   height="72"
   xmlns="http://www.w3.org/2000/svg"
   xmlns:svg="http://www.w3.org/2000/svg"><defs
   id="defs973" />
<style
   type="text/css"
   id="style2">
	.st0{fill:#FFFFFF;}
	.st1{fill:#B65A27;}
	.st2{fill:#898966;}
	.st3{fill:#417E24;}
	.st4{fill:#4D545E;}
	.st5{fill:#781907;}
	.st6{fill:#838383;}
	.st7{fill:#D6A648;}
	.st8{fill:#AE4025;}
	.st9{fill:#727272;}
	.st10{fill:#A15841;}
	.st11{fill:#7F8036;}
	.st12{fill:#DF6F5A;}
	.st13{enable-background:new    ;}
	.st14{fill:#B14D39;}
	.st15{fill:none;stroke:#FFFFFF;stroke-width:2.9294;stroke-miterlimit:10;}
	.st16{fill:#515A65;enable-background:new    ;}
	.st17{fill:#617F92;}
	.st18{fill:#555F47;}
	.st19{fill:#686868;}
	.st20{fill:#635956;}
	.st21{fill:#636363;}
</style>
<g
   id="layer19"
   transform="translate(-216.82967,-184.02283)"><g
     id="g191"
     transform="matrix(1.2254032,0,0,1.2254032,-52.534488,-44.272681)">
					<path
   id="path14033_4_"
   class="st2"
   d="m 246.4,188.4 c 1.9,0 -9.8,26.1 -10.9,26.1 -1.1,0 5.1,-17.1 5.1,-17.1 0,0 -4.8,3 -5.5,3 -0.8,0 9.3,-12 11.3,-12 z m 5.6,0 c -1.9,0 9.8,26.1 10.9,26.1 1.1,0 -5.1,-17.1 -5.1,-17.1 0,0 4.8,3 5.5,3 0.7,0 -9.4,-12 -11.3,-12 z" />
					<g
   id="layer4-98_3_"
   transform="translate(21.547229,6.2585314)">
						<path
   class="st0"
   d="m 232.2,237.3 v 1.5 h -8.6 v -1.5 h 1.2 v -16.7 c 0,-1.1 1,-1.7 1,-3.2 h 4.3 c 0,1.5 1,2.1 1,3.2 v 16.7 z"
   id="path186" />
						<path
   class="st0"
   d="m 230,215.6 h -4.3 c 0,-3.6 1.1,-11.5 2.2,-11.5 1.1,0 2.1,7.9 2.1,11.5 z"
   id="path188" />
					</g>
				</g></g>

</svg>
