<?xml version="1.0" encoding="UTF-8" standalone="no"?>
<!-- Created with Inkscape (http://www.inkscape.org/) -->

<svg
   width="12.700012mm"
   height="12.700001mm"
   viewBox="0 0 12.700012 12.700001"
   version="1.1"
   id="svg5"
   xml:space="preserve"
   xmlns="http://www.w3.org/2000/svg"
   xmlns:svg="http://www.w3.org/2000/svg"><defs
     id="defs2"><linearGradient
       id="linearGradient13302"><stop
         style="stop-color:#ff0000;stop-opacity:1;"
         offset="0"
         id="stop13300" /></linearGradient></defs><g
     id="layer9"
     transform="matrix(0.7482434,0,0,0.7482434,-47.835971,-31.494143)"><path
       id="rect9814-48-6-9"
       style="opacity:1;fill:#ffffff;fill-opacity:1;stroke:none;stroke-width:0.277268;stroke-linecap:round;stroke-linejoin:round;stroke-dasharray:none;stroke-dashoffset:0;stroke-opacity:1;paint-order:normal"
       d="m 103.29886,33.995559 c 0,0.455937 -0.30024,0.648441 -0.30024,0.965195 V 40 h -0.34985 v 0.439909 h 1.30147 v -6.444108 z m 1.30276,0 c 0,0.455937 0.30024,0.648441 0.30024,0.965195 V 40 h 0.34985 v 0.439909 h -1.30147 v -6.444108 z"
       class="UnoptimicedTransforms"
       transform="translate(-31.49051,12.032251)" /><path
       id="path13635-5-1-3-6"
       style="display:inline;fill:#ffffff;fill-opacity:1;stroke-width:0.0790129"
       d="m 104.87852,15.551064 -0.65138,-3.37e-4 c 0.006,-1.493915 0.31583,-4.83709 0.65138,-4.83709 z m 0,0 0.65138,-3.37e-4 c -0.006,-1.493915 -0.31583,-4.83709 -0.65138,-4.83709 z"
       transform="matrix(1,0,0,0.71841696,-32.41879,34.393914)"
       class="UnoptimicedTransforms" /><path
       id="path14049-3-3"
       style="display:inline;fill:#838383;fill-opacity:1;fill-rule:nonzero;stroke-width:0.266614;stroke-dasharray:none"
       d="m 102.12125,16.373472 c 0.0872,0 -2.506137,2.950707 -2.438609,2.950707 0.06753,0 2.410699,-1.394804 2.410699,-1.533154 0,-0.138351 -0.0594,-1.417553 0.0279,-1.417553 z m 0.002,1.923373 c -0.19248,0 -2.215187,2.055713 -2.09807,2.055713 0.11712,0 1.57252,-0.664837 1.57252,-0.664837 l 0.78703,5.142421 c 0,0 -0.069,-6.533297 -0.26148,-6.533297 z m 1.46832,1.534577 c -0.029,0 0.2648,6.170928 0.33305,6.170928 v -6.170928 z m 2.13642,-3.45795 c -0.0872,0 2.50614,2.950707 2.43861,2.950707 -0.0675,0 -2.4107,-1.394804 -2.4107,-1.533154 0,-0.138351 0.0594,-1.417553 -0.0279,-1.417553 z m -0.002,1.923373 c 0.19248,0 2.21519,2.055713 2.09807,2.055713 -0.11712,0 -1.57252,-0.664837 -1.57252,-0.664837 l -0.78703,5.142421 c 0,0 0.069,-6.533297 0.26148,-6.533297 z m -1.46832,1.534577 c 0.029,0 -0.2648,6.170928 -0.33305,6.170928 v -6.170928 z"
       class="UnoptimicedTransforms"
       transform="matrix(1.0099333,0,0,0.99773512,-32.539351,33.120402)" /></g></svg>
