<?xml version="1.0" encoding="UTF-8" standalone="no"?>
<!-- Generator: Adobe Illustrator 23.0.1, SVG Export Plug-In . SVG Version: 6.00 Build 0)  -->

<svg
   version="1.1"
   x="0px"
   y="0px"
   viewBox="0 0 72 72"
   xml:space="preserve"
   id="svg969"
   width="72"
   height="72"
   xmlns="http://www.w3.org/2000/svg"
   xmlns:svg="http://www.w3.org/2000/svg"><defs
   id="defs973" />
<style
   type="text/css"
   id="style2">
	.st0{fill:#FFFFFF;}
	.st1{fill:#B65A27;}
	.st2{fill:#898966;}
	.st3{fill:#417E24;}
	.st4{fill:#4D545E;}
	.st5{fill:#781907;}
	.st6{fill:#838383;}
	.st7{fill:#D6A648;}
	.st8{fill:#AE4025;}
	.st9{fill:#727272;}
	.st10{fill:#A15841;}
	.st11{fill:#7F8036;}
	.st12{fill:#DF6F5A;}
	.st13{enable-background:new    ;}
	.st14{fill:#B14D39;}
	.st15{fill:none;stroke:#FFFFFF;stroke-width:2.9294;stroke-miterlimit:10;}
	.st16{fill:#515A65;enable-background:new    ;}
	.st17{fill:#617F92;}
	.st18{fill:#555F47;}
	.st19{fill:#686868;}
	.st20{fill:#635956;}
	.st21{fill:#636363;}
</style>
<g
   id="layer72"
   transform="translate(2474.9618,18.707669)"><path
     class="st0"
     d="m -2438.4214,53.29233 h -1.0808 c -1.7291,0 -3.026,-1.40494 -3.026,-3.026024 v -9.078073 c 0,-1.729156 1.4049,-3.026024 3.026,-3.026024 h 1.0808 c 1.7291,0 3.026,1.40494 3.026,3.026024 v 9.078073 c 0,1.621084 -1.405,3.026024 -3.026,3.026024 z"
     id="path389"
     style="stroke-width:1.08072" /><line
     class="st15"
     x1="-2438.9619"
     y1="42.701244"
     x2="-2438.9619"
     y2="27.679205"
     id="line391" /><g
     id="g395"
     transform="matrix(1.0807229,0,0,1.0807229,-2708.4941,-362.56985)">
						<path
   class="st0"
   d="m 249.4,362 c -1.1,0 -2.1,-0.9 -2.1,-2.1 v -3.5 c 0,-1.1 0.9,-2.1 2.1,-2.1 1.2,0 2.1,0.9 2.1,2.1 v 3.5 c -0.1,1.2 -1,2.1 -2.1,2.1 z"
   id="path393" />
					</g><g
     id="g399"
     transform="matrix(1.0807229,0,0,1.0807229,-2708.4941,-362.56985)">
						<path
   class="st0"
   d="m 250.6,340.9 v 11.9 c -0.4,-0.1 -0.8,-0.2 -1.2,-0.2 -0.4,0 -0.8,0.1 -1.2,0.2 v -11.9 z"
   id="path397" />
					</g><path
     class="st0"
     d="m -2433.1259,15.899317 -5.8359,-6.9166266 -5.8359,6.9166266 5.2955,-14.0493978 c 0.2162,-0.5403615 0.9727,-0.5403615 1.1888,0 z"
     id="path401"
     style="stroke-width:1.08072" /></g>

</svg>
