<?xml version="1.0" encoding="UTF-8" standalone="no"?>
<!-- Generator: Adobe Illustrator 23.0.1, SVG Export Plug-In . SVG Version: 6.00 Build 0)  -->

<svg
   version="1.1"
   x="0px"
   y="0px"
   viewBox="0 0 72 72.000015"
   xml:space="preserve"
   id="svg969"
   width="72"
   height="72.000015"
   xmlns="http://www.w3.org/2000/svg"
   xmlns:svg="http://www.w3.org/2000/svg"><defs
   id="defs973" />
<style
   type="text/css"
   id="style2">
	.st0{fill:#FFFFFF;}
	.st1{fill:#B65A27;}
	.st2{fill:#898966;}
	.st3{fill:#417E24;}
	.st4{fill:#4D545E;}
	.st5{fill:#781907;}
	.st6{fill:#838383;}
	.st7{fill:#D6A648;}
	.st8{fill:#AE4025;}
	.st9{fill:#727272;}
	.st10{fill:#A15841;}
	.st11{fill:#7F8036;}
	.st12{fill:#DF6F5A;}
	.st13{enable-background:new    ;}
	.st14{fill:#B14D39;}
	.st15{fill:none;stroke:#FFFFFF;stroke-width:2.9294;stroke-miterlimit:10;}
	.st16{fill:#515A65;enable-background:new    ;}
	.st17{fill:#617F92;}
	.st18{fill:#555F47;}
	.st19{fill:#686868;}
	.st20{fill:#635956;}
	.st21{fill:#636363;}
</style>
<g
   id="layer68"
   transform="translate(2243.0846,21.303599)"><g
     id="g467"
     transform="matrix(1.3495216,0,0,1.3495216,-2590.7535,-563.20098)">
						<rect
   x="282.5"
   y="440.70001"
   class="st0"
   width="3.5"
   height="14.2"
   id="rect465" />
					</g><polygon
     class="st0"
     points="281.3,437 284.2,430.6 287.1,437 285.4,438.9 283.1,438.9 "
     id="polygon469"
     transform="matrix(1.3495216,0,0,1.3495216,-2590.7535,-563.20098)" /><polygon
     class="st0"
     points="287.7,452.7 287.7,443.9 291.6,449.5 "
     id="polygon471"
     transform="matrix(1.3495216,0,0,1.3495216,-2590.7535,-563.20098)" /><polygon
     class="st0"
     points="280.7,452.7 280.7,443.9 276.8,449.5 "
     id="polygon473"
     transform="matrix(1.3495216,0,0,1.3495216,-2590.7535,-563.20098)" /><g
     id="g477"
     transform="matrix(1.3495216,0,0,1.3495216,-2590.7535,-563.20098)">
						<rect
   x="282.5"
   y="440.70001"
   class="st0"
   width="3.5"
   height="14.2"
   id="rect475" />
					</g><polygon
     class="st0"
     points="281.3,437 284.2,430.6 287.1,437 285.4,438.9 283.1,438.9 "
     id="polygon479"
     transform="matrix(1.3495216,0,0,1.3495216,-2590.7535,-563.20098)" /><polygon
     class="st0"
     points="287.7,452.7 287.7,443.9 291.6,449.5 "
     id="polygon481"
     transform="matrix(1.3495216,0,0,1.3495216,-2590.7535,-563.20098)" /><polygon
     class="st0"
     points="280.7,452.7 280.7,443.9 276.8,449.5 "
     id="polygon483"
     transform="matrix(1.3495216,0,0,1.3495216,-2590.7535,-563.20098)" /><g
     id="g493"
     transform="matrix(1.3495216,0,0,1.3495216,-2590.7535,-563.20098)">
						<path
   class="st8"
   d="m 292.3,441.1 c 1.1,1.1 2.4,-1.5 2.4,-1.5 0.5,4.2 -0.6,6.4 -2.6,7.5 l -4.4,-6.4 v -1.8 l 1.5,-1.6 -5,-11 -5,11 1.5,1.6 v 1.8 l -3.7,5.4 c -9,-4.3 1.2,-11 -2.2,-16.5 2.6,0 4.6,8 5.3,4.3 1.5,-7.9 -7.7,-12.6 -7.7,-16.5 0,-5.4 7.1,-5.9 7.9,-12.4 3.8,4.1 -7.9,13.4 1.9,13.3 2.9,0 1.5,-3.7 1.4,-4 13.4,5.6 -2.4,18.2 9.7,18.2 3.4,0 3.4,-5.8 3.4,-5.8 5.2,8.6 -6.8,12.2 -4.4,14.4 z"
   id="path485" />
						<path
   class="st8"
   d="m 298.8,436.2 c -0.4,2.1 -3.4,2.4 -1.8,5.5 0.4,-3.3 3.4,-2 1.8,-5.5 z"
   id="path487" />
						<path
   class="st8"
   d="m 270.8,425.4 c -4.1,5 1.7,5.5 1.7,9.3 2.4,-4.7 -2.4,-5.6 -1.7,-9.3 z"
   id="path489" />
						<path
   class="st8"
   d="m 292.9,422.1 c 0,0 5.5,-5.9 -2.9,-9.5 0.6,1.2 3.9,5.5 2.9,9.5 z"
   id="path491" />
					</g></g>

</svg>
