<?xml version="1.0" encoding="UTF-8" standalone="no"?>
<!-- Generator: Adobe Illustrator 23.0.1, SVG Export Plug-In . SVG Version: 6.00 Build 0)  -->

<svg
   version="1.1"
   x="0px"
   y="0px"
   viewBox="0 0 72 72"
   xml:space="preserve"
   id="svg969"
   width="72"
   height="72"
   xmlns="http://www.w3.org/2000/svg"
   xmlns:svg="http://www.w3.org/2000/svg"><defs
   id="defs973" />
<style
   type="text/css"
   id="style2">
	.st0{fill:#FFFFFF;}
	.st1{fill:#B65A27;}
	.st2{fill:#898966;}
	.st3{fill:#417E24;}
	.st4{fill:#4D545E;}
	.st5{fill:#781907;}
	.st6{fill:#838383;}
	.st7{fill:#D6A648;}
	.st8{fill:#AE4025;}
	.st9{fill:#727272;}
	.st10{fill:#A15841;}
	.st11{fill:#7F8036;}
	.st12{fill:#DF6F5A;}
	.st13{enable-background:new    ;}
	.st14{fill:#B14D39;}
	.st15{fill:none;stroke:#FFFFFF;stroke-width:2.9294;stroke-miterlimit:10;}
	.st16{fill:#515A65;enable-background:new    ;}
	.st17{fill:#617F92;}
	.st18{fill:#555F47;}
	.st19{fill:#686868;}
	.st20{fill:#635956;}
	.st21{fill:#636363;}
</style>
<g
   id="layer58"
   transform="translate(1663.6278,19.878299)"><g
     id="g744"
     transform="matrix(1.1318991,0,0,1.1318991,-1909.8102,-620.9055)">
						<rect
   x="248.39999"
   y="576.90002"
   class="st0"
   width="1.8"
   height="17.6"
   id="rect742" />
					</g><polygon
     class="st0"
     points="254.7,587 251.9,584.1 251.9,591.3 255.7,594.6 "
     id="polygon746"
     transform="matrix(1.1318991,0,0,1.1318991,-1909.8102,-620.9055)" /><polygon
     class="st0"
     points="243.8,587 246.6,584.1 246.6,591.3 242.8,594.6 "
     id="polygon748"
     transform="matrix(1.1318991,0,0,1.1318991,-1909.8102,-620.9055)" /><path
     class="st0"
     d="m -1624.0058,19.070219 v 0.90552 h -7.3572 v -0.90552 c 0,-0.792329 0.679,-1.471469 1.4714,-1.471469 h 4.4144 c 0.7924,0 1.4714,0.67914 1.4714,1.471469 z"
     id="path750"
     style="stroke-width:1.13189" /><rect
     x="-1631.3632"
     y="22.013157"
     class="st0"
     width="7.3573437"
     height="3.1693172"
     id="rect752"
     style="stroke-width:1.13189" /><rect
     x="-1631.3632"
     y="27.106703"
     class="st0"
     width="7.3573437"
     height="2.6033678"
     id="rect754"
     style="stroke-width:1.13189" /><path
     class="st0"
     d="m -1624.6848,15.108573 h -1.8111 v 0.792329 l -1.2451,0.565949 -1.2451,-0.565949 v -0.792329 h -1.811 c 0,-1.358279 1.1319,-2.490179 2.4902,-2.490179 h 0.9054 c 1.5848,0 2.7167,1.1319 2.7167,2.490179 z"
     id="path756"
     style="stroke-width:1.13189" /><path
     class="st18"
     d="m -1610.6493,4.6951015 -8.1497,5.093546 c -0.1132,-0.1131904 -0.1132,-0.2263799 -0.2264,-0.4527597 l 2.4902,-3.848457 -3.8485,2.0374183 c -0.1131,-0.1131899 -0.2263,-0.2263798 -0.3395,-0.3395697 l 6.1123,-12.5640796 -9.2816,10.5266613 c -0.4528,-0.2263799 -1.0187,-0.3395697 -1.4715,-0.4527596 l -2.2638,-19.4686635 -2.2638,19.4686635 c -0.4528,0.1131899 -1.0187,0.2263797 -1.4714,0.4527596 l -9.2816,-10.5266613 6.1122,12.5640796 c -0.1132,0.1131899 -0.2264,0.2263798 -0.3396,0.3395697 l -3.8484,-2.0374183 2.4902,3.848457 c -0.1132,0.1131894 -0.1132,0.2263798 -0.2264,0.4527597 l -8.1497,-5.093546 7.2441,7.5837235 c -0.4527,2.150608 -0.2263,4.414406 0.7924,6.225445 -0.3395,-2.150608 0,-4.301217 0.9055,-6.112255 l -1.4715,-1.584659 1.6979,1.018709 c 0.3396,-0.45276 0.5659,-1.018709 1.0187,-1.358278 0,0 0.1132,-0.11319 0.1132,-0.11319 l -1.2451,-1.9242287 v 0 l 2.0374,1.0187089 c 0.4528,-0.4527597 0.9055,-0.7923291 1.4715,-1.0187089 l -1.5846,-3.3956971 2.4901,2.8297479 c 0.9056,-0.4527599 1.9242,-0.6791397 2.9429,-0.7923296 l 0.6792,-5.8858751 0.6791,5.8858751 c 1.0188,0.1131899 2.0374,0.3395697 2.943,0.7923296 l 2.4901,-2.8297479 -1.5846,3.3956971 c 0.566,0.3395703 1.0187,0.6791396 1.4714,1.0187089 l 2.0375,-1.0187089 v 0 l -1.2451,1.9242287 c 0,0 0.1132,0.11319 0.1132,0.11319 0.3395,0.452759 0.6791,0.905518 1.0187,1.358278 l 1.6978,-1.018709 -1.4714,1.584659 c 0.9054,1.811038 1.245,3.961647 0.9054,6.112255 1.0188,-1.811039 1.3584,-4.074837 0.7924,-6.225445 z"
     id="path758"
     style="stroke-width:1.13189" /></g>

</svg>
