<?xml version="1.0" encoding="UTF-8" standalone="no"?>
<!-- Generator: Adobe Illustrator 23.0.1, SVG Export Plug-In . SVG Version: 6.00 Build 0)  -->

<svg
   version="1.1"
   x="0px"
   y="0px"
   viewBox="0 0 72 72"
   xml:space="preserve"
   id="svg969"
   width="72"
   height="72"
   xmlns="http://www.w3.org/2000/svg"
   xmlns:svg="http://www.w3.org/2000/svg"><defs
   id="defs973" />
<style
   type="text/css"
   id="style2">
	.st0{fill:#FFFFFF;}
	.st1{fill:#B65A27;}
	.st2{fill:#898966;}
	.st3{fill:#417E24;}
	.st4{fill:#4D545E;}
	.st5{fill:#781907;}
	.st6{fill:#838383;}
	.st7{fill:#D6A648;}
	.st8{fill:#AE4025;}
	.st9{fill:#727272;}
	.st10{fill:#A15841;}
	.st11{fill:#7F8036;}
	.st12{fill:#DF6F5A;}
	.st13{enable-background:new    ;}
	.st14{fill:#B14D39;}
	.st15{fill:none;stroke:#FFFFFF;stroke-width:2.9294;stroke-miterlimit:10;}
	.st16{fill:#515A65;enable-background:new    ;}
	.st17{fill:#617F92;}
	.st18{fill:#555F47;}
	.st19{fill:#686868;}
	.st20{fill:#635956;}
	.st21{fill:#636363;}
</style>
<g
   id="layer7"
   transform="translate(-73.350294,-77.499808)"><g
     id="layer2_6_"
     transform="matrix(1.4124398,0,0,1.39538,-45.516589,0.61276527)">
						<polygon
   class="st0"
   points="105.4,105.4 105.4,106.7 114,106.7 114,105.4 113,105.4 113,94.4 106.4,94.4 106.4,105.4 "
   id="polygon52" />
						<path
   class="st0"
   d="m 113,92.6 h -6.6 c 0,-2.4 1.6,-7.8 3.3,-7.8 1.7,0 3.2,5.4 3.3,7.8 z"
   id="path54" />
					</g><path
     id="path8080_2_"
     class="st5"
     d="m 89.919605,83.050771 c -0.423733,0.42374 12.005755,15.254352 17.937995,21.469079 6.07349,6.07349 20.05664,18.22048 20.90411,17.51426 0.70623,-0.70622 -11.29952,-14.83062 -17.373,-20.9041 C 105.45646,94.915273 90.343337,82.627054 89.919605,83.050771 Z"
     style="stroke-width:1.41244" /><path
     class="st5"
     d="m 126.50181,86.58188 c 0,0 0,0 0,0 1.55368,-1.977413 2.40115,-3.389854 2.2599,-3.67234 -0.70622,-0.706215 -14.83062,11.440763 -20.76286,17.51424 -5.93224,6.07349 -18.220489,21.32784 -17.938001,21.61033 0.141243,0.14126 3.95483,-2.82487 8.474642,-6.63847 v 0 c 1.27121,-0.9887 -0.141243,2.40116 -0.141243,3.8136 0,2.54238 2.542392,2.54238 2.542392,0 0,-1.55369 -1.977408,-4.09608 0.70623,-6.49724 0,0 0,0 0,0 3.67234,-3.10735 7.34468,-6.49721 9.60458,-8.89836 3.24861,-3.24861 8.19215,-8.898367 12.00575,-13.418169 0,0 0,0 0,0 v 0 c 1.97741,-2.542406 0,5.649742 0,8.757132 0,3.107357 3.10735,3.107357 3.10735,0 0.14126,-2.96613 -2.11866,-9.887079 0.14126,-12.570723 z"
     id="path58"
     style="stroke-width:1.41244" /></g>

</svg>
