<?xml version="1.0" encoding="UTF-8" standalone="no"?>
<!-- Generator: Adobe Illustrator 23.0.1, SVG Export Plug-In . SVG Version: 6.00 Build 0)  -->

<svg
   version="1.1"
   x="0px"
   y="0px"
   viewBox="0 0 72 71.999992"
   xml:space="preserve"
   id="svg969"
   width="72"
   height="71.999992"
   xmlns="http://www.w3.org/2000/svg"
   xmlns:svg="http://www.w3.org/2000/svg"><defs
   id="defs973" />
<style
   type="text/css"
   id="style2">
	.st0{fill:#FFFFFF;}
	.st1{fill:#B65A27;}
	.st2{fill:#898966;}
	.st3{fill:#417E24;}
	.st4{fill:#4D545E;}
	.st5{fill:#781907;}
	.st6{fill:#838383;}
	.st7{fill:#D6A648;}
	.st8{fill:#AE4025;}
	.st9{fill:#727272;}
	.st10{fill:#A15841;}
	.st11{fill:#7F8036;}
	.st12{fill:#DF6F5A;}
	.st13{enable-background:new    ;}
	.st14{fill:#B14D39;}
	.st15{fill:none;stroke:#FFFFFF;stroke-width:2.9294;stroke-miterlimit:10;}
	.st16{fill:#515A65;enable-background:new    ;}
	.st17{fill:#617F92;}
	.st18{fill:#555F47;}
	.st19{fill:#686868;}
	.st20{fill:#635956;}
	.st21{fill:#636363;}
</style>
<g
   id="layer34"
   transform="translate(-839.47631,-2.3586336)"><g
     id="layer4_11_"
     transform="matrix(1.1599338,0,0,1.1599338,543.44013,-777.38076)">
						<polygon
   class="st0"
   points="281.4,734.3 291.3,734.3 291.3,732.8 290.2,732.8 290.2,706.9 282.5,706.9 282.5,732.8 281.4,732.8 "
   id="polygon817" />
						<path
   class="st0"
   d="M 289.8,705.2 H 283 c 0,-1.9 1.6,-5.5 3.4,-5.5 1.7,0 3.4,3.5 3.4,5.5 z"
   id="path819" />
					<path
   id="path8080_4_"
   class="st5"
   d="m 2968.2432,-4.5566641 c -0.3,0.3 8.5,10.8 12.7,15.2000001 4.3,4.3 14.2,12.9 14.8,12.4 0.5,-0.5 -8,-10.5 -12.3,-14.8000001 -4.3,-4.4 -14.9,-13.1 -15.2,-12.8 z"
   style="display:inline"
   transform="translate(-2695.7456,681.52391)" /><path
   class="st5"
   d="m 2994.0432,-2.0566641 c 0,-0.1 0,0 0,0 1.1,-1.4 1.7,-2.4 1.6,-2.6 -0.5,-0.5 -10.5,8.1 -14.7,12.4 -4.3,4.3000001 -12.8,15.1000001 -12.6,15.3000001 0.1,0.1 2.8,-2 6,-4.7 v 0 c 0.9,-0.7 -0.1,1.7 -0.1,2.7 0,1.8 1.8,1.8 1.8,0 0,-1.1 -1.4,-2.9 0.5,-4.6 0,0 0,0 0,0 2.6,-2.2 5.2,-4.6 6.8,-6.3 2.3,-2.3000001 5.8,-6.3000001 8.5,-9.50000014 0,0 0,0 0,0 v 0 c 1.4,-1.79999996 0,4.00000004 0,6.20000004 0,2.2 2.2,2.2 2.2,0 0,-2.1 -1.5,-7.00000004 0,-8.9 z"
   id="path823"
   transform="translate(-2695.7456,681.52391)" /></g></g>

</svg>
