<?xml version="1.0" encoding="UTF-8" standalone="no"?>
<!-- Generator: Adobe Illustrator 23.0.1, SVG Export Plug-In . SVG Version: 6.00 Build 0)  -->

<svg
   version="1.1"
   x="0px"
   y="0px"
   viewBox="0 0 48 48.000027"
   xml:space="preserve"
   id="svg969"
   width="48"
   height="48.000027"
   xmlns="http://www.w3.org/2000/svg"
   xmlns:svg="http://www.w3.org/2000/svg"><defs
   id="defs973" />
<style
   type="text/css"
   id="style2">
	.st0{fill:#FFFFFF;}
	.st1{fill:#B65A27;}
	.st2{fill:#898966;}
	.st3{fill:#417E24;}
	.st4{fill:#4D545E;}
	.st5{fill:#781907;}
	.st6{fill:#838383;}
	.st7{fill:#D6A648;}
	.st8{fill:#AE4025;}
	.st9{fill:#727272;}
	.st10{fill:#A15841;}
	.st11{fill:#7F8036;}
	.st12{fill:#DF6F5A;}
	.st13{enable-background:new    ;}
	.st14{fill:#B14D39;}
	.st15{fill:none;stroke:#FFFFFF;stroke-width:2.9294;stroke-miterlimit:10;}
	.st16{fill:#515A65;enable-background:new    ;}
	.st17{fill:#617F92;}
	.st18{fill:#555F47;}
	.st19{fill:#686868;}
	.st20{fill:#635956;}
	.st21{fill:#636363;}
</style>


<g
   id="layer42"
   transform="translate(3251.3315,-36.075196)"><path
     class="st0"
     d="m -3221.8215,76.941706 c 1.6,-0.5 3.8,-1.8 5.4,-3.4 v 0 0 c 2.2,-2.2 3.8,-5.1 3,-8 -1.4,-5.1 -1.6,-8 0.5,-12 -3,0.6 -4.9,3 -6.2,5.4 0,-9.9 -9.7,-11.2 -4.6,-16.3 -5.6,0 -8.9,4.6 -9.6,8.6 -0.7,3.9 0.7,5.9 -2.5,10.4 -3.7,-0.7 -4.4,-3.5 -2.7,-7.4 -6.4,3.7 -2.6,19.7 5.6,22.4 4.3,1.1 8.6,1.1 11.1,0.3 z m 2.7,-7.7 c -0.2,1 -1.4,6.1 -8.1,6.1 -7.1,0 -7.1,-6.7 -5.1,-9.8 0.1,-0.2 0.2,-0.3 0.4,-0.5 2.2,-2.8 5.3,-5.1 4.7,-10.3 3.5,1.7 5,7.6 3.5,13.1 1.4,-0.4 3.9,-1.8 3.9,-3.4 0.7,1.3 0.9,2.9 0.8,4.7 0,0 -0.1,0 -0.1,0.1 z"
     id="path928" /></g></svg>
