<?xml version="1.0" encoding="UTF-8" standalone="no"?>
<!-- Generator: Adobe Illustrator 23.0.1, SVG Export Plug-In . SVG Version: 6.00 Build 0)  -->

<svg
   version="1.1"
   x="0px"
   y="0px"
   viewBox="0 0 48 48"
   xml:space="preserve"
   id="svg969"
   width="48"
   height="48"
   xmlns="http://www.w3.org/2000/svg"
   xmlns:svg="http://www.w3.org/2000/svg"><defs
   id="defs973" />
<style
   type="text/css"
   id="style2">
	.st0{fill:#FFFFFF;}
	.st1{fill:#B65A27;}
	.st2{fill:#898966;}
	.st3{fill:#417E24;}
	.st4{fill:#4D545E;}
	.st5{fill:#781907;}
	.st6{fill:#838383;}
	.st7{fill:#D6A648;}
	.st8{fill:#AE4025;}
	.st9{fill:#727272;}
	.st10{fill:#A15841;}
	.st11{fill:#7F8036;}
	.st12{fill:#DF6F5A;}
	.st13{enable-background:new    ;}
	.st14{fill:#B14D39;}
	.st15{fill:none;stroke:#FFFFFF;stroke-width:2.9294;stroke-miterlimit:10;}
	.st16{fill:#515A65;enable-background:new    ;}
	.st17{fill:#617F92;}
	.st18{fill:#555F47;}
	.st19{fill:#686868;}
	.st20{fill:#635956;}
	.st21{fill:#636363;}
</style>


<g
   id="layer44"
   transform="translate(3319.1363,-257.93374)"><g
     id="g906"
     transform="translate(-3919.6875,188.75099)">
					<g
   id="g898">
						<rect
   x="636.20001"
   y="87.099998"
   class="st0"
   width="1.9"
   height="25.299999"
   id="rect896" />
					</g>
					<polygon
   class="st0"
   points="638.6,85.1 635.8,85.1 634.6,80.5 637.2,74.7 639.8,80.5 "
   id="polygon900" />
					<polygon
   class="st0"
   points="640.1,100.8 640.1,108.8 644.3,112.4 643.3,104 "
   id="polygon902" />
					<polygon
   class="st0"
   points="634.3,100.8 634.3,108.8 630.1,112.4 631.2,104 "
   id="polygon904" />
				</g><g
     id="layer4_35_"
     transform="translate(-3921.6851,189.08374)">
					<polygon
   class="st0"
   points="621.5,90.4 628.8,90.4 629.3,101 629.3,102.3 629.4,105.9 620.7,105.9 "
   id="polygon908" />
					<polygon
   class="st0"
   points="629.6,108.6 620.5,108.6 620.6,107.2 629.5,107.2 "
   id="polygon910" />
					<polygon
   class="st0"
   points="630.2,112.1 619.9,112.1 620,109.9 630.1,109.9 "
   id="polygon912" />
					<path
   class="st0"
   d="m 628.5,88.5 h -6.8 c 0,-2.1 1.5,-7.6 3.4,-7.6 1.9,0 3.4,5.4 3.4,7.6 z"
   id="path914" />
				</g><g
     id="layer4_34_"
     transform="translate(-3921.6851,189.08374)">
					<polygon
   class="st0"
   points="616.6,110.4 616.6,81.7 608.1,81.7 608.1,110.4 606.8,110.4 606.8,112 617.9,112 617.9,110.4 "
   id="polygon917" />
					<path
   class="st0"
   d="m 616.2,79.7 h -7.6 c 0,-2.1 1.8,-6.1 3.7,-6.1 1.9,0 3.9,4 3.9,6.1 z"
   id="path919" />
				</g></g></svg>
