<?xml version="1.0" encoding="UTF-8" standalone="no"?>
<!-- Generator: Adobe Illustrator 23.0.1, SVG Export Plug-In . SVG Version: 6.00 Build 0)  -->

<svg
   version="1.1"
   x="0px"
   y="0px"
   viewBox="0 0 72 72"
   xml:space="preserve"
   id="svg969"
   width="72"
   height="72"
   xmlns="http://www.w3.org/2000/svg"
   xmlns:svg="http://www.w3.org/2000/svg"><defs
   id="defs973" />
<style
   type="text/css"
   id="style2">
	.st0{fill:#FFFFFF;}
	.st1{fill:#B65A27;}
	.st2{fill:#898966;}
	.st3{fill:#417E24;}
	.st4{fill:#4D545E;}
	.st5{fill:#781907;}
	.st6{fill:#838383;}
	.st7{fill:#D6A648;}
	.st8{fill:#AE4025;}
	.st9{fill:#727272;}
	.st10{fill:#A15841;}
	.st11{fill:#7F8036;}
	.st12{fill:#DF6F5A;}
	.st13{enable-background:new    ;}
	.st14{fill:#B14D39;}
	.st15{fill:none;stroke:#FFFFFF;stroke-width:2.9294;stroke-miterlimit:10;}
	.st16{fill:#515A65;enable-background:new    ;}
	.st17{fill:#617F92;}
	.st18{fill:#555F47;}
	.st19{fill:#686868;}
	.st20{fill:#635956;}
	.st21{fill:#636363;}
</style>
<g
   id="layer26"
   transform="translate(-1344.0122,26.184049)"><g
     id="g275"
     transform="matrix(1.2201816,0,0,1.2201816,1033.1082,-338.41924)">
					<g
   id="g259">
						<rect
   x="279.89999"
   y="286.79999"
   class="st0"
   width="8.6999998"
   height="20.4"
   id="rect255" />
						<polygon
   class="st0"
   points="288.6,313.4 288.6,308.9 279.9,308.9 279.9,313.4 278.8,313.4 278.8,314.9 279.9,314.9 288.6,314.9 289.7,314.9 289.7,313.4 "
   id="polygon257" />
					</g>
					<g
   id="g273">
						<path
   class="st8"
   d="m 278.1,288.2 v 13.6 c -10.9,-4.2 0.2,-11.3 -3.2,-16.9 1.2,0 2.3,1.8 3.2,3.3 z"
   id="path261" />
						<path
   class="st8"
   d="m 288.6,285 h -8.5 c -1.5,-5.6 -7.6,-9.2 -7.6,-12.4 0,-5.4 7.1,-5.9 8,-12.4 3.8,4.1 -8,13.4 1.9,13.3 2.9,0 1.5,-3.7 1.4,-4 9.4,4.1 4.3,11.5 4.8,15.5 z"
   id="path263" />
						<path
   class="st8"
   d="m 292.4,296.2 c 1.1,1.1 2.4,-1.5 2.4,-1.5 0.6,5.4 -1.3,7.4 -4.4,8.2 v -15.6 c 0.7,0.3 1.8,0.5 3.1,0.5 3.4,0 3.4,-5.8 3.4,-5.8 5.1,8.4 -6.9,12 -4.5,14.2 z"
   id="path265" />
						<path
   class="st8"
   d="m 298.8,291.3 c -0.4,2.1 -3.4,2.4 -1.8,5.5 0.5,-3.3 3.4,-2 1.8,-5.5 z"
   id="path267" />
						<path
   class="st8"
   d="m 270.8,280.5 c -4.1,5 1.7,5.5 1.7,9.3 2.5,-4.7 -2.3,-5.6 -1.7,-9.3 z"
   id="path269" />
						<path
   class="st8"
   d="m 292.9,277.2 c 0,0 5.5,-5.9 -2.9,-9.5 0.7,1.2 4,5.5 2.9,9.5 z"
   id="path271" />
					</g>
				</g></g>

</svg>
