<?xml version="1.0" encoding="UTF-8" standalone="no"?>
<!-- Generator: Adobe Illustrator 23.0.1, SVG Export Plug-In . SVG Version: 6.00 Build 0)  -->

<svg
   version="1.1"
   x="0px"
   y="0px"
   viewBox="0 0 72 72"
   xml:space="preserve"
   id="svg969"
   width="72"
   height="72"
   xmlns="http://www.w3.org/2000/svg"
   xmlns:svg="http://www.w3.org/2000/svg"><defs
   id="defs973" />
<style
   type="text/css"
   id="style2">
	.st0{fill:#FFFFFF;}
	.st1{fill:#B65A27;}
	.st2{fill:#898966;}
	.st3{fill:#417E24;}
	.st4{fill:#4D545E;}
	.st5{fill:#781907;}
	.st6{fill:#838383;}
	.st7{fill:#D6A648;}
	.st8{fill:#AE4025;}
	.st9{fill:#727272;}
	.st10{fill:#A15841;}
	.st11{fill:#7F8036;}
	.st12{fill:#DF6F5A;}
	.st13{enable-background:new    ;}
	.st14{fill:#B14D39;}
	.st15{fill:none;stroke:#FFFFFF;stroke-width:2.9294;stroke-miterlimit:10;}
	.st16{fill:#515A65;enable-background:new    ;}
	.st17{fill:#617F92;}
	.st18{fill:#555F47;}
	.st19{fill:#686868;}
	.st20{fill:#635956;}
	.st21{fill:#636363;}
</style>
<g
   id="layer11"
   transform="translate(-186.05069,-175.07587)"><g
     id="layer4_2_"
     transform="matrix(1.2584085,0,0,1.2584085,-94.313201,26.85438)">
						<path
   class="st0"
   d="m 256.4,173.5 v 1.5 h -10 v -1.5 h 1.2 v -15.2 c 0,-1.1 1,-1.8 1,-3.3 h 5.6 c 0,1.5 1,2.3 1,3.3 v 15.2 z"
   id="path91" />
						<path
   class="st0"
   d="m 254.2,153.3 h -5.6 c 0,-1.9 1.1,-6.2 2.8,-6.2 1.7,0 2.8,4.3 2.8,6.2 z"
   id="path93" />
					</g><path
     id="path14033_2_-3"
     class="st2"
     d="m 218.10315,180.62684 c 2.68363,0 -13.84191,36.86467 -15.39559,36.86467 -1.55368,0 7.20345,-24.15271 7.20345,-24.15271 0,0 -6.77971,4.23733 -7.76843,4.23733 -1.12994,0 13.13569,-16.94929 15.96057,-16.94929 z m 7.90966,0 c -2.68362,0 13.84192,36.86467 15.3956,36.86467 1.55368,0 -7.20345,-24.15271 -7.20345,-24.15271 0,0 6.77972,4.23733 7.76843,4.23733 0.9887,0 -13.27694,-16.94929 -15.96058,-16.94929 z"
     style="fill:#898966;stroke-width:1.41244" /></g>

</svg>
