<?xml version="1.0" encoding="UTF-8" standalone="no"?>
<!-- Generator: Adobe Illustrator 23.0.1, SVG Export Plug-In . SVG Version: 6.00 Build 0)  -->

<svg
   version="1.1"
   x="0px"
   y="0px"
   viewBox="0 0 72 71.999992"
   xml:space="preserve"
   id="svg969"
   width="72"
   height="71.999992"
   xmlns="http://www.w3.org/2000/svg"
   xmlns:svg="http://www.w3.org/2000/svg"><defs
   id="defs973" />
<style
   type="text/css"
   id="style2">
	.st0{fill:#FFFFFF;}
	.st1{fill:#B65A27;}
	.st2{fill:#898966;}
	.st3{fill:#417E24;}
	.st4{fill:#4D545E;}
	.st5{fill:#781907;}
	.st6{fill:#838383;}
	.st7{fill:#D6A648;}
	.st8{fill:#AE4025;}
	.st9{fill:#727272;}
	.st10{fill:#A15841;}
	.st11{fill:#7F8036;}
	.st12{fill:#DF6F5A;}
	.st13{enable-background:new    ;}
	.st14{fill:#B14D39;}
	.st15{fill:none;stroke:#FFFFFF;stroke-width:2.9294;stroke-miterlimit:10;}
	.st16{fill:#515A65;enable-background:new    ;}
	.st17{fill:#617F92;}
	.st18{fill:#555F47;}
	.st19{fill:#686868;}
	.st20{fill:#635956;}
	.st21{fill:#636363;}
</style>
<g
   id="layer55"
   transform="translate(1489.0373,20.815556)"><g
     id="g793"
     transform="matrix(1.308639,0,0,1.308639,-1825.17,-812.9099)">
						<path
   class="st0"
   d="M 285.5,639.4 H 283 l 0.1,-7.3 c 0,-0.5 0.4,-1.3 0.9,-1.3 h 0.4 c 0.5,0 0.9,0.8 0.9,1.3 z"
   id="path787" />
						<polygon
   class="st0"
   points="285.5,640.5 285.5,643.8 282.9,643.8 283,640.5 "
   id="polygon789" />
						<polygon
   class="st0"
   points="285.5,644.9 285.8,660.3 282.7,660.3 282.9,644.9 "
   id="polygon791" />
					</g><path
     id="path13948_5_"
     class="st1"
     d="m -1446.9733,22.786988 c 2.4864,-4.318509 3.795,-10.338248 1.9629,-13.6098459 0,1.8320949 -2.879,3.4024619 -4.3185,3.7950529 1.7013,-6.0197389 0,-12.56293417 -3.795,-14.3950289 1.3086,10.73084 -11.9086,10.076521 -6.0198,23.5555029 -9.2913,-2.224687 -13.2172,-20.2839049 -6.1506,-24.3406863 -1.8321,4.3185084 -1.0469,7.3283784 3.0099,8.1135624 3.5333,-4.97282867 1.963,-7.0666512 2.7481,-11.3851604 0.7852,-4.3185088 4.4494,-9.4222007 10.6,-9.4222007 -5.6271,5.6271475 4.9728,7.0666505 4.9728,17.9283551 1.4395,-2.61727827 3.5334,-5.3654203 6.805,-5.8888759 -2.3556,4.4493727 -2.0939,7.5901069 -0.6544,13.2172538 1.3087,5.627148 -4.9728,11.254296 -9.1604,12.432071 z"
     style="stroke-width:1.30864" /></g>

</svg>
