<?xml version="1.0" encoding="UTF-8" standalone="no"?>
<!-- Created with Inkscape (http://www.inkscape.org/) -->

<svg
   width="12.700012mm"
   height="12.700005mm"
   viewBox="0 0 12.700012 12.700005"
   version="1.1"
   id="svg5"
   xml:space="preserve"
   xmlns="http://www.w3.org/2000/svg"
   xmlns:svg="http://www.w3.org/2000/svg"><defs
     id="defs2"><linearGradient
       id="linearGradient13302"><stop
         style="stop-color:#ff0000;stop-opacity:1;"
         offset="0"
         id="stop13300" /></linearGradient></defs><g
     id="g1760"
     style="display:inline;opacity:1"
     transform="matrix(0.76446465,0,0,0.76446465,-73.038717,-50.385614)"><path
       id="path1758"
       style="opacity:1;fill:#ffffff;stroke:none;stroke-width:0.2;stroke-linecap:round;stroke-linejoin:round"
       d="m 102.57927,73.938123 v 6.133475 h 2.62309 v -6.133475 z m 0,6.770129 v 1.364258 h -0.32711 v 0.450101 h 0.32711 2.62309 0.32712 V 82.07251 h -0.32712 v -1.364258 z" /><path
       id="path1816"
       style="opacity:1;fill:#ae4025;fill-opacity:1;stroke:none;stroke-width:0.2;stroke-linecap:round;stroke-linejoin:round"
       d="m 102.64231,65.909672 c 0.61325,1.285019 -2.650371,3.200379 -1.24573,4.831068 0.62026,0.720073 1.6665,1.64147 1.40229,2.455342 1.04991,-0.268985 1.66478,-0.774552 1.67072,-1.899659 0.29397,0.282613 0.24314,1.300013 0.0124,1.973523 2.14987,-1.785807 0.38767,-4.338753 -0.82785,-4.338753 0.56233,0.562331 -0.21772,1.821912 -0.78755,1.049032 -1.1011,-1.493458 1.61856,-2.53696 -0.22428,-4.070553 z m -2.723297,5.383526 c -0.996312,1.654389 0.638717,1.725338 0.638717,2.728516 0.6623,-1.147136 -0.638717,-1.343842 -0.638717,-2.728516 z m 1.496797,1.79848 c 0.5135,1.328035 -2.525951,3.356042 0.74828,4.291211 -1.24027,-1.797703 0.99358,-3.157169 -0.74828,-4.291211 z" /><path
       d="m 107.97109,70.045445 c -1.63049,1.029148 0.50594,2.313663 -0.85588,2.791205 -0.70658,0.247767 -0.81812,-0.460169 -0.52255,-0.981923 -0.90154,0.616386 -0.0232,1.902412 -0.52245,2.646734 -0.49921,0.744322 0.32337,1.276877 -0.4327,2.665241 1.37589,-0.558106 2.11174,-1.045424 1.94349,-2.214459 -0.42688,0.566886 -0.53296,0.746996 -0.96668,0.746996 -0.61633,-0.978028 1.71601,-2.069627 1.88663,-3.40198 0.10767,-0.849653 -0.98981,-0.947973 -0.52986,-2.251814 z"
       style="fill:#ae4025;fill-opacity:1;stroke:none;stroke-width:0.322404;stroke-linecap:round;stroke-linejoin:round"
       id="path6312" /><path
       d="m 105.92261,68.549717 c -0.31843,1.178547 0.66969,1.132943 0.60019,2.205659 0.5554,-1.586343 -0.34885,-1.325544 -0.60019,-2.205659 z"
       style="fill:#ae4025;fill-opacity:1;stroke:none;stroke-width:0.172937;stroke-linecap:round;stroke-linejoin:round"
       id="path6350" /></g></svg>
