<?xml version="1.0" encoding="UTF-8" standalone="no"?>
<!-- Created with Inkscape (http://www.inkscape.org/) -->

<svg
   width="12.700012mm"
   height="12.700001mm"
   viewBox="0 0 12.700012 12.700001"
   version="1.1"
   id="svg5"
   xml:space="preserve"
   xmlns="http://www.w3.org/2000/svg"
   xmlns:svg="http://www.w3.org/2000/svg"><defs
     id="defs2"><linearGradient
       id="linearGradient13302"><stop
         style="stop-color:#ff0000;stop-opacity:1;"
         offset="0"
         id="stop13300" /></linearGradient></defs><g
     id="layer4-9"
     transform="matrix(0.80991622,0,0,0.80991622,-67.840981,-20.052938)"><path
       id="rect9814-1"
       style="opacity:1;fill:#ffffff;fill-opacity:1;stroke:none;stroke-width:0.277268;stroke-linecap:round;stroke-linejoin:round;stroke-dasharray:none;stroke-dashoffset:0;stroke-opacity:1;paint-order:normal"
       d="m 103.10017,34.439758 c 0,0.455937 -0.30024,0.683702 -0.30024,1.000456 V 40 h -0.34985 v 0.439909 h 1.50016 V 34.44 Z m 1.70014,0 c 0,0.455937 0.30024,0.683702 0.30024,1.000456 V 40 h 0.34985 v 0.439909 h -1.50016 V 34.44 Z"
       class="UnoptimicedTransforms"
       transform="translate(-12.346956)" /><path
       id="path13635-5-2"
       style="display:inline;fill:#ffffff;fill-opacity:1;stroke-width:0.0790129"
       d="m 104.87852,15.551064 -0.85007,-2.73e-4 c 0.003,-0.810179 0.33346,-2.594822 0.85007,-2.594822 z m 0,0 0.85007,-2.73e-4 c -0.003,-0.810179 -0.33346,-2.594822 -0.85007,-2.594822 z"
       transform="matrix(1,0,0,0.71841695,-13.275236,22.883153)"
       class="UnoptimicedTransforms" /><path
       style="display:inline;fill:#b65a27;fill-opacity:1;fill-rule:nonzero;stroke-width:0.264999;stroke-dasharray:none"
       d="m 93.201734,34.439758 c 0.64685,-1.120383 0.98318,-2.654998 0.4912,-3.50714 0,0.462956 -0.72498,0.865138 -1.11391,0.969351 0.42996,-1.546127 0,-3.222702 -0.99219,-3.693991 0.32788,2.778052 -3.06913,2.600581 -1.54807,6.066222 -2.399735,-0.57562 -3.395513,-5.204628 -1.58278,-6.251208 -0.47116,1.101553 -0.2734,1.881831 0.76995,2.091387 0.91068,-1.276925 0.49295,-1.819134 0.69811,-2.938774 0.20516,-1.119639 1.13324,-2.416331 2.71291,-2.416331 -1.44114,1.441138 1.28967,1.803183 1.28967,4.606568 0.36383,-0.661491 0.91212,-1.364538 1.75554,-1.521602 -0.60412,1.137071 -0.53691,1.956709 -0.15238,3.391784 0.38453,1.435075 -1.25636,2.8775 -2.32805,3.203734 z"
       id="path13948-6" /></g></svg>
