<?xml version="1.0" encoding="UTF-8" standalone="no"?>
<!-- Generator: Adobe Illustrator 23.0.1, SVG Export Plug-In . SVG Version: 6.00 Build 0)  -->

<svg
   version="1.1"
   x="0px"
   y="0px"
   viewBox="0 0 72 72"
   xml:space="preserve"
   id="svg969"
   width="72"
   height="72"
   xmlns="http://www.w3.org/2000/svg"
   xmlns:svg="http://www.w3.org/2000/svg"><defs
   id="defs973" />
<style
   type="text/css"
   id="style2">
	.st0{fill:#FFFFFF;}
	.st1{fill:#B65A27;}
	.st2{fill:#898966;}
	.st3{fill:#417E24;}
	.st4{fill:#4D545E;}
	.st5{fill:#781907;}
	.st6{fill:#838383;}
	.st7{fill:#D6A648;}
	.st8{fill:#AE4025;}
	.st9{fill:#727272;}
	.st10{fill:#A15841;}
	.st11{fill:#7F8036;}
	.st12{fill:#DF6F5A;}
	.st13{enable-background:new    ;}
	.st14{fill:#B14D39;}
	.st15{fill:none;stroke:#FFFFFF;stroke-width:2.9294;stroke-miterlimit:10;}
	.st16{fill:#515A65;enable-background:new    ;}
	.st17{fill:#617F92;}
	.st18{fill:#555F47;}
	.st19{fill:#686868;}
	.st20{fill:#635956;}
	.st21{fill:#636363;}
</style>
<g
   id="layer12"
   transform="translate(-593.12424,-178.11712)"><g
     id="g150"
     transform="matrix(1.2584085,0,0,1.2584085,359.51022,29.518107)">
					<g
   id="layer4_3_"
   transform="translate(-1.9975827,0.33274602)">
						<path
   class="st0"
   d="m 221.2,147.6 v 1.5 h -10 v -1.5 h 1.2 v -15.2 c 0,-1.1 1,-1.8 1,-3.3 h 5.6 c 0,1.5 1,2.3 1,3.3 v 15.2 z"
   id="path139" />
						<path
   class="st0"
   d="m 219.1,127.3 h -5.6 c 0,-1.9 1.1,-6.2 2.8,-6.2 1.7,0 2.8,4.3 2.8,6.2 z"
   id="path141" />
					</g>
					<polygon
   class="st6"
   points="207.5,146.1 207.5,151.1 209.3,151.1 209.3,168.4 208.5,168.4 206.9,153.7 202.6,155.5 205.2,151.5 201,152.4 208.7,142 208.7,146.1 "
   id="polygon144" />
					<polygon
   class="st6"
   points="219.8,142 227.5,152.4 223.3,151.5 225.9,155.5 221.6,153.7 220,168.4 219.2,168.4 219.2,151.1 221,151.1 221,146.1 219.8,146.1 "
   id="polygon146" />
					<polygon
   class="st6"
   points="215.2,151.1 214.8,175.3 213.7,175.3 213.3,151.1 "
   id="polygon148" />
				</g></g>

</svg>
