<?xml version="1.0" encoding="UTF-8" standalone="no"?>
<!-- Generator: Adobe Illustrator 23.0.1, SVG Export Plug-In . SVG Version: 6.00 Build 0)  -->

<svg
   version="1.1"
   x="0px"
   y="0px"
   viewBox="0 0 72 72"
   xml:space="preserve"
   id="svg969"
   width="72"
   height="72"
   xmlns="http://www.w3.org/2000/svg"
   xmlns:svg="http://www.w3.org/2000/svg"><defs
   id="defs973" />
<style
   type="text/css"
   id="style2">
	.st0{fill:#FFFFFF;}
	.st1{fill:#B65A27;}
	.st2{fill:#898966;}
	.st3{fill:#417E24;}
	.st4{fill:#4D545E;}
	.st5{fill:#781907;}
	.st6{fill:#838383;}
	.st7{fill:#D6A648;}
	.st8{fill:#AE4025;}
	.st9{fill:#727272;}
	.st10{fill:#A15841;}
	.st11{fill:#7F8036;}
	.st12{fill:#DF6F5A;}
	.st13{enable-background:new    ;}
	.st14{fill:#B14D39;}
	.st15{fill:none;stroke:#FFFFFF;stroke-width:2.9294;stroke-miterlimit:10;}
	.st16{fill:#515A65;enable-background:new    ;}
	.st17{fill:#617F92;}
	.st18{fill:#555F47;}
	.st19{fill:#686868;}
	.st20{fill:#635956;}
	.st21{fill:#636363;}
</style>
<g
   id="layer71"
   transform="translate(2416.9619,18.707672)"><path
     class="st0"
     d="m -2378.4221,10.171486 c -0.7565,-0.7565065 -1.7292,-1.1887956 -2.918,-1.1887956 -2.2695,0 -4.1067,1.8372296 -4.1067,4.1067476 v 18.480361 c 0,0.43229 0.1081,0.756506 0.2161,1.188796 0.3243,0.97265 0.8646,1.729156 1.7292,2.269518 0.2161,0.108072 0.4323,0.216144 0.6484,0.324217 v 3.134096 c -1.1888,0.540361 -1.9453,1.837229 -1.9453,3.242169 v 7.997349 c 0,1.945301 1.6211,3.566386 3.5664,3.566386 1.9453,0 3.5664,-1.621085 3.5664,-3.566386 v -7.997349 c 0,-1.40494 -0.8646,-2.593735 -1.9453,-3.242169 V 35.35233 c 0.2161,-0.108073 0.4323,-0.216145 0.6484,-0.324217 0.8646,-0.540362 1.405,-1.296868 1.7292,-2.269518 0.1081,-0.324217 0.2161,-0.756506 0.2161,-1.188796 V 28.435703 13.089438 c -0.2161,-1.188795 -0.6484,-2.269518 -1.4049,-2.917952 z m -0.6484,20.533735 c -0.6485,-0.432289 -1.405,-0.648434 -2.1615,-0.648434 -0.7565,0 -1.513,0.216145 -2.1614,0.648434 V 15.899317 c 0.5403,-0.648433 1.2968,-1.080723 2.1614,-1.080723 0.7565,0 1.513,0.324217 2.0534,0.864579 0.1081,0.108072 0.1081,0.216144 0.2161,0.216144 v 14.805904 z m 0,-16.426988 c -0.6485,-0.432289 -1.405,-0.648434 -2.1615,-0.648434 -0.7565,0 -1.513,0.216145 -2.1614,0.648434 v -1.40494 c 0,-1.080723 0.9726,-2.053373 2.1614,-2.053373 1.1888,0 2.1615,0.97265 2.1615,2.053373 z"
     id="path405"
     style="stroke-width:1.08072" /><circle
     class="st16"
     cx="-2378.3142"
     cy="0.87726188"
     r="3.7825301"
     id="circle407"
     style="stroke-width:1.08072" /><circle
     class="st16"
     cx="-2387.176"
     cy="-6.1474366"
     r="3.7825301"
     id="circle409"
     style="stroke-width:1.08072" /><circle
     class="st16"
     cx="-2374.7478"
     cy="-13.388261"
     r="3.7825301"
     id="circle411"
     style="stroke-width:1.08072" /></g>

</svg>
