<?xml version="1.0" encoding="UTF-8" standalone="no"?>
<!-- Generator: Adobe Illustrator 23.0.1, SVG Export Plug-In . SVG Version: 6.00 Build 0)  -->

<svg
   version="1.1"
   x="0px"
   y="0px"
   viewBox="0 0 72 72"
   xml:space="preserve"
   id="svg969"
   width="72"
   height="72"
   xmlns="http://www.w3.org/2000/svg"
   xmlns:svg="http://www.w3.org/2000/svg"><defs
   id="defs973" />
<style
   type="text/css"
   id="style2">
	.st0{fill:#FFFFFF;}
	.st1{fill:#B65A27;}
	.st2{fill:#898966;}
	.st3{fill:#417E24;}
	.st4{fill:#4D545E;}
	.st5{fill:#781907;}
	.st6{fill:#838383;}
	.st7{fill:#D6A648;}
	.st8{fill:#AE4025;}
	.st9{fill:#727272;}
	.st10{fill:#A15841;}
	.st11{fill:#7F8036;}
	.st12{fill:#DF6F5A;}
	.st13{enable-background:new    ;}
	.st14{fill:#B14D39;}
	.st15{fill:none;stroke:#FFFFFF;stroke-width:2.9294;stroke-miterlimit:10;}
	.st16{fill:#515A65;enable-background:new    ;}
	.st17{fill:#617F92;}
	.st18{fill:#555F47;}
	.st19{fill:#686868;}
	.st20{fill:#635956;}
	.st21{fill:#636363;}
</style>
<g
   id="layer8"
   transform="translate(-108.08702,-94.147874)"><g
     id="layer2_5_"
     transform="matrix(1.4124398,0,0,1.39538,-59.850949,20.131854)">
						<polygon
   class="st0"
   points="140.1,79.7 140.1,81 148.7,81 148.7,79.7 147.7,79.7 147.7,68.7 141.1,68.7 141.1,79.7 "
   id="polygon37" />
						<path
   class="st0"
   d="m 147.7,66.9 h -6.6 c 0,-2.4 1.6,-7.8 3.3,-7.8 1.7,0 3.3,5.4 3.3,7.8 z"
   id="path39" />
					</g><g
     id="g48"
     transform="matrix(1.4124398,0,0,1.4124398,-59.443987,19.800911)">
						<path
   class="st4"
   d="m 158,91.1 c -0.3,-0.3 -0.7,-0.5 -1,-0.5 -0.4,0 -0.8,0.4 -0.6,1.1 0.5,1.6 -3,3 -12.2,2.9 h -0.1 l -3.1,3.6 c 1,0.1 2,0.1 3.1,0.1 12.2,0 16.8,-4 13.9,-7.2 z"
   id="path42" />
						<path
   class="st4"
   d="m 149.9,88.2 -2.3,2.7 c 6.9,-0.7 8.9,-3.6 5.9,-5.5 -0.5,-0.3 -1,-0.4 -1.3,-0.4 -0.4,0 -0.4,0.3 0.4,0.7 1.3,0.9 0.8,2 -2.7,2.5 z"
   id="path44" />
						<path
   class="st4"
   d="m 154.1,79.7 c -0.3,-0.3 -5.5,4.5 -9.7,8.8 -7.9,-0.2 -9.6,-1.8 -7.5,-3 1,-0.5 1,-0.8 0.6,-0.8 -0.3,0 -0.8,0.1 -1.4,0.4 -3.6,2 -1.7,5.2 5.9,5.8 l -3.4,3.6 c -6,-0.6 -7.7,-2.1 -6.4,-3.4 0.6,-0.6 0.6,-1.2 0.1,-1.1 -0.2,0 -0.5,0.1 -0.8,0.3 -3.9,2.4 -2.5,5.9 4.4,7.5 -2.4,2.9 -4.2,5.6 -4.1,5.8 0.2,0.3 6.4,-4.7 10.1,-8.7 3.8,-4.1 12.7,-14.8 12.2,-15.2 z"
   id="path46" />
					</g></g>

</svg>
