<?xml version="1.0" encoding="UTF-8" standalone="no"?>
<!-- Created with Inkscape (http://www.inkscape.org/) -->

<svg
   width="12.700012mm"
   height="12.7mm"
   viewBox="0 0 12.700012 12.7"
   version="1.1"
   id="svg5"
   xml:space="preserve"
   xmlns="http://www.w3.org/2000/svg"
   xmlns:svg="http://www.w3.org/2000/svg"><defs
     id="defs2"><linearGradient
       id="linearGradient13302"><stop
         style="stop-color:#ff0000;stop-opacity:1;"
         offset="0"
         id="stop13300" /></linearGradient></defs><g
     id="layer2-6-2"
     style="display:inline;fill:#ffffff;fill-opacity:1"
     transform="translate(-10.924936,-1.177904)"><path
       id="rect13459-18-0"
       style="display:inline;opacity:1;fill:#ffffff;fill-opacity:1;fill-rule:nonzero;stroke-width:0.286427;stroke-dasharray:none"
       d="m 17.317159,1.1779911 c -0.51186,0.02488 -0.97732,1.620539 -0.9803,2.342493 h 0.99219 0.99218 c -0.003,-0.727639 -0.47557,-2.342493 -0.99218,-2.342493 -0.004,0 -0.008,-1.96e-4 -0.0119,0 z m -0.9803,2.74867 V 7.368311 h -0.29972 v 0.405143 h 2.59984 V 7.368311 h -0.29973 V 3.9266611 Z" /><path
       id="path18278"
       style="opacity:1;fill:#4d545e;fill-opacity:1;fill-rule:nonzero;stroke-width:0.16434;stroke-dasharray:none"
       d="m 15.279546,8.2141216 c -0.08754,-6.235e-4 -0.240324,0.040611 -0.409277,0.1291911 -1.138102,0.6162125 -0.458472,1.6444881 2.046903,1.7657843 l 0.691431,-0.7493089 c -0.05593,-2.197e-4 -0.111938,-2.094e-4 -0.170015,-0.00103 -2.446986,-0.03472 -2.989274,-0.526933 -2.342493,-0.8934855 0.300303,-0.1601665 0.3114,-0.2502361 0.183451,-0.2511475 z m 4.4111,0.084233 c -0.119362,0.00646 -0.134252,0.0828 0.10542,0.2211752 0.429155,0.2784399 0.257955,0.6100892 -0.771012,0.7601603 l -0.703316,0.8009849 c 2.089615,-0.1975822 2.676414,-1.0812843 1.7663,-1.6665652 -0.148496,-0.083589 -0.304554,-0.1207772 -0.397392,-0.1157552 z m -5.94899,1.4965492 c -0.06164,7.83e-4 -0.146669,0.02604 -0.252698,0.08423 -1.219184,0.7436172 -0.712531,1.8463902 1.526005,2.2897832 l 0.890902,-0.964282 c -2.049172,-0.171471 -2.634654,-0.644694 -2.192631,-1.061951 0.189994,-0.1899952 0.185933,-0.3497842 0.02842,-0.3477822 z M 21.15619,10.05897 c -0.136224,0.0067 -0.229092,0.119825 -0.165364,0.330213 0.152436,0.467532 -0.90252,0.91855 -3.688664,0.879016 -0.0076,-1.08e-4 -0.01467,-4.03e-4 -0.02222,-5.17e-4 l -0.936894,1.067119 c 0.292282,0.0188 0.602787,0.02894 0.931726,0.02894 3.652957,0 5.045437,-1.227584 4.185791,-2.166276 -0.09774,-0.09772 -0.211168,-0.143072 -0.304374,-0.138493 z" /><path
       id="rect5462"
       style="opacity:1;fill:#4d545e;fill-opacity:1;stroke-width:0.904466;stroke-linecap:round;stroke-linejoin:round"
       d="m 13.600952,13.875078 c 0.07672,0.07671 1.920549,-1.423688 3.040751,-2.621829 1.120201,-1.198141 3.782814,-4.4139881 3.647959,-4.5488449 -0.134856,-0.1348567 -3.153389,2.8280127 -4.268995,4.0285389 -1.115606,1.200526 -2.496429,3.065421 -2.419715,3.142135 z" /></g></svg>
