<?xml version="1.0" encoding="UTF-8" standalone="no"?>
<!-- Generator: Adobe Illustrator 23.0.1, SVG Export Plug-In . SVG Version: 6.00 Build 0)  -->

<svg
   version="1.1"
   x="0px"
   y="0px"
   viewBox="0 0 72 71.999969"
   xml:space="preserve"
   id="svg969"
   width="72"
   height="71.999969"
   xmlns="http://www.w3.org/2000/svg"
   xmlns:svg="http://www.w3.org/2000/svg"><defs
   id="defs973" />
<style
   type="text/css"
   id="style2">
	.st0{fill:#FFFFFF;}
	.st1{fill:#B65A27;}
	.st2{fill:#898966;}
	.st3{fill:#417E24;}
	.st4{fill:#4D545E;}
	.st5{fill:#781907;}
	.st6{fill:#838383;}
	.st7{fill:#D6A648;}
	.st8{fill:#AE4025;}
	.st9{fill:#727272;}
	.st10{fill:#A15841;}
	.st11{fill:#7F8036;}
	.st12{fill:#DF6F5A;}
	.st13{enable-background:new    ;}
	.st14{fill:#B14D39;}
	.st15{fill:none;stroke:#FFFFFF;stroke-width:2.9294;stroke-miterlimit:10;}
	.st16{fill:#515A65;enable-background:new    ;}
	.st17{fill:#617F92;}
	.st18{fill:#555F47;}
	.st19{fill:#686868;}
	.st20{fill:#635956;}
	.st21{fill:#636363;}
</style>
<g
   id="layer49"
   transform="translate(3292.4534,20.418169)"><g
     id="layer4_16_"
     transform="matrix(1.2382991,0,0,1.2382991,-3567.6286,-943.88685)">
						<polygon
   class="st0"
   points="247.3,798.4 248.1,784.4 254.6,784.4 255,794 255.1,795.1 255.2,798.4 "
   id="polygon861" />
						<polygon
   class="st0"
   points="255.3,799.5 255.3,800.8 247.2,800.8 247.2,799.5 "
   id="polygon863" />
						<polygon
   class="st0"
   points="255.8,801.9 255.9,803.9 246.6,803.9 246.7,801.9 "
   id="polygon865" />
						<path
   class="st0"
   d="m 254.3,782.6 h -6.2 c 0,-1.9 1.4,-6.9 3.1,-6.9 1.8,0.1 3.1,5 3.1,6.9 z"
   id="path867" />
					</g><path
     id="path14033_2_-3-6-7"
     class="st2"
     d="m -3260.401,-15.627231 c 2.6837,0 -13.8419,36.86467 -15.3956,36.86467 -1.5536,0 7.2035,-24.1527099 7.2035,-24.1527099 0,0 -6.7797,4.2373299 -7.7684,4.2373299 -1.13,0 13.1356,-16.94929 15.9605,-16.94929 z m 7.9097,0 c -2.6836,0 13.8419,36.86467 15.3956,36.86467 1.5537,0 -7.2035,-24.1527099 -7.2035,-24.1527099 0,0 6.7798,4.2373299 7.7685,4.2373299 0.9887,0 -13.277,-16.94929 -15.9606,-16.94929 z"
     style="fill:#898966;stroke-width:1.41244" /></g>

</svg>
