<?xml version="1.0" encoding="UTF-8" standalone="no"?>
<!-- Generator: Adobe Illustrator 23.0.1, SVG Export Plug-In . SVG Version: 6.00 Build 0)  -->

<svg
   version="1.1"
   x="0px"
   y="0px"
   viewBox="0 0 72 72"
   xml:space="preserve"
   id="svg969"
   width="72"
   height="72"
   xmlns="http://www.w3.org/2000/svg"
   xmlns:svg="http://www.w3.org/2000/svg"><defs
   id="defs973" />
<style
   type="text/css"
   id="style2">
	.st0{fill:#FFFFFF;}
	.st1{fill:#B65A27;}
	.st2{fill:#898966;}
	.st3{fill:#417E24;}
	.st4{fill:#4D545E;}
	.st5{fill:#781907;}
	.st6{fill:#838383;}
	.st7{fill:#D6A648;}
	.st8{fill:#AE4025;}
	.st9{fill:#727272;}
	.st10{fill:#A15841;}
	.st11{fill:#7F8036;}
	.st12{fill:#DF6F5A;}
	.st13{enable-background:new    ;}
	.st14{fill:#B14D39;}
	.st15{fill:none;stroke:#FFFFFF;stroke-width:2.9294;stroke-miterlimit:10;}
	.st16{fill:#515A65;enable-background:new    ;}
	.st17{fill:#617F92;}
	.st18{fill:#555F47;}
	.st19{fill:#686868;}
	.st20{fill:#635956;}
	.st21{fill:#636363;}
</style>
<g
   id="layer62"
   transform="translate(1895.3431,20.571309)"><g
     id="g638"
     transform="matrix(1.2267163,0,0,1.2267163,-2164.4888,-592.35202)">
						<rect
   x="248.39999"
   y="504"
   class="st0"
   width="1.8"
   height="20.799999"
   id="rect636" />
					</g><polygon
     class="st0"
     points="251.9,512.2 251.9,524.8 255.9,523.1 253.1,512.2 "
     id="polygon640"
     transform="matrix(1.2267163,0,0,1.2267163,-2164.4888,-592.35202)" /><polygon
     class="st0"
     points="246.6,512.2 246.6,524.8 242.6,523.1 245.4,512.2 "
     id="polygon642"
     transform="matrix(1.2267163,0,0,1.2267163,-2164.4888,-592.35202)" /><g
     id="g646"
     transform="matrix(1.2267163,0,0,1.2267163,-2164.4888,-592.35202)">
						<rect
   x="247"
   y="488.70001"
   class="st0"
   width="4.5"
   height="13.6"
   id="rect644" />
					</g><g
     id="g650"
     transform="matrix(1.2267163,0,0,1.2267163,-2164.4888,-592.35202)">
						<rect
   x="247"
   y="484.29999"
   class="st0"
   width="4.5"
   height="3.3"
   id="rect648" />
					</g><g
     id="g654"
     transform="matrix(1.2267163,0,0,1.2267163,-2164.4888,-592.35202)">
						<polygon
   class="st19"
   points="237.1,470.2 261.4,470.2 263.4,472.4 258.7,472.3 262.7,478.4 256.9,474.8 257,477.7 252.6,473 248.3,473 245.7,473 238.8,479.4 240.5,475.5 234.1,479.4 238.8,472.4 235.2,472.4 "
   id="polygon652" />
					</g></g>

</svg>
