<?xml version="1.0" encoding="UTF-8" standalone="no"?>
<!-- Created with Inkscape (http://www.inkscape.org/) -->

<svg
   width="12.700005mm"
   height="12.700001mm"
   viewBox="0 0 12.700005 12.700001"
   version="1.1"
   id="svg5"
   xml:space="preserve"
   xmlns="http://www.w3.org/2000/svg"
   xmlns:svg="http://www.w3.org/2000/svg"><defs
     id="defs2"><linearGradient
       id="linearGradient13302"><stop
         style="stop-color:#ff0000;stop-opacity:1;"
         offset="0"
         id="stop13300" /></linearGradient></defs><g
     id="layer4"
     transform="translate(-121.14505,-16.863104)"><path
       id="rect9814"
       style="opacity:1;fill:#ffffff;fill-opacity:1;stroke:none;stroke-width:0.277268;stroke-linecap:round;stroke-linejoin:round;stroke-dasharray:none;stroke-dashoffset:0;stroke-opacity:1;paint-order:normal"
       d="m 103.10017,34.439758 c 0,0.455937 -0.30024,0.683702 -0.30024,1.000456 V 40 h -0.34985 v 0.439909 h 1.50016 V 34.44 Z m 1.70014,0 c 0,0.455937 0.30024,0.683702 0.30024,1.000456 V 40 h 0.34985 v 0.439909 h -1.50016 V 34.44 Z"
       class="UnoptimicedTransforms"
       transform="translate(23.544816,-10.876804)" /><path
       id="path13635-5"
       style="display:inline;fill:#ffffff;fill-opacity:1;stroke-width:0.0790129"
       d="m 104.87852,15.551064 -0.85007,-2.73e-4 c 0.003,-0.810179 0.33346,-2.594822 0.85007,-2.594822 z m 0,0 0.85007,-2.73e-4 c -0.003,-0.810179 -0.33346,-2.594822 -0.85007,-2.594822 z"
       transform="matrix(1,0,0,0.71841695,22.616536,12.006349)"
       class="UnoptimicedTransforms" /></g></svg>
