<?xml version="1.0" encoding="UTF-8" standalone="no"?>
<!-- Created with Inkscape (http://www.inkscape.org/) -->

<svg
   width="12.700012mm"
   height="12.700005mm"
   viewBox="0 0 12.700012 12.700005"
   version="1.1"
   id="svg5"
   xml:space="preserve"
   xmlns="http://www.w3.org/2000/svg"
   xmlns:svg="http://www.w3.org/2000/svg"><defs
     id="defs2"><linearGradient
       id="linearGradient13302"><stop
         style="stop-color:#ff0000;stop-opacity:1;"
         offset="0"
         id="stop13300" /></linearGradient></defs><g
     id="g3852"
     style="opacity:1"
     transform="matrix(0.76486911,0,0,0.76486911,-73.108523,-50.418992)"><path
       id="path3850"
       style="opacity:1;fill:#ffffff;stroke:none;stroke-width:0.2;stroke-linecap:round;stroke-linejoin:round"
       d="m 102.57927,73.938123 v 6.133475 h 2.62309 v -6.133475 z m 0,6.770129 v 1.364258 h -0.32711 v 0.450101 h 0.32711 2.62309 0.32712 V 82.07251 h -0.32712 v -1.364258 z" /><path
       id="rect3908"
       style="display:inline;opacity:1;fill:#727272;fill-opacity:1;stroke:none;stroke-width:0.2;stroke-linecap:round;stroke-linejoin:round"
       d="m 103.57718,67.983159 -0.0242,4.651825 c 0,0 -0.3023,0.06738 -0.3023,0.231995 h 0.63442 l 0.0242,-6.948522 c 0,0 -0.33212,1.460929 -0.33212,2.064702 z m -2.19416,1.807028 v 3.440937 c 0,0 -0.3462,0.364928 -0.3462,0.786704 l 0.89,-0.801567 v -5.737634 c 0,0 -0.5438,1.017989 -0.5438,2.31156 z m 2.8584,-1.807028 0.0242,4.651825 c 0,0 0.3023,0.06738 0.3023,0.231995 h -0.63442 l -0.0242,-6.948522 c 0,0 0.33212,1.460929 0.33212,2.064702 z m 2.19416,1.807028 v 3.440937 c 0,0 0.3462,0.364928 0.3462,0.786704 l -0.89,-0.801567 v -5.737634 c 0,0 0.5438,1.017989 0.5438,2.31156 z"
       class="UnoptimicedTransforms" /></g></svg>
