<?xml version="1.0" encoding="UTF-8" standalone="no"?>
<!-- Generator: Adobe Illustrator 23.0.1, SVG Export Plug-In . SVG Version: 6.00 Build 0)  -->

<svg
   version="1.1"
   x="0px"
   y="0px"
   viewBox="0 0 72 72"
   xml:space="preserve"
   id="svg969"
   width="72"
   height="72"
   xmlns="http://www.w3.org/2000/svg"
   xmlns:svg="http://www.w3.org/2000/svg"><defs
   id="defs973" />
<style
   type="text/css"
   id="style2">
	.st0{fill:#FFFFFF;}
	.st1{fill:#B65A27;}
	.st2{fill:#898966;}
	.st3{fill:#417E24;}
	.st4{fill:#4D545E;}
	.st5{fill:#781907;}
	.st6{fill:#838383;}
	.st7{fill:#D6A648;}
	.st8{fill:#AE4025;}
	.st9{fill:#727272;}
	.st10{fill:#A15841;}
	.st11{fill:#7F8036;}
	.st12{fill:#DF6F5A;}
	.st13{enable-background:new    ;}
	.st14{fill:#B14D39;}
	.st15{fill:none;stroke:#FFFFFF;stroke-width:2.9294;stroke-miterlimit:10;}
	.st16{fill:#515A65;enable-background:new    ;}
	.st17{fill:#617F92;}
	.st18{fill:#555F47;}
	.st19{fill:#686868;}
	.st20{fill:#635956;}
	.st21{fill:#636363;}
</style>
<g
   id="layer3"
   transform="translate(-213.17807,-86.547231)"><polygon
     class="st0"
     points="245.2,105.4 245.2,106.7 253.8,106.7 253.8,105.4 252.8,105.4 252.8,94.4 246.1,94.4 246.1,105.4 "
     id="polygon20"
     transform="matrix(1.4124398,0,0,1.39538,-103.22564,9.6601836)" /><path
     class="st0"
     d="m 253.72193,138.87237 h -9.32211 c 0,-3.34891 2.2599,-10.88396 4.66105,-10.88396 2.5424,0 4.66106,7.53505 4.66106,10.88396 z"
     id="path22"
     style="stroke-width:1.40389" /><path
     id="path14033_2_"
     class="st2"
     d="m 245.23052,92.098201 c 2.68363,0 -13.84191,36.864669 -15.39559,36.864669 -1.55368,0 7.20345,-24.15271 7.20345,-24.15271 0,0 -6.77971,4.23733 -7.76843,4.23733 -1.12994,0 13.13569,-16.949289 15.96057,-16.949289 z m 7.90966,0 c -2.68362,0 13.84192,36.864669 15.3956,36.864669 1.55368,0 -7.20345,-24.15271 -7.20345,-24.15271 0,0 6.77972,4.23733 7.76843,4.23733 0.9887,0 -13.27694,-16.949289 -15.96058,-16.949289 z"
     style="stroke-width:1.41244" /></g>

</svg>
