<?xml version="1.0" encoding="UTF-8" standalone="no"?>
<!-- Generator: Adobe Illustrator 23.0.1, SVG Export Plug-In . SVG Version: 6.00 Build 0)  -->

<svg
   version="1.1"
   x="0px"
   y="0px"
   viewBox="0 0 72 72"
   xml:space="preserve"
   id="svg969"
   width="72"
   height="72"
   xmlns="http://www.w3.org/2000/svg"
   xmlns:svg="http://www.w3.org/2000/svg"><defs
   id="defs973" />
<style
   type="text/css"
   id="style2">
	.st0{fill:#FFFFFF;}
	.st1{fill:#B65A27;}
	.st2{fill:#898966;}
	.st3{fill:#417E24;}
	.st4{fill:#4D545E;}
	.st5{fill:#781907;}
	.st6{fill:#838383;}
	.st7{fill:#D6A648;}
	.st8{fill:#AE4025;}
	.st9{fill:#727272;}
	.st10{fill:#A15841;}
	.st11{fill:#7F8036;}
	.st12{fill:#DF6F5A;}
	.st13{enable-background:new    ;}
	.st14{fill:#B14D39;}
	.st15{fill:none;stroke:#FFFFFF;stroke-width:2.9294;stroke-miterlimit:10;}
	.st16{fill:#515A65;enable-background:new    ;}
	.st17{fill:#617F92;}
	.st18{fill:#555F47;}
	.st19{fill:#686868;}
	.st20{fill:#635956;}
	.st21{fill:#636363;}
</style>
<g
   id="layer20"
   transform="translate(-1037.8063,63.854722)"><g
     id="g219"
     transform="matrix(1.2254032,0,0,1.2254032,811.26371,-292.07851)">
					
					<polygon
   class="st6"
   points="208.2,219.9 208.2,224.9 209.3,224.9 209.3,238.7 208.5,238.7 206.9,224 202.6,225.8 205.2,221.8 201,222.7 209.3,211.4 209.3,219.9 "
   id="polygon213" />
					<polygon
   class="st6"
   points="223.3,221.8 225.9,225.8 221.6,224 220,238.7 219.2,238.7 219.2,224.9 220.3,224.9 220.3,219.9 219.2,219.9 219.2,211.4 227.5,222.7 "
   id="polygon215" />
					<polygon
   class="st6"
   points="213.7,245 213.4,224.9 215.1,224.9 214.8,245 "
   id="polygon217" />
				</g><g
     id="layer4-98_4_"
     transform="matrix(1.2254032,0,0,1.2254032,837.66774,-284.40929)">
						<path
   class="st0"
   d="m 197,215.4 v 1.5 h -8.6 v -1.5 h 1.2 v -16.7 c 0,-1.1 1,-1.7 1,-3.2 h 4.3 c 0,1.5 1,2.1 1,3.2 v 16.7 z"
   id="path208" />
						<path
   class="st0"
   d="m 194.9,193.7 h -4.3 c 0,-3.6 1.1,-11.5 2.2,-11.5 1.1,0 2,7.9 2.1,11.5 z"
   id="path210" />
					</g></g>

</svg>
