<?xml version="1.0" encoding="UTF-8" standalone="no"?>
<!-- Generator: Adobe Illustrator 23.0.1, SVG Export Plug-In . SVG Version: 6.00 Build 0)  -->

<svg
   version="1.1"
   x="0px"
   y="0px"
   viewBox="0 0 72 72"
   xml:space="preserve"
   id="svg969"
   width="72"
   height="72"
   xmlns="http://www.w3.org/2000/svg"
   xmlns:svg="http://www.w3.org/2000/svg"><defs
   id="defs973" />
<style
   type="text/css"
   id="style2">
	.st0{fill:#FFFFFF;}
	.st1{fill:#B65A27;}
	.st2{fill:#898966;}
	.st3{fill:#417E24;}
	.st4{fill:#4D545E;}
	.st5{fill:#781907;}
	.st6{fill:#838383;}
	.st7{fill:#D6A648;}
	.st8{fill:#AE4025;}
	.st9{fill:#727272;}
	.st10{fill:#A15841;}
	.st11{fill:#7F8036;}
	.st12{fill:#DF6F5A;}
	.st13{enable-background:new    ;}
	.st14{fill:#B14D39;}
	.st15{fill:none;stroke:#FFFFFF;stroke-width:2.9294;stroke-miterlimit:10;}
	.st16{fill:#515A65;enable-background:new    ;}
	.st17{fill:#617F92;}
	.st18{fill:#555F47;}
	.st19{fill:#686868;}
	.st20{fill:#635956;}
	.st21{fill:#636363;}
</style>
<g
   id="layer15"
   transform="translate(-488.23104,-172.94766)"><g
     id="g137"
     transform="matrix(1.2584085,0,0,1.2584085,386.61549,24.307442)">
					<g
   id="layer4_6_"
   transform="translate(-1.9975827,0.33274602)">
						<path
   class="st0"
   d="m 116.4,173.5 v 1.5 h -10 v -1.5 h 1.2 v -15.2 c 0,-1.1 1,-1.8 1,-3.3 h 5.6 c 0,1.5 1,2.3 1,3.3 v 15.2 z"
   id="path129" />
						<path
   class="st0"
   d="m 114.2,153.3 h -5.6 c 0,-1.9 1.1,-6.2 2.8,-6.2 1.7,0 2.8,4.3 2.8,6.2 z"
   id="path131" />
					</g>
					<path
   id="path8080_3_"
   class="st5"
   d="m 95.6,121.6 c -0.3,0.3 8.5,10.8 12.7,15.2 4.3,4.3 14.2,12.9 14.8,12.4 0.5,-0.5 -8,-10.5 -12.3,-14.8 -4.2,-4.4 -14.9,-13.1 -15.2,-12.8 z" />
					<path
   class="st5"
   d="m 121.5,124.1 c 0,0 0,0 0,0 1.1,-1.4 1.7,-2.4 1.6,-2.6 -0.5,-0.5 -10.5,8.1 -14.7,12.4 -4.2,4.3 -12.8,15.1 -12.6,15.3 0.1,0.1 2.8,-2 6,-4.7 v 0 c 0.9,-0.7 -0.1,1.7 -0.1,2.7 0,1.8 1.8,1.8 1.8,0 0,-1.1 -1.4,-2.9 0.5,-4.6 0,0 0,0 0,0 2.6,-2.2 5.2,-4.6 6.8,-6.3 2.3,-2.3 5.8,-6.3 8.5,-9.5 0,0 0,0 0,0 v 0 c 1.4,-1.8 0,4 0,6.2 0,2.2 2.2,2.2 2.2,0 0,-2.1 -1.6,-7 0,-8.9 z"
   id="path135" />
				</g></g>

</svg>
