<?xml version="1.0" encoding="UTF-8" standalone="no"?>
<!-- Generator: Adobe Illustrator 23.0.1, SVG Export Plug-In . SVG Version: 6.00 Build 0)  -->

<svg
   version="1.1"
   x="0px"
   y="0px"
   viewBox="0 0 72 72"
   xml:space="preserve"
   id="svg969"
   width="72"
   height="72"
   xmlns="http://www.w3.org/2000/svg"
   xmlns:svg="http://www.w3.org/2000/svg"><defs
   id="defs973" />
<style
   type="text/css"
   id="style2">
	.st0{fill:#FFFFFF;}
	.st1{fill:#B65A27;}
	.st2{fill:#898966;}
	.st3{fill:#417E24;}
	.st4{fill:#4D545E;}
	.st5{fill:#781907;}
	.st6{fill:#838383;}
	.st7{fill:#D6A648;}
	.st8{fill:#AE4025;}
	.st9{fill:#727272;}
	.st10{fill:#A15841;}
	.st11{fill:#7F8036;}
	.st12{fill:#DF6F5A;}
	.st13{enable-background:new    ;}
	.st14{fill:#B14D39;}
	.st15{fill:none;stroke:#FFFFFF;stroke-width:2.9294;stroke-miterlimit:10;}
	.st16{fill:#515A65;enable-background:new    ;}
	.st17{fill:#617F92;}
	.st18{fill:#555F47;}
	.st19{fill:#686868;}
	.st20{fill:#635956;}
	.st21{fill:#636363;}
</style>
<g
   id="layer74"
   transform="translate(3929.2159,18.000007)"><path
     class="st0"
     d="m -3890.406,26.225418 v -1.40494 c 2.0533,-2.485662 4.1067,-5.079397 4.3229,-5.295542 v 0 l -7.1328,-17.0754212 -7.1328,17.0754212 v 0 c 0.2162,0.216145 2.2695,2.80988 4.3229,5.295542 v 1.40494 c 0,0.756506 0.5404,1.40494 1.2969,1.40494 v 4.647108 c -1.513,0.648434 -2.4857,2.053374 -2.4857,3.782531 V 49.89325 c 0,2.269518 1.8372,4.106747 4.1068,4.106747 2.2695,0 4.1067,-1.837229 4.1067,-4.106747 V 36.059997 c 0,-1.080723 -0.4323,-2.161446 -1.1888,-2.917952 -0.3242,-0.324217 -0.8646,-0.648434 -1.2969,-0.864579 v -4.647108 c 0.5404,0 1.0808,-0.648434 1.0808,-1.40494 z m -2.918,-20.5337345 4.1068,13.6171085 -2.1615,2.37759 -0.9726,-1.513012 h -2.0534 l -0.9727,1.513012 -2.1614,-2.37759 z m 2.2695,43.1208435 c 0,1.080723 -0.9726,2.053373 -2.1614,2.053373 -1.1888,0 -2.1615,-0.864578 -2.1615,-2.053373 V 35.951924 c 0,-1.080723 0.9727,-2.053373 2.1615,-2.053373 1.1888,0 2.1614,0.97265 2.1614,2.053373 z"
     id="path367"
     style="stroke-width:1.08072" /></g>

</svg>
