<?xml version="1.0" encoding="UTF-8" standalone="no"?>
<!-- Generator: Adobe Illustrator 23.0.1, SVG Export Plug-In . SVG Version: 6.00 Build 0)  -->

<svg
   version="1.1"
   x="0px"
   y="0px"
   viewBox="0 0 72 72"
   xml:space="preserve"
   id="svg969"
   width="72"
   height="72"
   xmlns="http://www.w3.org/2000/svg"
   xmlns:svg="http://www.w3.org/2000/svg"><defs
   id="defs973" />
<style
   type="text/css"
   id="style2">
	.st0{fill:#FFFFFF;}
	.st1{fill:#B65A27;}
	.st2{fill:#898966;}
	.st3{fill:#417E24;}
	.st4{fill:#4D545E;}
	.st5{fill:#781907;}
	.st6{fill:#838383;}
	.st7{fill:#D6A648;}
	.st8{fill:#AE4025;}
	.st9{fill:#727272;}
	.st10{fill:#A15841;}
	.st11{fill:#7F8036;}
	.st12{fill:#DF6F5A;}
	.st13{enable-background:new    ;}
	.st14{fill:#B14D39;}
	.st15{fill:none;stroke:#FFFFFF;stroke-width:2.9294;stroke-miterlimit:10;}
	.st16{fill:#515A65;enable-background:new    ;}
	.st17{fill:#617F92;}
	.st18{fill:#555F47;}
	.st19{fill:#686868;}
	.st20{fill:#635956;}
	.st21{fill:#636363;}
</style>
<g
   id="layer30"
   transform="translate(-1484.0343,14.624046)"><g
     id="g363"
     transform="matrix(1.2201816,0,0,1.2201816,1343.718,-326.85923)">
					<g
   id="g329">
						<rect
   x="140.10001"
   y="286.79999"
   class="st0"
   width="8.6999998"
   height="20.4"
   id="rect325" />
						<polygon
   class="st0"
   points="148.8,308.9 140.1,308.9 140.1,313.4 139,313.4 139,314.9 140.1,314.9 148.8,314.9 149.9,314.9 149.9,313.4 148.8,313.4 "
   id="polygon327" />
					</g>
					<g
   id="g333">
						<circle
   class="st12"
   cx="144.5"
   cy="276.89999"
   r="4.0999999"
   id="circle331" />
					</g>
					<g
   id="g337">
						<path
   class="st12"
   d="m 144.5,269.4 v 0 c -0.8,0 -1.5,-0.7 -1.5,-1.5 v -6.3 c 0,-0.8 0.7,-1.5 1.5,-1.5 v 0 c 0.8,0 1.5,0.7 1.5,1.5 v 6.3 c 0,0.9 -0.7,1.5 -1.5,1.5 z"
   id="path335" />
					</g>
					<g
   id="g341">
						<path
   class="st12"
   d="m 137.1,271.6 -1.2,-1.2 c -0.6,-0.6 -0.6,-1.5 0,-2.1 v 0 c 0.6,-0.6 1.5,-0.6 2.1,0 l 1.2,1.2 c 0.6,0.6 0.6,1.5 0,2.1 v 0 c -0.6,0.6 -1.5,0.6 -2.1,0 z"
   id="path339" />
					</g>
					<g
   id="g345">
						<path
   class="st12"
   d="m 135.6,278.4 h -6.3 c -0.8,0 -1.5,-0.7 -1.5,-1.5 v 0 c 0,-0.8 0.7,-1.5 1.5,-1.5 h 6.3 c 0.8,0 1.5,0.7 1.5,1.5 v 0 c -0.1,0.8 -0.7,1.5 -1.5,1.5 z"
   id="path343" />
					</g>
					<g
   id="g349">
						<path
   class="st12"
   d="m 136,285.4 v 0 c -0.6,-0.6 -0.6,-1.5 0,-2.1 l 1.2,-1.2 c 0.6,-0.6 1.5,-0.6 2.1,0 v 0 c 0.6,0.6 0.6,1.5 0,2.1 l -1.2,1.2 c -0.6,0.6 -1.6,0.6 -2.1,0 z"
   id="path347" />
					</g>
					<g
   id="g353">
						<path
   class="st12"
   d="m 151,285.4 -1.2,-1.2 c -0.6,-0.6 -0.6,-1.5 0,-2.1 v 0 c 0.6,-0.6 1.5,-0.6 2.1,0 l 1.2,1.2 c 0.6,0.6 0.6,1.5 0,2.1 v 0 c -0.6,0.6 -1.6,0.6 -2.1,0 z"
   id="path351" />
					</g>
					<g
   id="g357">
						<path
   class="st12"
   d="m 159.7,278.4 h -6.3 c -0.8,0 -1.5,-0.7 -1.5,-1.5 v 0 c 0,-0.8 0.7,-1.5 1.5,-1.5 h 6.3 c 0.8,0 1.5,0.7 1.5,1.5 v 0 c 0,0.8 -0.7,1.5 -1.5,1.5 z"
   id="path355" />
					</g>
					<g
   id="g361">
						<path
   class="st12"
   d="m 149.8,271.6 v 0 c -0.6,-0.6 -0.6,-1.5 0,-2.1 l 1.2,-1.2 c 0.6,-0.6 1.5,-0.6 2.1,0 v 0 c 0.6,0.6 0.6,1.5 0,2.1 l -1.2,1.2 c -0.6,0.6 -1.6,0.6 -2.1,0 z"
   id="path359" />
					</g>
				</g></g>

</svg>
