<?xml version="1.0" encoding="UTF-8" standalone="no"?>
<!-- Created with Inkscape (http://www.inkscape.org/) -->

<svg
   width="12.700012mm"
   height="12.700005mm"
   viewBox="0 0 12.700012 12.700005"
   version="1.1"
   id="svg5"
   xml:space="preserve"
   xmlns="http://www.w3.org/2000/svg"
   xmlns:svg="http://www.w3.org/2000/svg"><defs
     id="defs2"><linearGradient
       id="linearGradient13302"><stop
         style="stop-color:#ff0000;stop-opacity:1;"
         offset="0"
         id="stop13300" /></linearGradient></defs><g
     id="g3011"
     style="opacity:1"
     transform="matrix(0.78324361,0,0,0.78324361,-50.300231,-51.935303)"><path
       id="path3009"
       style="opacity:1;fill:#ffffff;stroke:none;stroke-width:0.2;stroke-linecap:round;stroke-linejoin:round"
       d="m 71.027966,73.938123 v 6.133475 h 2.62309 v -6.133475 z m 0,6.770129 v 1.364258 h -0.32711 v 0.450101 h 0.32711 2.62309 0.32712 V 82.07251 h -0.32712 v -1.364258 z" /><path
       id="path3119"
       style="opacity:1;fill:#a15841;fill-opacity:1;stroke:none;stroke-width:0.2;stroke-linecap:round;stroke-linejoin:round"
       d="m 76.000072,66.787793 a 2.0348632,1.0405893 23.373205 0 0 -2.280915,0.148029 2.0348632,1.0405893 23.373205 0 0 1.455135,1.762688 2.0348632,1.0405893 23.373205 0 0 2.280915,-0.148028 2.0348632,1.0405893 23.373205 0 0 -1.455135,-1.762689 z m -1.975729,0.490472 c 0.148971,0.04879 0.598923,0.706399 1.329349,1.022077 0.834771,0.360774 1.719215,0.138231 1.647811,0.303447 -0.0714,0.16522 -0.915987,0.261664 -1.750759,-0.09911 -0.834773,-0.360775 -1.343245,-1.042028 -1.271855,-1.207213 0.0089,-0.02065 0.02417,-0.02617 0.04545,-0.0192 z" /><path
       id="path3119-5"
       style="fill:#a15841;fill-opacity:1;stroke:none;stroke-width:0.2;stroke-linecap:round;stroke-linejoin:round"
       d="m 73.204156,70.510714 a 2.0348632,1.0405893 17.390243 0 0 -2.253062,0.38497 2.0348632,1.0405893 17.390243 0 0 1.63094,1.601413 2.0348632,1.0405893 17.390243 0 0 2.253062,-0.384969 2.0348632,1.0405893 17.390243 0 0 -1.63094,-1.601414 z m -1.913844,0.693736 c 0.15324,0.03302 0.669291,0.640124 1.428643,0.877949 0.867828,0.271798 1.724258,-0.04172 1.670465,0.130029 -0.05379,0.171764 -0.883724,0.355714 -1.751554,0.08392 -0.86783,-0.271798 -1.444541,-0.896342 -1.390758,-1.068069 0.0067,-0.02147 0.02132,-0.02855 0.0432,-0.02383 z" /><path
       id="path3119-3"
       style="fill:#a15841;fill-opacity:1;stroke:none;stroke-width:0.2;stroke-linecap:round;stroke-linejoin:round"
       d="m 71.283945,68.61588 a 1.0405893,2.0348632 66.319452 0 0 -1.445658,1.770468 1.0405893,2.0348632 66.319452 0 0 2.281676,0.135789 1.0405893,2.0348632 66.319452 0 0 1.445659,-1.770468 1.0405893,2.0348632 66.319452 0 0 -2.281677,-0.135789 z m -0.987066,1.780385 c 0.13721,-0.07581 0.925133,0.04287 1.653855,-0.276722 0.832825,-0.365246 1.272505,-1.164275 1.344794,-0.999443 0.0723,0.16483 -0.432536,0.84877 -1.265361,1.214019 -0.832824,0.365247 -1.677925,0.273299 -1.7502,0.1085 -0.0091,-0.02059 -0.0026,-0.03552 0.01688,-0.04636 z" /><path
       id="path3119-3-5"
       style="fill:#a15841;fill-opacity:1;stroke:none;stroke-width:0.2;stroke-linecap:round;stroke-linejoin:round"
       d="m 67.577544,67.786853 a 1.0405893,2.0348632 24.168026 0 0 0.116374,2.282748 1.0405893,2.0348632 24.168026 0 0 1.782703,-1.430543 1.0405893,2.0348632 24.168026 0 0 -0.116373,-2.282749 1.0405893,2.0348632 24.168026 0 0 -1.782704,1.430544 z m 0.463017,1.982342 c 0.05085,-0.148278 0.714638,-0.589068 1.040419,-1.315043 0.37232,-0.829687 0.162066,-1.717132 0.326276,-1.643443 0.164216,0.07368 0.248932,0.919528 -0.123386,1.749216 -0.37232,0.829688 -1.060562,1.32866 -1.224739,1.254985 -0.02052,-0.0092 -0.0258,-0.02456 -0.01859,-0.04569 z" /></g></svg>
