<?xml version="1.0" encoding="UTF-8" standalone="no"?>
<!-- Generator: Adobe Illustrator 23.0.1, SVG Export Plug-In . SVG Version: 6.00 Build 0)  -->

<svg
   version="1.1"
   x="0px"
   y="0px"
   viewBox="0 0 72 71.999992"
   xml:space="preserve"
   id="svg969"
   width="72"
   height="71.999992"
   xmlns="http://www.w3.org/2000/svg"
   xmlns:svg="http://www.w3.org/2000/svg"><defs
   id="defs973" />
<style
   type="text/css"
   id="style2">
	.st0{fill:#FFFFFF;}
	.st1{fill:#B65A27;}
	.st2{fill:#898966;}
	.st3{fill:#417E24;}
	.st4{fill:#4D545E;}
	.st5{fill:#781907;}
	.st6{fill:#838383;}
	.st7{fill:#D6A648;}
	.st8{fill:#AE4025;}
	.st9{fill:#727272;}
	.st10{fill:#A15841;}
	.st11{fill:#7F8036;}
	.st12{fill:#DF6F5A;}
	.st13{enable-background:new    ;}
	.st14{fill:#B14D39;}
	.st15{fill:none;stroke:#FFFFFF;stroke-width:2.9294;stroke-miterlimit:10;}
	.st16{fill:#515A65;enable-background:new    ;}
	.st17{fill:#617F92;}
	.st18{fill:#555F47;}
	.st19{fill:#686868;}
	.st20{fill:#635956;}
	.st21{fill:#636363;}
</style>
<g
   id="layer59"
   transform="translate(1721.6344,19.865106)"><g
     id="g694"
     transform="matrix(1.1318991,0,0,1.1318991,-2007.2635,-620.89232)">
						<rect
   x="283.29999"
   y="576.90002"
   class="st0"
   width="1.8"
   height="17.6"
   id="rect692" />
					</g><polygon
     class="st0"
     points="290.6,594.6 289.7,587 286.8,584.1 286.8,591.3 "
     id="polygon696"
     transform="matrix(1.1318991,0,0,1.1318991,-2007.2635,-620.89232)" /><polygon
     class="st0"
     points="277.8,594.6 278.7,587 281.6,584.1 281.6,591.3 "
     id="polygon698"
     transform="matrix(1.1318991,0,0,1.1318991,-2007.2635,-620.89232)" /><polygon
     class="st0"
     points="281.8,568.3 281.8,565.3 286.6,565.3 286.6,566.9 "
     id="polygon700"
     transform="matrix(1.1318991,0,0,1.1318991,-2007.2635,-620.89232)" /><polygon
     class="st0"
     points="286.6,570.9 281.8,571.8 281.8,569.8 286.6,568.4 "
     id="polygon702"
     transform="matrix(1.1318991,0,0,1.1318991,-2007.2635,-620.89232)" /><polygon
     class="st0"
     points="281.8,575.2 281.8,573.1 286.6,572.3 286.6,575.2 "
     id="polygon704"
     transform="matrix(1.1318991,0,0,1.1318991,-2007.2635,-620.89232)" /><rect
     x="-1687.7285"
     y="16.253685"
     class="st0"
     width="4.4144068"
     height="1.2450891"
     id="rect706"
     style="stroke-width:1.13189" /><path
     class="st0"
     d="m -1683.4272,15.008569 h -4.3012 c 0,-1.131899 1.0187,-2.150608 2.1506,-2.150608 1.1319,0.113189 2.1506,1.018709 2.1506,2.150608 z"
     id="path708"
     style="stroke-width:1.13189" /><rect
     x="-1664.4779"
     y="-241.19318"
     transform="rotate(-9.1024975)"
     class="st0"
     width="2.7165389"
     height="1.1318911"
     id="rect710"
     style="stroke-width:1.13189" /><polygon
     class="st0"
     points="278.5,569.6 280.5,569.1 280.7,570.1 278.7,570.6 "
     id="polygon712"
     transform="matrix(1.1318991,0,0,1.1318991,-2007.2635,-620.89232)" /><polygon
     class="st0"
     points="279.7,563 281.3,564.3 280.6,565.1 279,563.8 "
     id="polygon714"
     transform="matrix(1.1318991,0,0,1.1318991,-2007.2635,-620.89232)" /><rect
     x="-1188.554"
     y="-1190.0712"
     transform="rotate(-45.644201)"
     class="st0"
     width="1.8110076"
     height="1.1318797"
     id="rect716"
     style="stroke-width:1.13188" /><g
     class="st13"
     id="g722"
     transform="matrix(1.1318991,0,0,1.1318991,-2007.2635,-620.89232)">
						<polygon
   class="st20"
   points="273.2,545.4 267.8,545.4 267.8,543.6 274.4,543.6 "
   id="polygon718" />
						<polygon
   class="st20"
   points="294,545.4 295.2,543.6 300.5,543.6 300.5,545.4 "
   id="polygon720" />
					</g><g
     class="st13"
     id="g726"
     transform="matrix(1.1318991,0,0,1.1318991,-2007.2635,-620.89232)">
						<polygon
   class="st20"
   points="269.5,535.6 271.6,535.6 276,541.5 274.9,543 "
   id="polygon724" />
					</g><g
     class="st13"
     id="g736"
     transform="matrix(1.1318991,0,0,1.1318991,-2007.2635,-620.89232)">
						<polygon
   class="st20"
   points="273.3,551.1 280.7,541 278.5,541 271.1,551.1 "
   id="polygon728" />
						<polygon
   class="st20"
   points="280.4,547.9 285.4,541 283.3,541 278.2,547.9 "
   id="polygon730" />
						<polygon
   class="st20"
   points="285.1,547.9 290.2,541 288,541 282.9,547.9 "
   id="polygon732" />
						<polygon
   class="st20"
   points="289.9,547.9 297.3,537.8 295.1,537.8 287.7,547.9 "
   id="polygon734" />
					</g><polygon
     class="st20"
     points="296.7,553.3 298.9,553.3 293.5,546 292.4,547.5 "
     id="polygon738"
     transform="matrix(1.1318991,0,0,1.1318991,-2007.2635,-620.89232)" /></g>

</svg>
