<?xml version="1.0" encoding="UTF-8" standalone="no"?>
<!-- Generator: Adobe Illustrator 23.0.1, SVG Export Plug-In . SVG Version: 6.00 Build 0)  -->

<svg
   version="1.1"
   x="0px"
   y="0px"
   viewBox="0 0 72 72"
   xml:space="preserve"
   id="svg969"
   width="72"
   height="72"
   xmlns="http://www.w3.org/2000/svg"
   xmlns:svg="http://www.w3.org/2000/svg"><defs
   id="defs973" />
<style
   type="text/css"
   id="style2">
	.st0{fill:#FFFFFF;}
	.st1{fill:#B65A27;}
	.st2{fill:#898966;}
	.st3{fill:#417E24;}
	.st4{fill:#4D545E;}
	.st5{fill:#781907;}
	.st6{fill:#838383;}
	.st7{fill:#D6A648;}
	.st8{fill:#AE4025;}
	.st9{fill:#727272;}
	.st10{fill:#A15841;}
	.st11{fill:#7F8036;}
	.st12{fill:#DF6F5A;}
	.st13{enable-background:new    ;}
	.st14{fill:#B14D39;}
	.st15{fill:none;stroke:#FFFFFF;stroke-width:2.9294;stroke-miterlimit:10;}
	.st16{fill:#515A65;enable-background:new    ;}
	.st17{fill:#617F92;}
	.st18{fill:#555F47;}
	.st19{fill:#686868;}
	.st20{fill:#635956;}
	.st21{fill:#636363;}
</style>
<g
   id="layer28"
   transform="translate(-1406.2549,23.624042)"><g
     id="g311"
     transform="matrix(1.2201816,0,0,1.2201816,1180.8491,-335.85923)">
					<g
   id="g299">
						<rect
   x="209.89999"
   y="286.79999"
   class="st0"
   width="8.6999998"
   height="20.4"
   id="rect295" />
						<polygon
   class="st0"
   points="209.9,313.4 208.8,313.4 208.8,314.9 209.9,314.9 218.6,314.9 219.7,314.9 219.7,313.4 218.6,313.4 218.6,308.9 209.9,308.9 "
   id="polygon297" />
					</g>
					<g
   id="g309">
						<path
   class="st10"
   d="m 216.7,273.2 c -3.2,-0.9 -6.1,-0.1 -6.6,1.7 -0.5,1.8 1.7,4 4.8,4.9 3.2,0.9 6.2,0.1 6.6,-1.8 0.6,-1.8 -1.6,-4 -4.8,-4.8 z m 2.5,6 c -0.5,0.1 -1.1,0.2 -1.7,0.2 -0.8,0 -1.5,-0.1 -2.3,-0.3 -1.4,-0.4 -2.6,-1.1 -3.5,-1.9 -0.3,-0.3 -0.5,-0.6 -0.6,-0.8 -0.1,-0.2 0,-0.5 0.2,-0.6 0.2,-0.1 0.5,0 0.6,0.2 0.1,0.2 0.3,0.4 0.5,0.6 0.7,0.7 1.8,1.3 3.1,1.7 1.3,0.4 2.6,0.4 3.6,0.1 0.2,-0.1 0.5,0.1 0.6,0.3 -0.2,0.2 -0.3,0.4 -0.5,0.5 z"
   id="path301" />
						<path
   class="st10"
   d="m 226,260.8 c -3.1,-1.1 -6.1,-0.6 -6.8,1.2 -0.6,1.8 1.3,4.1 4.4,5.3 3.1,1.1 6.1,0.6 6.8,-1.2 0.6,-1.8 -1.3,-4.1 -4.4,-5.3 z m 1.9,6.3 c -0.5,0.1 -1.1,0.1 -1.7,0.1 -0.8,-0.1 -1.5,-0.2 -2.3,-0.5 -1.4,-0.5 -2.5,-1.3 -3.3,-2.2 -0.3,-0.3 -0.4,-0.6 -0.6,-0.9 -0.1,-0.2 0,-0.5 0.2,-0.6 0.2,-0.1 0.5,0 0.6,0.2 0.1,0.2 0.2,0.4 0.4,0.7 0.7,0.8 1.7,1.5 2.9,1.9 1.2,0.5 2.6,0.6 3.5,0.4 0.3,-0.1 0.5,0.1 0.5,0.3 0.2,0.3 0,0.5 -0.2,0.6 z"
   id="path303" />
						<path
   class="st10"
   d="m 210.3,267 c -2.8,1.6 -4.4,4.3 -3.4,6 1,1.6 4,1.6 6.9,0 2.8,-1.7 4.4,-4.3 3.4,-6 -0.9,-1.7 -4,-1.7 -6.9,0 z m 6,2.5 c -0.3,0.5 -0.6,0.9 -1,1.4 -0.5,0.5 -1.2,1 -1.9,1.4 -1.3,0.7 -2.6,1.1 -3.8,1.1 -0.4,0 -0.7,0 -1.1,-0.1 -0.2,-0.1 -0.4,-0.3 -0.3,-0.5 0.1,-0.2 0.3,-0.4 0.5,-0.3 0.2,0.1 0.5,0.1 0.8,0.1 1,0 2.2,-0.4 3.3,-1 1.1,-0.7 2.1,-1.6 2.6,-2.5 0.1,-0.2 0.4,-0.3 0.6,-0.2 0.4,0.1 0.4,0.4 0.3,0.6 z"
   id="path305" />
						<path
   class="st10"
   d="m 199.1,264.1 c -1.6,2.9 -1.5,6 0.2,6.9 1.7,0.9 4.3,-0.7 5.8,-3.6 1.5,-2.9 1.5,-6 -0.2,-6.9 -1.7,-0.9 -4.3,0.7 -5.8,3.6 z m 6.4,-1 c 0,0.5 0,1.1 -0.2,1.7 -0.2,0.7 -0.5,1.5 -0.8,2.2 -0.7,1.3 -1.6,2.3 -2.6,2.9 -0.3,0.2 -0.7,0.4 -1,0.4 -0.2,0.1 -0.5,-0.1 -0.5,-0.3 -0.1,-0.2 0.1,-0.5 0.3,-0.5 0.2,-0.1 0.5,-0.2 0.7,-0.3 0.9,-0.5 1.7,-1.5 2.3,-2.6 0.6,-1.2 1,-2.4 0.9,-3.4 0,-0.3 0.2,-0.5 0.4,-0.5 0.3,0 0.5,0.1 0.5,0.4 z"
   id="path307" />
					</g>
				</g></g>

</svg>
