<?xml version="1.0" encoding="UTF-8" standalone="no"?>
<!-- Created with Inkscape (http://www.inkscape.org/) -->

<svg
   width="12.700012mm"
   height="12.700001mm"
   viewBox="0 0 12.700012 12.700001"
   version="1.1"
   id="svg5"
   xml:space="preserve"
   xmlns="http://www.w3.org/2000/svg"
   xmlns:svg="http://www.w3.org/2000/svg"><defs
     id="defs2"><linearGradient
       id="linearGradient13302"><stop
         style="stop-color:#ff0000;stop-opacity:1;"
         offset="0"
         id="stop13300" /></linearGradient></defs><g
     id="layer4-1"
     transform="matrix(0.87282671,0,0,0.87282671,-34.380546,-28.097112)"
     style="display:inline"><path
       id="rect9814-2"
       style="opacity:1;fill:#ffffff;fill-opacity:1;stroke:none;stroke-width:0.277268;stroke-linecap:round;stroke-linejoin:round;stroke-dasharray:none;stroke-dashoffset:0;stroke-opacity:1;paint-order:normal"
       d="m 103.10017,34.439758 c 0,0.455937 -0.30024,0.683702 -0.30024,1.000456 V 40 h -0.34985 v 0.439909 h 1.50016 V 34.44 Z m 1.70014,0 c 0,0.455937 0.30024,0.683702 0.30024,1.000456 V 40 h 0.34985 v 0.439909 h -1.50016 V 34.44 Z"
       class="UnoptimicedTransforms"
       transform="translate(-57.285141)" /><path
       id="path13635-5-9"
       style="display:inline;fill:#ffffff;fill-opacity:1;stroke-width:0.0790129"
       d="m 104.87852,15.551064 -0.85007,-2.73e-4 c 0.003,-0.810179 0.33346,-2.594822 0.85007,-2.594822 z m 0,0 0.85007,-2.73e-4 c -0.003,-0.810179 -0.33346,-2.594822 -0.85007,-2.594822 z"
       transform="matrix(1,0,0,0.71841695,-58.213421,22.883153)"
       class="UnoptimicedTransforms" /><path
       id="path18278-3"
       style="display:inline;fill:#4d545e;fill-opacity:1;fill-rule:nonzero;stroke-width:0.16434;stroke-dasharray:none"
       d="m 44.669699,41.077584 c -0.0875,-6.24e-4 -0.24033,0.04061 -0.40928,0.129191 -1.1381,0.616212 -0.45847,1.644488 2.0469,1.765784 l 0.69143,-0.749309 c -0.0559,-2.19e-4 -0.11193,-2.09e-4 -0.17001,-10e-4 -2.44699,-0.03472 -2.98927,-0.526933 -2.34249,-0.893485 0.3003,-0.160167 0.3114,-0.250236 0.18345,-0.251148 z m 4.4111,0.08423 c -0.11936,0.0065 -0.13425,0.0828 0.10542,0.221175 0.42915,0.27844 0.25795,0.610089 -0.77101,0.76016 l -0.70332,0.800985 c 2.08961,-0.197582 2.67641,-1.081284 1.7663,-1.666565 -0.1485,-0.08359 -0.30455,-0.120777 -0.39739,-0.115755 z m -5.94899,1.496549 c -0.0616,7.83e-4 -0.14667,0.02604 -0.2527,0.08423 -1.219185,0.743617 -0.712532,1.84639 1.526,2.289783 l 0.89091,-0.964282 c -2.04918,-0.171471 -2.634658,-0.644694 -2.19263,-1.061951 0.18999,-0.189995 0.18593,-0.349784 0.0284,-0.347782 z m 7.41453,0.264066 c -0.13622,0.0067 -0.22909,0.119825 -0.16536,0.330213 0.15243,0.467532 -0.90252,0.91855 -3.68867,0.879016 -0.008,-1.08e-4 -0.0147,-4.03e-4 -0.0222,-5.17e-4 l -0.93689,1.067119 c 0.29228,0.0188 0.60279,0.02894 0.93173,0.02894 3.65295,0 5.04543,-1.227584 4.18579,-2.166276 -0.0977,-0.09772 -0.21117,-0.143072 -0.30438,-0.138493 z" /><path
       id="rect5462-1"
       style="display:inline;fill:#4d545e;fill-opacity:1;stroke-width:0.904466;stroke-linecap:round;stroke-linejoin:round"
       d="m 42.991099,46.73854 c 0.0767,0.07671 1.92055,-1.423688 3.04075,-2.621829 1.12021,-1.198141 3.78282,-4.413988 3.64796,-4.548845 -0.13485,-0.134856 -3.15339,2.828013 -4.26899,4.028539 -1.11561,1.200526 -2.49643,3.065421 -2.41972,3.142135 z" /></g></svg>
