<?xml version="1.0" encoding="UTF-8" standalone="no"?>
<!-- Created with Inkscape (http://www.inkscape.org/) -->

<svg
   width="8.4243946mm"
   height="14.064343mm"
   viewBox="0 0 8.4243946 14.064343"
   version="1.1"
   id="svg5"
   xml:space="preserve"
   xmlns="http://www.w3.org/2000/svg"
   xmlns:svg="http://www.w3.org/2000/svg"><defs
     id="defs2"><linearGradient
       id="linearGradient13302"><stop
         style="stop-color:#ff0000;stop-opacity:1;"
         offset="0"
         id="stop13300" /></linearGradient></defs><g
     id="g14043"
     style="display:inline;opacity:1;fill:#ff0000;fill-opacity:1"
     transform="matrix(1,0,0,0.98792184,-99.712422,-12.652751)"><path
       id="rect14037"
       style="display:inline;opacity:1;fill:#ffffff;fill-opacity:1;fill-rule:nonzero;stroke-width:0.286427;stroke-dasharray:none"
       d="m 103.90454,12.807528 c -0.51187,0.02488 -0.97681,1.620408 -0.97979,2.342362 h 0.99219 0.99219 c -0.003,-0.727639 -0.47558,-2.342362 -0.99219,-2.342362 -0.004,0 -0.008,-1.96e-4 -0.0124,0 z m -0.97979,2.748797 v 3.44188 h -0.30024 v 0.404866 h 2.60036 v -0.404866 h -0.30024 v -3.44188 z" /><path
       id="path14049"
       style="opacity:1;fill:#838383;fill-opacity:1;fill-rule:nonzero;stroke-width:0.266614;stroke-dasharray:none"
       d="m 102.15233,17.479698 c 0.0872,0 -2.50614,2.950707 -2.438612,2.950707 0.06753,0 2.410702,-1.394804 2.410702,-1.533154 0,-0.138351 -0.0593,-1.417553 0.0279,-1.417553 z m 0.002,1.923373 c -0.19248,0 -2.21519,2.055713 -2.09807,2.055713 0.11712,0 1.57252,-0.664837 1.57252,-0.664837 l 0.78703,5.142421 c 0,0 -0.069,-6.533297 -0.26148,-6.533297 z m 1.43724,0.665348 c -0.029,0 0.2648,6.975314 0.33305,6.975314 v -6.975314 z m 2.10534,-2.588721 c -0.0872,0 2.50614,2.950707 2.43861,2.950707 -0.0675,0 -2.4107,-1.394804 -2.4107,-1.533154 0,-0.138351 0.0593,-1.417553 -0.0279,-1.417553 z m -0.002,1.923373 c 0.19248,0 2.21519,2.055713 2.09807,2.055713 -0.11712,0 -1.57252,-0.664837 -1.57252,-0.664837 l -0.78703,5.142421 c 0,0 0.069,-6.533297 0.26148,-6.533297 z m -1.43724,0.665348 c 0.029,0 -0.2648,6.975314 -0.33305,6.975314 v -6.975314 z"
       class="UnoptimicedTransforms" /></g></svg>
