<?xml version="1.0" encoding="UTF-8" standalone="no"?>
<!-- Created with Inkscape (http://www.inkscape.org/) -->

<svg
   width="12.700012mm"
   height="12.7mm"
   viewBox="0 0 12.700012 12.7"
   version="1.1"
   id="svg5"
   xml:space="preserve"
   xmlns="http://www.w3.org/2000/svg"
   xmlns:svg="http://www.w3.org/2000/svg"><defs
     id="defs2"><linearGradient
       id="linearGradient13302"><stop
         style="stop-color:#ff0000;stop-opacity:1;"
         offset="0"
         id="stop13300" /></linearGradient></defs><g
     id="g14043"
     style="display:inline;opacity:1;fill:#ff0000;fill-opacity:1"
     transform="matrix(1,0,0,0.98792184,-67.574684,-12.652751)"><path
       id="rect14037"
       style="display:inline;opacity:1;fill:#ffffff;fill-opacity:1;fill-rule:nonzero;stroke-width:0.286427;stroke-dasharray:none"
       d="m 73.904539,12.807528 c -0.51187,0.02488 -0.97681,1.620408 -0.97979,2.342362 h 0.99219 0.99219 c -0.003,-0.727639 -0.47558,-2.342362 -0.99219,-2.342362 -0.004,0 -0.008,-1.96e-4 -0.0124,0 z m -0.97979,2.748797 v 3.44188 h -0.30024 v 0.404866 h 2.60036 v -0.404866 h -0.30024 v -3.44188 z" /><path
       id="path14049"
       style="opacity:1;fill:#838383;fill-opacity:1;fill-rule:nonzero;stroke-width:0.266614;stroke-dasharray:none"
       d="m 101.94167,16.743329 c 0.0872,0 -2.506137,2.950707 -2.438609,2.950707 0.06753,0 2.410699,-1.394804 2.410699,-1.533154 0,-0.138351 -0.0593,-1.417553 0.0279,-1.417553 z m 0.002,1.923373 c -0.19248,0 -2.215187,2.055713 -2.098067,2.055713 0.11712,0 1.572517,-0.664837 1.572517,-0.664837 l 0.99573,4.868762 c 0,0 -0.2777,-6.259638 -0.47018,-6.259638 z m 1.6479,1.401717 c -0.029,0 0.26487,5.59429 0.33312,5.59429 l -7e-5,-5.59429 z m 2.316,-3.32509 c -0.0872,0 2.50614,2.950707 2.43861,2.950707 -0.0675,0 -2.4107,-1.394804 -2.4107,-1.533154 0,-0.138351 0.0593,-1.417553 -0.0279,-1.417553 z m -0.002,1.923373 c 0.19248,0 2.21519,2.055713 2.09807,2.055713 -0.11712,0 -1.57252,-0.664837 -1.57252,-0.664837 l -0.99573,4.868762 c 0,0 0.2777,-6.259638 0.47018,-6.259638 z m -1.6479,1.401717 c 0.029,0 -0.26487,5.59429 -0.33312,5.59429 l 7e-5,-5.59429 z"
       class="UnoptimicedTransforms"
       transform="translate(-30.000001)" /></g></svg>
