<?xml version="1.0" encoding="UTF-8" standalone="no"?>
<!-- Created with Inkscape (http://www.inkscape.org/) -->

<svg
   width="12.700012mm"
   height="12.700001mm"
   viewBox="0 0 12.700012 12.700001"
   version="1.1"
   id="svg5"
   xml:space="preserve"
   xmlns="http://www.w3.org/2000/svg"
   xmlns:svg="http://www.w3.org/2000/svg"><defs
     id="defs2"><linearGradient
       id="linearGradient13302"><stop
         style="stop-color:#ff0000;stop-opacity:1;"
         offset="0"
         id="stop13300" /></linearGradient></defs><g
     id="layer6"
     transform="matrix(0.80333443,0,0,0.80333443,-17.9436,-36.689764)"><path
       id="rect9814-48-6-4"
       style="opacity:1;fill:#ffffff;fill-opacity:1;stroke:none;stroke-width:0.277268;stroke-linecap:round;stroke-linejoin:round;stroke-dasharray:none;stroke-dashoffset:0;stroke-opacity:1;paint-order:normal"
       d="m 103.29886,33.995559 c 0,0.455937 -0.30024,0.648441 -0.30024,0.965195 V 40 h -0.34985 v 0.439909 h 1.30147 v -6.444108 z m 1.30276,0 c 0,0.455937 0.30024,0.648441 0.30024,0.965195 V 40 h 0.34985 v 0.439909 h -1.30147 v -6.444108 z"
       class="UnoptimicedTransforms"
       transform="translate(-73.709271,21.041041)" /><path
       id="path13635-5-1-3-3"
       style="display:inline;fill:#ffffff;fill-opacity:1;stroke-width:0.0790129"
       d="m 104.87852,15.551064 -0.65138,-3.37e-4 c 0.006,-1.493915 0.31583,-4.83709 0.65138,-4.83709 z m 0,0 0.65138,-3.37e-4 c -0.006,-1.493915 -0.31583,-4.83709 -0.65138,-4.83709 z"
       transform="matrix(1,0,0,0.71841696,-74.637551,43.402705)"
       class="UnoptimicedTransforms" /><path
       style="fill:#d6a648;fill-opacity:1;stroke:none;stroke-width:0.564999;stroke-linecap:round;stroke-linejoin:round;stroke-dasharray:none;stroke-dashoffset:0;stroke-opacity:1;paint-order:normal"
       d="M 103.95024,30.085967 V 25.24127 c -0.15201,0 -0.96769,5.352609 -0.96769,5.352609 0,0 -2.95579,-3.533943 -3.059374,-3.451304 -0.103582,0.08264 2.017774,5.671812 2.017774,5.671812 0,0 -2.547222,-2.047953 -2.629688,-1.967709 -0.08247,0.08024 1.868678,3.593078 2.116728,3.593078 h 1.08846 c 0,-1.688292 0.77193,-4.353789 1.43379,-4.353789 z m 0,0 V 25.24127 c 0.15201,0 0.96769,5.352609 0.96769,5.352609 0,0 2.95579,-3.533943 3.05937,-3.451304 0.10359,0.08264 -2.01777,5.671812 -2.01777,5.671812 0,0 2.54722,-2.047953 2.62969,-1.967709 0.0825,0.08024 -1.86868,3.593078 -2.11673,3.593078 h -1.08846 c 0,-1.688292 -0.77193,-4.353789 -1.43379,-4.353789 z"
       id="path10780-5"
       class="UnoptimicedTransforms"
       transform="translate(-73.709271,20.430573)" /></g></svg>
