<?xml version="1.0" encoding="UTF-8" standalone="no"?>
<!-- Created with Inkscape (http://www.inkscape.org/) -->

<svg
   width="8.5606146mm"
   height="15.727888mm"
   viewBox="0 0 8.5606146 15.727888"
   version="1.1"
   id="svg5"
   xml:space="preserve"
   xmlns="http://www.w3.org/2000/svg"
   xmlns:svg="http://www.w3.org/2000/svg"><defs
     id="defs2"><linearGradient
       id="linearGradient13302"><stop
         style="stop-color:#ff0000;stop-opacity:1;"
         offset="0"
         id="stop13300" /></linearGradient></defs><g
     id="layer4-3"
     transform="translate(-99.669933,-24.480769)"><path
       id="rect9814-6"
       style="opacity:1;fill:#ffffff;fill-opacity:1;stroke:none;stroke-width:0.277268;stroke-linecap:round;stroke-linejoin:round;stroke-dasharray:none;stroke-dashoffset:0;stroke-opacity:1;paint-order:normal"
       d="m 103.10017,34.439758 c 0,0.455937 -0.30024,0.683702 -0.30024,1.000456 V 40 h -0.34985 v 0.439909 h 1.50016 V 34.44 Z m 1.70014,0 c 0,0.455937 0.30024,0.683702 0.30024,1.000456 V 40 h 0.34985 v 0.439909 h -1.50016 V 34.44 Z"
       class="UnoptimicedTransforms"
       transform="translate(1.49e-6,-0.23125203)" /><path
       id="path13635-5-0"
       style="display:inline;fill:#ffffff;fill-opacity:1;stroke-width:0.0790129"
       d="m 104.87852,15.551064 -0.85007,-2.73e-4 c 0.003,-0.810179 0.33346,-2.594822 0.85007,-2.594822 z m 0,0 0.85007,-2.73e-4 c -0.003,-0.810179 -0.33346,-2.594822 -0.85007,-2.594822 z"
       transform="matrix(1,0,0,0.71841695,-0.92827851,22.651901)"
       class="UnoptimicedTransforms" /><path
       style="display:inline;fill:#898966;fill-opacity:1;fill-rule:nonzero;stroke-width:0.264999;stroke-dasharray:none"
       d="m 103.0404,5.3617976 c 0.58586,0 -2.94894,7.8548824 -3.293526,7.8548824 -0.344584,0 1.521616,-5.1427095 1.521616,-5.1427095 0,0 -1.432653,0.8987744 -1.653583,0.8987744 -0.22093,0 2.839633,-3.6109473 3.425493,-3.6109473 z m 1.68686,0 c -0.58586,0 2.94894,7.8548824 3.29353,7.8548824 0.34458,0 -1.52162,-5.1427095 -1.52162,-5.1427095 0,0 1.43265,0.8987744 1.65358,0.8987744 0.22093,0 -2.83963,-3.6109473 -3.42549,-3.6109473 z"
       id="path14033-2"
       class="UnoptimicedTransforms"
       transform="translate(0.06641149,19.118971)" /></g></svg>
