<?xml version="1.0" encoding="UTF-8" standalone="no"?>
<!-- Created with Inkscape (http://www.inkscape.org/) -->

<svg
   width="8.2871981mm"
   height="14.021921mm"
   viewBox="0 0 8.2871981 14.021921"
   version="1.1"
   id="svg5"
   xml:space="preserve"
   xmlns="http://www.w3.org/2000/svg"
   xmlns:svg="http://www.w3.org/2000/svg"><defs
     id="defs2"><linearGradient
       id="linearGradient13302"><stop
         style="stop-color:#ff0000;stop-opacity:1;"
         offset="0"
         id="stop13300" /></linearGradient></defs><g
     id="layer2-6-6"
     style="display:inline;fill:#ffffff;fill-opacity:1"
     transform="translate(-99.741936,-5.3892493)"><path
       id="rect13459-18-7"
       style="display:inline;opacity:1;fill:#ffffff;fill-opacity:1;fill-rule:nonzero;stroke-width:0.286427;stroke-dasharray:none"
       d="m 103.89049,12.815707 c -0.51186,0.02488 -0.97732,1.620539 -0.9803,2.342493 h 0.99219 0.99218 c -0.003,-0.727639 -0.47557,-2.342493 -0.99218,-2.342493 -0.004,0 -0.008,-1.96e-4 -0.0119,0 z m -0.9803,2.74867 v 3.44165 h -0.29972 v 0.405143 h 2.59984 v -0.405143 h -0.29973 v -3.44165 z" /><path
       id="rect5462-3"
       style="display:inline;fill:#781907;fill-opacity:1;stroke-width:1.00732;stroke-linecap:round;stroke-linejoin:round"
       d="m 99.775437,13.750455 c 0.08288,0.08796 3.240223,-2.576463 4.527313,-3.872803 1.28709,-1.296339 3.84669,-4.3222571 3.68755,-4.4813999 -0.15914,-0.1591428 -3.14857,2.4338697 -4.43063,3.7330162 -1.28205,1.2991477 -3.867061,4.5332237 -3.784233,4.6211867 z" /><path
       id="path8080"
       style="display:inline;fill:#781907;fill-opacity:1;stroke-width:1.00732;stroke-linecap:round;stroke-linejoin:round"
       d="m 99.744121,5.4224025 c -0.08872,0.082062 2.546359,3.2639307 3.830739,4.5629639 1.28437,1.2990336 4.28646,3.8865296 4.44707,3.7288696 0.16061,-0.15766 -2.40462,-3.170962 -3.69185,-4.4649911 -1.28722,-1.2940194 -4.497234,-3.9088527 -4.585959,-3.8268424 z" /><path
       style="display:inline;opacity:1;fill:#781907;fill-opacity:1;stroke:none;stroke-width:0.564999;stroke-linecap:round;stroke-linejoin:round;stroke-dasharray:none;stroke-dashoffset:0;stroke-opacity:1;paint-order:normal"
       d="m 101.59003,12.331029 c 0.25699,-0.220179 -0.0431,0.520265 -0.0431,0.820562 0,0.535769 0.53606,0.53555 0.53606,0 0,-0.331853 -0.41733,-0.885031 0.16284,-1.38543 -0.21634,-0.07605 -0.64433,0.266673 -0.65598,0.564868 z"
       id="path8292" /><path
       style="opacity:1;fill:#781907;fill-opacity:1;stroke:none;stroke-width:0.564999;stroke-linecap:round;stroke-linejoin:round;stroke-dasharray:none;stroke-dashoffset:0;stroke-opacity:1;paint-order:normal"
       d="m 106.85435,7.0104625 c 0.42789,-0.5306205 0.005,1.2175232 0.005,1.8789045 -0.008,0.6600914 0.66133,0.6696213 0.66133,0.00824 0,-0.6613813 -0.46703,-2.1380327 -0.002,-2.723442 -0.1579,-0.081874 -0.72873,0.5849199 -0.66433,0.8362975 z"
       id="path8182" /></g></svg>
