<?xml version="1.0" encoding="UTF-8" standalone="no"?>
<!-- Created with Inkscape (http://www.inkscape.org/) -->

<svg
   width="7.0161138mm"
   height="15.138421mm"
   viewBox="0 0 7.0161138 15.138421"
   version="1.1"
   id="svg5"
   xml:space="preserve"
   xmlns="http://www.w3.org/2000/svg"
   xmlns:svg="http://www.w3.org/2000/svg"><defs
     id="defs2"><linearGradient
       id="linearGradient13302"><stop
         style="stop-color:#ff0000;stop-opacity:1;"
         offset="0"
         id="stop13300" /></linearGradient></defs><g
     id="layer4-7-2"
     transform="translate(-100.44218,-32.190941)"><path
       id="rect9814-9-2"
       style="opacity:1;fill:#ffffff;fill-opacity:1;stroke:none;stroke-width:0.277268;stroke-linecap:round;stroke-linejoin:round;stroke-dasharray:none;stroke-dashoffset:0;stroke-opacity:1;paint-order:normal"
       d="m 103.10017,34.439758 c 0,0.455937 -0.30024,0.683702 -0.30024,1.000456 V 40 h -0.34985 v 0.439909 h 1.50016 V 34.44 Z m 1.70014,0 c 0,0.455937 0.30024,0.683702 0.30024,1.000456 V 40 h 0.34985 v 0.439909 h -1.50016 V 34.44 Z"
       class="UnoptimicedTransforms" /><path
       id="path13635-5-20-8"
       style="display:inline;fill:#ffffff;fill-opacity:1;stroke-width:0.0790129"
       d="m 104.87852,15.551064 -0.85007,-2.73e-4 c 0.003,-0.810179 0.33346,-2.594822 0.85007,-2.594822 z m 0,0 0.85007,-2.73e-4 c -0.003,-0.810179 -0.33346,-2.594822 -0.85007,-2.594822 z"
       transform="matrix(1,0,0,0.71841695,-0.92828,22.883153)"
       class="UnoptimicedTransforms" /><path
       id="path14434-7"
       style="display:inline;fill:#417e24;fill-opacity:1;fill-rule:nonzero;stroke-width:0.264999;stroke-dasharray:none"
       d="m 102.29475,38.066977 c -0.93435,0 -1.61751,1.370223 -1.75442,1.940966 -0.32745,1.365051 0.29973,2.493748 -0.0568,2.575554 l 0.001,0.358118 c 0.77799,0 0.39793,1.034562 0.15813,1.034562 l 0.0207,0.381372 c 0,0 0.0582,0.730705 1.66037,0.730705 l -0.006,0.836124 c 0.17078,0.223265 0.38038,0.373288 0.59377,0.47439 8.9e-4,3.46e-4 0.002,6.86e-4 0.003,0.001 0.0169,0.008 0.0342,0.01588 0.0512,0.02325 0.13353,0.07014 -0.003,0.217921 -0.003,0.368453 0,0 0.003,0.154512 0.13022,0.154512 0.12688,0 0.13694,-0.154512 0.13694,-0.154512 0,-0.09374 -0.0719,-0.287415 0.0847,-0.253215 0.27102,0.06393 0.50996,0.06821 0.63562,0.06821 v -1.523421 c -0.28099,0.0082 -0.39339,-0.170879 -0.49609,-0.173633 0,-0.297656 0.3806,-1.043081 0.49609,-1.038696 V 41.19491 c 0,0 -1.53084,0.0066 -1.63401,-0.172082 -0.51478,-0.891623 -0.0109,-1.085566 -0.0109,-1.329118 z m 1.65519,5.80378 c 0.11549,-0.0044 0.49661,0.74104 0.49661,1.038696 -0.1027,0.0028 -0.2151,0.181833 -0.49609,0.173633 v 1.523421 c 0.10361,0 0.28449,-0.003 0.49661,-0.03979 3.4e-4,-5.9e-5 6.9e-4,6e-5 0.001,0 0.37152,-0.09955 0.0625,0.26738 0.0625,0.550709 0,0 0.0256,0.211936 0.23866,0.211936 0.2131,0 0.23866,-0.211936 0.23866,-0.211936 0,-0.267892 -0.31924,-0.539076 -0.0422,-0.699024 7e-4,-3.11e-4 0.001,-7.22e-4 0.002,-10e-4 0.22751,-0.100978 0.45333,-0.25535 0.63511,-0.492993 l -0.006,-0.836124 c 1.60217,0 1.66036,-0.730705 1.66036,-0.730705 l 0.0207,-0.381372 c -0.2398,0 -0.61986,-1.034562 0.15813,-1.034562 l 0.001,-0.358118 c -0.35659,-0.08181 0.27057,-1.210503 -0.0568,-2.575554 -0.13691,-0.570743 -0.82008,-1.940966 -1.75441,-1.940966 l -0.01,1.626774 c 0,0.243552 0.50346,0.437495 -0.0114,1.329118 -0.10317,0.178718 -1.63401,0.172082 -1.63401,0.172082 z m -2.36109,-1.265039 c 0.72804,0 1.71875,0.250881 1.71875,0.519865 0,0.292428 -0.0247,0.917773 -0.56689,0.917773 -1.37399,0 -1.74995,-1.437638 -1.15186,-1.437638 z m 4.72271,0 c 0.59809,0 0.22214,1.437638 -1.15187,1.437638 -0.54224,0 -0.56689,-0.625345 -0.56689,-0.917773 0,-0.268984 0.99072,-0.519865 1.71876,-0.519865 z" /></g></svg>
