<?xml version="1.0" encoding="UTF-8" standalone="no"?>
<!-- Created with Inkscape (http://www.inkscape.org/) -->

<svg
   width="12.700012mm"
   height="12.700001mm"
   viewBox="0 0 12.700012 12.700001"
   version="1.1"
   id="svg5"
   xml:space="preserve"
   xmlns="http://www.w3.org/2000/svg"
   xmlns:svg="http://www.w3.org/2000/svg"><defs
     id="defs2"><linearGradient
       id="linearGradient13302"><stop
         style="stop-color:#ff0000;stop-opacity:1;"
         offset="0"
         id="stop13300" /></linearGradient></defs><g
     id="layer10"
     transform="matrix(0.80886025,0,0,0.80886025,-43.694243,-35.681304)"><path
       id="rect9814-48-6-8"
       style="opacity:1;fill:#ffffff;fill-opacity:1;stroke:none;stroke-width:0.277268;stroke-linecap:round;stroke-linejoin:round;stroke-dasharray:none;stroke-dashoffset:0;stroke-opacity:1;paint-order:normal"
       d="m 103.29886,33.995559 c 0,0.455937 -0.30024,0.648441 -0.30024,0.965195 V 40 h -0.34985 v 0.439909 h 1.30147 v -6.444108 z m 1.30276,0 c 0,0.455937 0.30024,0.648441 0.30024,0.965195 V 40 h 0.34985 v 0.439909 h -1.30147 v -6.444108 z"
       class="UnoptimicedTransforms"
       transform="translate(-42.080159,14.054542)" /><path
       id="path13635-5-1-3-5"
       style="display:inline;fill:#ffffff;fill-opacity:1;stroke-width:0.0790129"
       d="m 104.87852,15.551064 -0.65138,-3.37e-4 c 0.006,-1.493915 0.31583,-4.83709 0.65138,-4.83709 z m 0,0 0.65138,-3.37e-4 c -0.006,-1.493915 -0.31583,-4.83709 -0.65138,-4.83709 z"
       transform="matrix(1,0,0,0.71841696,-43.008439,36.416206)"
       class="UnoptimicedTransforms" /><path
       id="path14434-3-6"
       style="display:inline;fill:#417e24;fill-opacity:1;fill-rule:nonzero;stroke-width:0.236841;stroke-dasharray:none"
       d="m 60.39021,52.462704 c -0.83507,0 -1.44564,0.943938 -1.568,1.454036 -0.29266,1.220007 0.26788,2.228774 -0.0508,2.301888 l 8.9e-4,0.320066 c 0.69532,0 0.35565,0.924634 0.14133,0.924634 l 0.0185,0.340849 c 0,0 0.052,0.653064 1.48394,0.653064 l -0.005,0.747281 c 0.15264,0.199542 0.33996,0.333624 0.53068,0.423984 8e-4,3.09e-4 0.002,6.13e-4 0.003,8.93e-4 0.0151,0.0071 0.0306,0.01419 0.0458,0.02078 l 0.31179,0.102993 c 0.24223,0.05714 0.45578,0.06096 0.56809,0.06096 v -1.36155 c -0.25114,0.0073 -0.35159,-0.152722 -0.44338,-0.155183 0,-0.266029 0.34016,-0.932248 0.44338,-0.928329 v -2.391488 c 0,0 -1.36818,0.0059 -1.46039,-0.153797 -0.46008,-0.796883 -0.01,-0.970219 -0.01,-1.187892 z m 1.47932,4.906405 c 0.10322,-0.0039 0.44384,0.662301 0.44384,0.928329 -0.0918,0.0025 -0.19224,0.162513 -0.44337,0.155184 v 1.361549 c 0.0926,0 0.25426,-0.0027 0.44384,-0.03556 3e-4,-5.3e-5 0.0909,-0.02219 8.9e-4,0 -0.09,0.02219 0.44475,-0.132556 0.44475,-0.132556 6.2e-4,-2.77e-4 -0.10033,0.04436 0.002,-8.93e-4 0.10212,-0.04525 0.40517,-0.228218 0.56763,-0.44061 l -0.005,-0.747281 c 1.43193,0 1.48394,-0.653064 1.48394,-0.653064 l 0.0185,-0.340849 c -0.21432,0 -0.554,-0.924635 0.14132,-0.924635 l 9e-4,-0.320066 c -0.3187,-0.07312 0.24182,-1.08188 -0.0508,-2.301887 -0.12236,-0.510099 -0.73294,-1.454036 -1.56799,-1.454036 l -0.009,1.173228 c 0,0.217674 0.44997,0.391009 -0.0102,1.187892 -0.0922,0.159729 -1.46038,0.153798 -1.46038,0.153798 z m -2.11021,-1.130621 c 0.65068,0 1.53612,0.224223 1.53612,0.464626 0,0.261356 -0.0221,0.820255 -0.50665,0.820255 -1.228,0 -1.56401,-1.284881 -1.02947,-1.284881 z m 4.2209,0 c 0.53454,0 0.19853,1.284881 -1.02948,1.284881 -0.48463,0 -0.50666,-0.558899 -0.50666,-0.820255 0,-0.240403 0.88545,-0.464626 1.53614,-0.464626 z" /></g></svg>
