<?xml version="1.0" encoding="UTF-8" standalone="no"?>
<!-- Created with Inkscape (http://www.inkscape.org/) -->

<svg
   width="8.7521696mm"
   height="15.792726mm"
   viewBox="0 0 8.7521696 15.792726"
   version="1.1"
   id="svg5"
   xml:space="preserve"
   xmlns="http://www.w3.org/2000/svg"
   xmlns:svg="http://www.w3.org/2000/svg"><defs
     id="defs2"><linearGradient
       id="linearGradient13302"><stop
         style="stop-color:#ff0000;stop-opacity:1;"
         offset="0"
         id="stop13300" /></linearGradient></defs><g
     id="layer4-7"
     transform="translate(-99.574157,-32.190941)"><path
       id="rect9814-9"
       style="opacity:1;fill:#ffffff;fill-opacity:1;stroke:none;stroke-width:0.277268;stroke-linecap:round;stroke-linejoin:round;stroke-dasharray:none;stroke-dashoffset:0;stroke-opacity:1;paint-order:normal"
       d="m 103.10017,34.439758 c 0,0.455937 -0.30024,0.683702 -0.30024,1.000456 V 40 h -0.34985 v 0.439909 h 1.50016 V 34.44 Z m 1.70014,0 c 0,0.455937 0.30024,0.683702 0.30024,1.000456 V 40 h 0.34985 v 0.439909 h -1.50016 V 34.44 Z"
       class="UnoptimicedTransforms" /><path
       id="path13635-5-20"
       style="display:inline;fill:#ffffff;fill-opacity:1;stroke-width:0.0790129"
       d="m 104.87852,15.551064 -0.85007,-2.73e-4 c 0.003,-0.810179 0.33346,-2.594822 0.85007,-2.594822 z m 0,0 0.85007,-2.73e-4 c -0.003,-0.810179 -0.33346,-2.594822 -0.85007,-2.594822 z"
       transform="matrix(1,0,0,0.71841695,-0.92828,22.883153)"
       class="UnoptimicedTransforms" /><path
       id="path14049-3"
       style="display:inline;fill:#838383;fill-opacity:1;fill-rule:nonzero;stroke-width:0.266614;stroke-dasharray:none"
       d="m 101.98844,17.745893 c 0.0872,0 -2.506135,2.950707 -2.438607,2.950707 0.06753,0 2.410697,-1.394804 2.410697,-1.533154 0,-0.138351 -0.0594,-1.417553 0.0279,-1.417553 z m 0.002,1.923373 c -0.19248,0 -2.215185,2.055713 -2.098065,2.055713 0.117115,0 1.572515,-0.664837 1.572515,-0.664837 l 0.78703,5.142421 c 0,0 -0.069,-6.533297 -0.26148,-6.533297 z m 1.60113,0.399153 c -0.029,0 0.2648,6.975314 0.33305,6.975314 v -6.975314 z m 2.26923,-2.322526 c -0.0872,0 2.50614,2.950707 2.43861,2.950707 -0.0675,0 -2.4107,-1.394804 -2.4107,-1.533154 0,-0.138351 0.0594,-1.417553 -0.0279,-1.417553 z m -0.002,1.923373 c 0.19248,0 2.21519,2.055713 2.09807,2.055713 -0.11712,0 -1.57252,-0.664837 -1.57252,-0.664837 l -0.78703,5.142421 c 0,0 0.069,-6.533297 0.26148,-6.533297 z m -1.60113,0.399153 c 0.029,0 -0.2648,6.975314 -0.33305,6.975314 v -6.975314 z"
       class="UnoptimicedTransforms"
       transform="matrix(1,0,0,0.98792183,0.02562,21.266572)" /></g></svg>
