<?xml version="1.0" encoding="UTF-8" standalone="no"?>
<!-- Created with Inkscape (http://www.inkscape.org/) -->

<svg
   width="9.3730698mm"
   height="17.239035mm"
   viewBox="0 0 9.3730698 17.239035"
   version="1.1"
   id="svg5"
   xml:space="preserve"
   xmlns="http://www.w3.org/2000/svg"
   xmlns:svg="http://www.w3.org/2000/svg"><defs
     id="defs2"><linearGradient
       id="linearGradient13302"><stop
         style="stop-color:#ff0000;stop-opacity:1;"
         offset="0"
         id="stop13300" /></linearGradient></defs><g
     id="layer12"
     transform="translate(-36.089787,-44.25673)"><path
       id="rect9814-48-6-83"
       style="opacity:1;fill:#ffffff;fill-opacity:1;stroke:none;stroke-width:0.277268;stroke-linecap:round;stroke-linejoin:round;stroke-dasharray:none;stroke-dashoffset:0;stroke-opacity:1;paint-order:normal"
       d="m 103.29886,33.995559 c 0,0.455937 -0.30024,0.648441 -0.30024,0.965195 V 40 h -0.34985 v 0.439909 h 1.30147 v -6.444108 z m 1.30276,0 c 0,0.455937 0.30024,0.648441 0.30024,0.965195 V 40 h 0.34985 v 0.439909 h -1.30147 v -6.444108 z"
       class="UnoptimicedTransforms"
       transform="translate(-63.185307,21.055855)" /><path
       id="path13635-5-1-3-1"
       style="display:inline;fill:#ffffff;fill-opacity:1;stroke-width:0.0790129"
       d="m 104.87852,15.551064 -0.65138,-3.37e-4 c 0.006,-1.493915 0.31583,-4.83709 0.65138,-4.83709 z m 0,0 0.65138,-3.37e-4 c -0.006,-1.493915 -0.31583,-4.83709 -0.65138,-4.83709 z"
       transform="matrix(1,0,0,0.71841696,-64.113587,43.417519)"
       class="UnoptimicedTransforms" /><path
       id="path12206"
       style="opacity:1;fill:#d6a648;fill-opacity:1;stroke:none;stroke-width:0.564999;stroke-linecap:round;stroke-linejoin:round;stroke-dasharray:none;stroke-dashoffset:0;stroke-opacity:1;paint-order:normal"
       d="m 40.776322,44.25673 c -0.271296,0 -3.066506,8.998417 -2.70216,8.998417 0.364346,0 2.582184,-5.820833 2.70216,-5.820833 z m -2.172477,2.879928 c -0.297879,0.01139 -2.514058,1.379818 -2.514058,1.619022 0,0.239204 1.455208,-0.560689 1.455208,-0.560689 0,0 -1.355989,1.810159 -1.355989,2.14974 0,0.339581 2.712718,-3.219464 2.414839,-3.208073 z m 2.172477,-2.879928 c 0.271296,0 3.066506,8.998417 2.70216,8.998417 -0.364346,0 -2.582184,-5.820833 -2.70216,-5.820833 z m 2.172477,2.879928 c 0.297879,0.01139 2.514058,1.379818 2.514058,1.619022 0,0.239204 -1.455208,-0.560689 -1.455208,-0.560689 0,0 1.355989,1.810159 1.355989,2.14974 0,0.339581 -2.712718,-3.219464 -2.414839,-3.208073 z"
       class="UnoptimicedTransforms" /></g></svg>
