<?xml version="1.0" encoding="UTF-8" standalone="no"?>
<!-- Created with Inkscape (http://www.inkscape.org/) -->

<svg
   width="8.1577578mm"
   height="13.527071mm"
   viewBox="0 0 8.1577578 13.527071"
   version="1.1"
   id="svg5"
   xml:space="preserve"
   xmlns="http://www.w3.org/2000/svg"
   xmlns:svg="http://www.w3.org/2000/svg"><defs
     id="defs2"><linearGradient
       id="linearGradient13302"><stop
         style="stop-color:#ff0000;stop-opacity:1;"
         offset="0"
         id="stop13300" /></linearGradient></defs><g
     id="layer2-7"
     style="display:inline;fill:#ffffff;fill-opacity:1"
     transform="translate(-99.821402,-5.8759231)"><path
       id="rect13459-5"
       style="display:inline;opacity:1;fill:#ffffff;fill-opacity:1;fill-rule:nonzero;stroke-width:0.286427;stroke-dasharray:none"
       d="m 103.87198,12.807531 c -0.51187,0.02488 -0.97733,1.620539 -0.9803,2.342493 h 0.99218 0.99219 c -0.003,-0.727639 -0.47558,-2.342493 -0.99219,-2.342493 -0.004,0 -0.008,-1.96e-4 -0.0119,0 z m -0.9803,2.74867 v 3.44165 h -0.30024 v 0.405143 h 2.60035 v -0.405143 h -0.30024 v -3.44165 z" /><path
       style="display:inline;opacity:1;fill:#b65a27;fill-opacity:1;fill-rule:nonzero;stroke-width:0.264999;stroke-dasharray:none"
       d="m 105.49873,15.556407 c 0.64685,-1.120383 0.98318,-2.654998 0.4912,-3.50714 0,0.462956 -0.72498,0.865138 -1.11391,0.969351 0.42996,-1.546127 0,-3.2227021 -0.99219,-3.6939912 0.32788,2.7780522 -3.06913,2.6005812 -1.54807,6.0662222 -2.399736,-0.57562 -3.395514,-5.204628 -1.58278,-6.2512077 -0.47116,1.1015527 -0.2734,1.8818307 0.76995,2.0913867 0.91068,-1.2769248 0.49295,-1.819134 0.69811,-2.9387735 0.20516,-1.1196395 1.13324,-2.4163314 2.71291,-2.4163314 -1.44114,1.4411384 1.28967,1.8031826 1.28967,4.6065679 0.36383,-0.6614906 0.91212,-1.3645376 1.75554,-1.5216017 -0.60412,1.1370707 -0.53691,1.9567087 -0.15238,3.3917837 0.38453,1.435075 -1.25636,2.8775 -2.32805,3.203734 z"
       id="path13948" /></g></svg>
