<?xml version="1.0" encoding="UTF-8" standalone="no"?>
<!-- Created with Inkscape (http://www.inkscape.org/) -->

<svg
   width="8.5606146mm"
   height="14.041198mm"
   viewBox="0 0 8.5606146 14.041198"
   version="1.1"
   id="svg5"
   xml:space="preserve"
   xmlns="http://www.w3.org/2000/svg"
   xmlns:svg="http://www.w3.org/2000/svg"><defs
     id="defs2"><linearGradient
       id="linearGradient13302"><stop
         style="stop-color:#ff0000;stop-opacity:1;"
         offset="0"
         id="stop13300" /></linearGradient></defs><g
     id="layer2-9"
     style="display:inline;fill:#ff0000;fill-opacity:1"
     transform="translate(-99.603521,-5.3617976)"><path
       id="rect13459-1"
       style="display:inline;opacity:1;fill:#ffffff;fill-opacity:1;fill-rule:nonzero;stroke-width:0.286427;stroke-dasharray:none"
       d="m 103.87169,12.807532 c -0.51187,0.02488 -0.97733,1.620539 -0.9803,2.342492 h 0.9927 0.99219 c -0.003,-0.727638 -0.47558,-2.342492 -0.99219,-2.342492 -0.004,0 -0.008,-1.96e-4 -0.0124,0 z m -0.9803,2.748669 v 3.441651 h -0.29973 v 0.405143 h 2.59984 v -0.405143 h -0.29972 v -3.441651 z" /><path
       style="opacity:1;fill:#898966;fill-opacity:1;fill-rule:nonzero;stroke-width:0.264999;stroke-dasharray:none"
       d="m 103.0404,5.3617976 c 0.58586,0 -2.94894,7.8548824 -3.293526,7.8548824 -0.344584,0 1.521616,-5.1427095 1.521616,-5.1427095 0,0 -1.432653,0.8987744 -1.653583,0.8987744 -0.22093,0 2.839633,-3.6109473 3.425493,-3.6109473 z m 1.68686,0 c -0.58586,0 2.94894,7.8548824 3.29353,7.8548824 0.34458,0 -1.52162,-5.1427095 -1.52162,-5.1427095 0,0 1.43265,0.8987744 1.65358,0.8987744 0.22093,0 -2.83963,-3.6109473 -3.42549,-3.6109473 z"
       id="path14033"
       class="UnoptimicedTransforms" /></g></svg>
