<?xml version="1.0" encoding="UTF-8" standalone="no"?>
<!-- Created with Inkscape (http://www.inkscape.org/) -->

<svg
   width="8.2872028mm"
   height="16.212208mm"
   viewBox="0 0 8.2872028 16.212208"
   version="1.1"
   id="svg5"
   xml:space="preserve"
   xmlns="http://www.w3.org/2000/svg"
   xmlns:svg="http://www.w3.org/2000/svg"><defs
     id="defs2"><linearGradient
       id="linearGradient13302"><stop
         style="stop-color:#ff0000;stop-opacity:1;"
         offset="0"
         id="stop13300" /></linearGradient></defs><g
     id="layer4-78"
     transform="translate(-99.806641,-24.227701)"><path
       id="rect9814-4"
       style="opacity:1;fill:#ffffff;fill-opacity:1;stroke:none;stroke-width:0.277268;stroke-linecap:round;stroke-linejoin:round;stroke-dasharray:none;stroke-dashoffset:0;stroke-opacity:1;paint-order:normal"
       d="m 103.10017,34.439758 c 0,0.455937 -0.30024,0.683702 -0.30024,1.000456 V 40 h -0.34985 v 0.439909 h 1.50016 V 34.44 Z m 1.70014,0 c 0,0.455937 0.30024,0.683702 0.30024,1.000456 V 40 h 0.34985 v 0.439909 h -1.50016 V 34.44 Z"
       class="UnoptimicedTransforms" /><path
       id="path13635-5-5"
       style="display:inline;fill:#ffffff;fill-opacity:1;stroke-width:0.0790129"
       d="m 104.87852,15.551064 -0.85007,-2.73e-4 c 0.003,-0.810179 0.33346,-2.594822 0.85007,-2.594822 z m 0,0 0.85007,-2.73e-4 c -0.003,-0.810179 -0.33346,-2.594822 -0.85007,-2.594822 z"
       transform="matrix(1,0,0,0.71841695,-0.92828,22.883153)"
       class="UnoptimicedTransforms" /><path
       id="rect5462-3-0"
       style="display:inline;fill:#781907;fill-opacity:1;stroke-width:1.00732;stroke-linecap:round;stroke-linejoin:round"
       d="m 99.840142,32.588907 c 0.08288,0.08796 3.240228,-2.576463 4.527318,-3.872803 1.28709,-1.296339 3.84669,-4.322257 3.68755,-4.4814 -0.15914,-0.159143 -3.14857,2.433869 -4.43063,3.733016 -1.28205,1.299148 -3.867066,4.533224 -3.784238,4.621187 z" /><path
       id="path8080-3"
       style="display:inline;fill:#781907;fill-opacity:1;stroke-width:1.00732;stroke-linecap:round;stroke-linejoin:round"
       d="m 99.808826,24.260854 c -0.08872,0.08206 2.546364,3.263931 3.830744,4.562964 1.28437,1.299034 4.28646,3.88653 4.44707,3.72887 0.16061,-0.15766 -2.40462,-3.170962 -3.69185,-4.464991 -1.28722,-1.29402 -4.497239,-3.908853 -4.585964,-3.826843 z" /><path
       style="display:inline;fill:#781907;fill-opacity:1;stroke:none;stroke-width:0.564999;stroke-linecap:round;stroke-linejoin:round;stroke-dasharray:none;stroke-dashoffset:0;stroke-opacity:1;paint-order:normal"
       d="m 101.65474,31.169481 c 0.25699,-0.220179 -0.0431,0.520265 -0.0431,0.820562 0,0.535769 0.53606,0.53555 0.53606,0 0,-0.331853 -0.41733,-0.885031 0.16284,-1.38543 -0.21634,-0.07605 -0.64433,0.266673 -0.65598,0.564868 z"
       id="path8292-6" /><path
       style="display:inline;fill:#781907;fill-opacity:1;stroke:none;stroke-width:0.564999;stroke-linecap:round;stroke-linejoin:round;stroke-dasharray:none;stroke-dashoffset:0;stroke-opacity:1;paint-order:normal"
       d="m 106.91906,25.848914 c 0.42789,-0.53062 0.005,1.217523 0.005,1.878905 -0.008,0.660091 0.66133,0.669621 0.66133,0.0082 0,-0.661382 -0.46703,-2.138033 -0.002,-2.723442 -0.1579,-0.08187 -0.72873,0.58492 -0.66433,0.836297 z"
       id="path8182-1" /></g></svg>
