<?xml version="1.0" encoding="UTF-8" standalone="no"?>
<!-- Generator: Adobe Illustrator 23.0.1, SVG Export Plug-In . SVG Version: 6.00 Build 0)  -->

<svg
   version="1.1"
   x="0px"
   y="0px"
   viewBox="0 0 72 72"
   xml:space="preserve"
   id="svg969"
   width="72"
   height="72"
   xmlns="http://www.w3.org/2000/svg"
   xmlns:svg="http://www.w3.org/2000/svg"><defs
   id="defs973" />
<style
   type="text/css"
   id="style2">
	.st0{fill:#FFFFFF;}
	.st1{fill:#B65A27;}
	.st2{fill:#898966;}
	.st3{fill:#417E24;}
	.st4{fill:#4D545E;}
	.st5{fill:#781907;}
	.st6{fill:#838383;}
	.st7{fill:#D6A648;}
	.st8{fill:#AE4025;}
	.st9{fill:#727272;}
	.st10{fill:#A15841;}
	.st11{fill:#7F8036;}
	.st12{fill:#DF6F5A;}
	.st13{enable-background:new    ;}
	.st14{fill:#B14D39;}
	.st15{fill:none;stroke:#FFFFFF;stroke-width:2.9294;stroke-miterlimit:10;}
	.st16{fill:#515A65;enable-background:new    ;}
	.st17{fill:#617F92;}
	.st18{fill:#555F47;}
	.st19{fill:#686868;}
	.st20{fill:#635956;}
	.st21{fill:#636363;}
</style>
<g
   id="layer61"
   transform="translate(1837.2242,14.770292)"><g
     id="g660"
     transform="matrix(1.2267163,0,0,1.2267163,-2064.0482,-586.55101)">
						<rect
   x="213.39999"
   y="479.29999"
   class="st0"
   width="1.8"
   height="19.9"
   id="rect658" />
					</g><polygon
     class="st0"
     points="215.2,477.6 213.3,477.6 212.1,475.5 214.2,470.2 216.4,475.5 "
     id="polygon662"
     transform="matrix(1.2267163,0,0,1.2267163,-2064.0482,-586.55101)" /><polygon
     class="st0"
     points="218.1,486.6 216.9,486.6 216.9,499.2 220.9,497.5 "
     id="polygon664"
     transform="matrix(1.2267163,0,0,1.2267163,-2064.0482,-586.55101)" /><polygon
     class="st0"
     points="210.4,486.6 211.6,486.6 211.6,499.2 207.6,497.5 "
     id="polygon666"
     transform="matrix(1.2267163,0,0,1.2267163,-2064.0482,-586.55101)" /><g
     id="g670"
     transform="matrix(1.2267163,0,0,1.2267163,-2064.0482,-586.55101)">
						<polygon
   class="st19"
   points="214.7,524.8 213.8,524.8 212.7,505.9 214.2,504 215.7,505.9 "
   id="polygon668" />
					</g><polygon
     class="st19"
     points="220.2,502.7 217.8,514.4 217.8,500.7 221.2,499.3 223.9,505.2 "
     id="polygon672"
     transform="matrix(1.2267163,0,0,1.2267163,-2064.0482,-586.55101)" /><polygon
     class="st19"
     points="208.3,502.7 210.7,514.4 210.7,500.7 207.3,499.3 204.6,505.2 "
     id="polygon674"
     transform="matrix(1.2267163,0,0,1.2267163,-2064.0482,-586.55101)" /></g>

</svg>
