<?xml version="1.0" encoding="UTF-8" standalone="no"?>
<!-- Generator: Adobe Illustrator 23.0.1, SVG Export Plug-In . SVG Version: 6.00 Build 0)  -->

<svg
   version="1.1"
   x="0px"
   y="0px"
   viewBox="0 0 72 72"
   xml:space="preserve"
   id="svg969"
   width="72"
   height="72"
   xmlns="http://www.w3.org/2000/svg"
   xmlns:svg="http://www.w3.org/2000/svg"><defs
   id="defs973" />
<style
   type="text/css"
   id="style2">
	.st0{fill:#FFFFFF;}
	.st1{fill:#B65A27;}
	.st2{fill:#898966;}
	.st3{fill:#417E24;}
	.st4{fill:#4D545E;}
	.st5{fill:#781907;}
	.st6{fill:#838383;}
	.st7{fill:#D6A648;}
	.st8{fill:#AE4025;}
	.st9{fill:#727272;}
	.st10{fill:#A15841;}
	.st11{fill:#7F8036;}
	.st12{fill:#DF6F5A;}
	.st13{enable-background:new    ;}
	.st14{fill:#B14D39;}
	.st15{fill:none;stroke:#FFFFFF;stroke-width:2.9294;stroke-miterlimit:10;}
	.st16{fill:#515A65;enable-background:new    ;}
	.st17{fill:#617F92;}
	.st18{fill:#555F47;}
	.st19{fill:#686868;}
	.st20{fill:#635956;}
	.st21{fill:#636363;}
</style>
<g
   id="layer18"
   transform="translate(-1070.3148,-187.89356)"><g
     id="g183"
     transform="matrix(1.2254032,0,0,1.2254032,757.98157,-40.401952)">
					<path
   id="path13948_4_"
   class="st1"
   d="m 289.6,220.6 c 2.1,-3.7 3.3,-8.8 1.6,-11.6 0,1.5 -2.4,2.9 -3.7,3.2 1.4,-5.1 0,-10.7 -3.3,-12.3 1.1,9.2 -10.2,8.6 -5.1,20.1 -8,-1.9 -11.3,-17.3 -5.3,-20.8 -1.6,3.7 -0.9,6.3 2.6,6.9 3,-4.2 1.6,-6 2.3,-9.8 0.7,-3.8 3.8,-8 9,-8 -4.8,4.8 4.3,6 4.3,15.3 1.2,-2.2 3,-4.5 5.8,-5.1 -2,3.8 -1.8,6.5 -0.5,11.3 1.3,4.9 -4.2,9.7 -7.7,10.8 z" />
					<g
   id="layer4-98_2_"
   transform="translate(21.547229,6.2585314)">
						<path
   class="st0"
   d="m 267.1,237.3 v 1.5 h -8.6 v -1.5 h 1.2 v -16.7 c 0,-1.1 1,-1.7 1,-3.2 h 4.3 c 0,1.5 1,2.1 1,3.2 v 16.7 z"
   id="path178" />
						<path
   class="st0"
   d="m 265,215.6 h -4.3 c 0,-3.6 1.1,-11.5 2.2,-11.5 1,0 2.1,7.9 2.1,11.5 z"
   id="path180" />
					</g>
				</g></g>

</svg>
