<?xml version="1.0" encoding="UTF-8" standalone="no"?>
<!-- Generator: Adobe Illustrator 23.0.1, SVG Export Plug-In . SVG Version: 6.00 Build 0)  -->

<svg
   version="1.1"
   x="0px"
   y="0px"
   viewBox="0 0 48.000061 48.000008"
   xml:space="preserve"
   id="svg969"
   width="48.000061"
   height="48.000008"
   xmlns="http://www.w3.org/2000/svg"
   xmlns:svg="http://www.w3.org/2000/svg"><defs
   id="defs973" />
<style
   type="text/css"
   id="style2">
	.st0{fill:#FFFFFF;}
	.st1{fill:#B65A27;}
	.st2{fill:#898966;}
	.st3{fill:#417E24;}
	.st4{fill:#4D545E;}
	.st5{fill:#781907;}
	.st6{fill:#838383;}
	.st7{fill:#D6A648;}
	.st8{fill:#AE4025;}
	.st9{fill:#727272;}
	.st10{fill:#A15841;}
	.st11{fill:#7F8036;}
	.st12{fill:#DF6F5A;}
	.st13{enable-background:new    ;}
	.st14{fill:#B14D39;}
	.st15{fill:none;stroke:#FFFFFF;stroke-width:2.9294;stroke-miterlimit:10;}
	.st16{fill:#515A65;enable-background:new    ;}
	.st17{fill:#617F92;}
	.st18{fill:#555F47;}
	.st19{fill:#686868;}
	.st20{fill:#635956;}
	.st21{fill:#636363;}
</style>


<g
   id="layer37"
   transform="translate(3319.1363,18.000007)"><path
     class="st0"
     d="m -3277.7751,18.749991 -2.4,-1.4 v 0 l -8.1,-6.9 c -0.5,-0.4 -0.8,-0.8999999 -1.1,-1.4999999 v 0 c -0.5,-1.1 -0.4,-2.3 0.1,-3.3 2.1,-4.6 1.3,-10.1999998 -2.5,-13.9999998 -4.9,-4.9000003 -12.8,-4.9000003 -17.7,0 -4.9,4.9 -4.9,12.7999998 0,17.6999998 3.8,3.7999999 9.4,4.5999999 14,2.4999999 1.1,-0.5 2.3,-0.5 3.3,-0.1 v 0 c 0.6,0.2 1.1,0.6 1.5,1.1 l 6.9,8.1 v 0 l 1.4,2.4 c 0.4,0.6 1.1,0.8 1.7,0.6 l 1.8,-0.8 c 0.3,-0.1 0.5,-0.4 0.7,-0.7 l 0.8,-1.8 c 0.5,-0.8 0.2,-1.6 -0.4,-1.9 z m -29.1,-11.9999999 c -3.5,-3.5 -3.5,-9.1999998 0,-12.6999998 3.5,-3.5 9.2,-3.5 12.7,0 3.5,3.5 3.5,9.1999998 0,12.6999998 -3.5,3.4999999 -9.2,3.4999999 -12.7,0 z"
     id="path960" /></g></svg>
