<?xml version="1.0" encoding="UTF-8" standalone="no"?>
<!-- Generator: Adobe Illustrator 23.0.1, SVG Export Plug-In . SVG Version: 6.00 Build 0)  -->

<svg
   version="1.1"
   x="0px"
   y="0px"
   viewBox="0 0 72 72"
   xml:space="preserve"
   id="svg969"
   width="72"
   height="72"
   xmlns="http://www.w3.org/2000/svg"
   xmlns:svg="http://www.w3.org/2000/svg"><defs
   id="defs973" />
<style
   type="text/css"
   id="style2">
	.st0{fill:#FFFFFF;}
	.st1{fill:#B65A27;}
	.st2{fill:#898966;}
	.st3{fill:#417E24;}
	.st4{fill:#4D545E;}
	.st5{fill:#781907;}
	.st6{fill:#838383;}
	.st7{fill:#D6A648;}
	.st8{fill:#AE4025;}
	.st9{fill:#727272;}
	.st10{fill:#A15841;}
	.st11{fill:#7F8036;}
	.st12{fill:#DF6F5A;}
	.st13{enable-background:new    ;}
	.st14{fill:#B14D39;}
	.st15{fill:none;stroke:#FFFFFF;stroke-width:2.9294;stroke-miterlimit:10;}
	.st16{fill:#515A65;enable-background:new    ;}
	.st17{fill:#617F92;}
	.st18{fill:#555F47;}
	.st19{fill:#686868;}
	.st20{fill:#635956;}
	.st21{fill:#636363;}
</style>
<g
   id="layer23"
   transform="translate(-1057.4222,100.89216)"><g
     id="g245"
     transform="matrix(1.2254032,0,0,1.2254032,959.36306,-329.18767)">
					<g
   id="layer4-98_7_"
   transform="translate(21.547229,6.2585314)">
						<path
   class="st0"
   d="m 92.2,237.3 v 1.5 h -8.6 v -1.5 h 1.2 v -16.7 c 0,-1.1 1,-1.7 1,-3.2 H 90 c 0,1.5 1,2.1 1,3.2 v 16.7 z"
   id="path230" />
						<path
   class="st0"
   d="m 90,215.6 h -4.3 c 0,-3.6 1.1,-11.5 2.2,-11.5 1.1,0 2.1,7.9 2.1,11.5 z"
   id="path232" />
					</g>
					<g
   id="g237">
						<polygon
   class="st7"
   points="98,201.7 94,202.9 103.4,196.8 94.3,208.8 "
   id="polygon235" />
					</g>
					<g
   id="g241">
						<polygon
   class="st7"
   points="120.8,201.7 124.8,202.9 115.4,196.8 124.4,208.8 "
   id="polygon239" />
					</g>
					<polygon
   class="st7"
   points="109.4,188.4 118.6,217.2 109.4,198.6 100.2,217.2 "
   id="polygon243" />
				</g></g>

</svg>
