<?xml version="1.0" encoding="UTF-8" standalone="no"?>
<!-- Generator: Adobe Illustrator 23.0.1, SVG Export Plug-In . SVG Version: 6.00 Build 0)  -->

<svg
   version="1.1"
   x="0px"
   y="0px"
   viewBox="0 0 72 71.999977"
   xml:space="preserve"
   id="svg969"
   width="72"
   height="71.999977"
   xmlns="http://www.w3.org/2000/svg"
   xmlns:svg="http://www.w3.org/2000/svg"><defs
   id="defs973" />
<style
   type="text/css"
   id="style2">
	.st0{fill:#FFFFFF;}
	.st1{fill:#B65A27;}
	.st2{fill:#898966;}
	.st3{fill:#417E24;}
	.st4{fill:#4D545E;}
	.st5{fill:#781907;}
	.st6{fill:#838383;}
	.st7{fill:#D6A648;}
	.st8{fill:#AE4025;}
	.st9{fill:#727272;}
	.st10{fill:#A15841;}
	.st11{fill:#7F8036;}
	.st12{fill:#DF6F5A;}
	.st13{enable-background:new    ;}
	.st14{fill:#B14D39;}
	.st15{fill:none;stroke:#FFFFFF;stroke-width:2.9294;stroke-miterlimit:10;}
	.st16{fill:#515A65;enable-background:new    ;}
	.st17{fill:#617F92;}
	.st18{fill:#555F47;}
	.st19{fill:#686868;}
	.st20{fill:#635956;}
	.st21{fill:#636363;}
</style>
<g
   id="layer50"
   transform="translate(3350.4535,20.418176)"><path
     id="path8080_5_"
     class="st5"
     d="m -3331.4939,-14.707794 c -0.3715,0.37149 10.5256,13.3736312 15.7264,18.8221467 5.3247,5.3246865 17.5839,15.9740573 18.3268,15.3549073 0.743,-0.619149 -9.9064,-13.0021391 -15.231,-18.3268247 -5.3247,-5.324686 -18.4507,-16.0978893 -18.8222,-15.8502293 z"
     style="stroke-width:1.2383" /><path
     class="st5"
     d="m -3299.4219,-11.612045 c 0,0 0,0 0,0 1.3621,-1.73362 2.1051,-2.971919 1.9812,-3.219579 -0.6191,-0.61915 -13.0021,10.0302238 -18.203,15.35490981 -5.3246,5.32468559 -15.8502,18.69831419 -15.6025,18.94597419 0.1238,0.12383 3.4672,-2.476598 7.4298,-5.820006 v 0 c 1.1144,-0.866809 -0.1239,2.105109 -0.1239,3.343408 0,2.228938 2.229,2.228938 2.229,0 0,-1.362129 -1.7336,-3.591067 0.6191,-5.696174 0,0 0,0 0,0 3.2196,-2.7242582 6.4392,-5.6961765 8.4205,-7.8012849 2.848,-2.84808739 7.1821,-7.8012837 10.5255,-11.7638406 0,0 0,0 0,0 v 0 c 1.7336,-2.2289385 0,4.9531962 0,7.67745413 0,2.72425757 2.7243,2.72425757 2.7243,0 0,-2.47659813 -1.9813,-8.54426353 0,-11.02086163 z"
     id="path848"
     style="stroke-width:1.2383" /><g
     id="layer4_15_"
     transform="matrix(1.2382991,0,0,1.2382991,-3668.9274,-943.88685)">
						<polygon
   class="st0"
   points="290.3,798.4 282.4,798.4 283.2,784.4 289.7,784.4 290.1,794 290.2,795.1 "
   id="polygon850" />
						<polygon
   class="st0"
   points="282.3,799.5 290.4,799.5 290.4,800.8 282.3,800.8 "
   id="polygon852" />
						<polygon
   class="st0"
   points="281.8,801.9 290.9,801.9 291,803.9 281.7,803.9 "
   id="polygon854" />
						<path
   class="st0"
   d="m 289.4,782.6 h -6.2 c 0,-1.9 1.4,-6.9 3.1,-6.9 1.8,0.1 3.1,5 3.1,6.9 z"
   id="path856" />
					</g></g>

</svg>
