<?xml version="1.0" encoding="UTF-8" standalone="no"?>
<!-- Generator: Adobe Illustrator 23.0.1, SVG Export Plug-In . SVG Version: 6.00 Build 0)  -->

<svg
   version="1.1"
   x="0px"
   y="0px"
   viewBox="0 0 72 72"
   xml:space="preserve"
   id="svg969"
   width="72"
   height="72"
   xmlns="http://www.w3.org/2000/svg"
   xmlns:svg="http://www.w3.org/2000/svg"><defs
   id="defs973" />
<style
   type="text/css"
   id="style2">
	.st0{fill:#FFFFFF;}
	.st1{fill:#B65A27;}
	.st2{fill:#898966;}
	.st3{fill:#417E24;}
	.st4{fill:#4D545E;}
	.st5{fill:#781907;}
	.st6{fill:#838383;}
	.st7{fill:#D6A648;}
	.st8{fill:#AE4025;}
	.st9{fill:#727272;}
	.st10{fill:#A15841;}
	.st11{fill:#7F8036;}
	.st12{fill:#DF6F5A;}
	.st13{enable-background:new    ;}
	.st14{fill:#B14D39;}
	.st15{fill:none;stroke:#FFFFFF;stroke-width:2.9294;stroke-miterlimit:10;}
	.st16{fill:#515A65;enable-background:new    ;}
	.st17{fill:#617F92;}
	.st18{fill:#555F47;}
	.st19{fill:#686868;}
	.st20{fill:#635956;}
	.st21{fill:#636363;}
</style>
<g
   id="layer64"
   transform="translate(3749.6945,20.57705)"><g
     id="g606"
     transform="matrix(1.2267163,0,0,1.2267163,-4105.1397,-592.35776)">
						<rect
   x="318.20001"
   y="504.89999"
   class="st0"
   width="1.8"
   height="19.9"
   id="rect604" />
					</g><polygon
     class="st0"
     points="317,501.1 319.1,495.8 321.3,501.1 320.1,503.2 318.2,503.2 "
     id="polygon608"
     transform="matrix(1.2267163,0,0,1.2267163,-4105.1397,-592.35776)" /><polygon
     class="st0"
     points="321.8,512.2 321.8,524.8 325.7,523.1 323,512.2 "
     id="polygon610"
     transform="matrix(1.2267163,0,0,1.2267163,-4105.1397,-592.35776)" /><polygon
     class="st0"
     points="316.5,512.2 316.5,524.8 312.5,523.1 315.3,512.2 "
     id="polygon612"
     transform="matrix(1.2267163,0,0,1.2267163,-4105.1397,-592.35776)" /></g>

</svg>
