<?xml version="1.0" encoding="UTF-8" standalone="no"?>
<!-- Generator: Adobe Illustrator 23.0.1, SVG Export Plug-In . SVG Version: 6.00 Build 0)  -->

<svg
   version="1.1"
   x="0px"
   y="0px"
   viewBox="0 0 72 72"
   xml:space="preserve"
   id="svg969"
   width="72"
   height="72"
   xmlns="http://www.w3.org/2000/svg"
   xmlns:svg="http://www.w3.org/2000/svg"><defs
   id="defs973" />
<style
   type="text/css"
   id="style2">
	.st0{fill:#FFFFFF;}
	.st1{fill:#B65A27;}
	.st2{fill:#898966;}
	.st3{fill:#417E24;}
	.st4{fill:#4D545E;}
	.st5{fill:#781907;}
	.st6{fill:#838383;}
	.st7{fill:#D6A648;}
	.st8{fill:#AE4025;}
	.st9{fill:#727272;}
	.st10{fill:#A15841;}
	.st11{fill:#7F8036;}
	.st12{fill:#DF6F5A;}
	.st13{enable-background:new    ;}
	.st14{fill:#B14D39;}
	.st15{fill:none;stroke:#FFFFFF;stroke-width:2.9294;stroke-miterlimit:10;}
	.st16{fill:#515A65;enable-background:new    ;}
	.st17{fill:#617F92;}
	.st18{fill:#555F47;}
	.st19{fill:#686868;}
	.st20{fill:#635956;}
	.st21{fill:#636363;}
</style>
<g
   id="layer65"
   transform="translate(2069.2822,13.239816)"><path
     id="path14434_2_"
     class="st3"
     d="m -2028.9639,55.434971 c 0,0.134952 0,0.134952 0,0 v 0 c 0,0 0,0 0,0 z"
     style="stroke-width:1.34952" /><path
     class="st3"
     d="m -2018.0328,26.690161 c -0.2699,-1.21457 -1.2145,-2.968948 -2.4291,-4.453421 l -7.8272,6.477703 v 2.294187 h -9.4467 v -2.294187 l -8.0971,-6.612656 c -1.3495,1.484474 -2.4291,3.373804 -2.699,4.723326 -1.4845,6.072847 1.3495,11.201029 -0.2699,11.605886 v 1.619426 c 3.5087,0 1.7543,4.588373 0.6747,4.588373 l 0.135,1.754378 c 0,0 0.2699,3.238852 7.4223,3.238852 v 3.77866 c 0.8097,0.944665 1.7544,1.619426 2.6991,2.159235 0,0 0,0 0,0 0,0 0.1349,0.134952 0.2699,0.134952 l 1.6194,0.539809 c 1.2146,0.269904 2.2942,0.269904 2.834,0.269904 0.5398,0 1.2146,0 2.1592,-0.134952 v 0 c 0,0 0,0 0,0 0.4049,-0.134952 1.4845,-0.404857 2.0243,-0.539809 0,0 0,0 0.135,0 v 0 c 0,0 0,0 0,0 0,0 0,0 0,0 0.5398,-0.269904 2.0243,-1.079617 2.834,-2.159234 v -3.778661 c 7.1524,0 7.4223,-3.238852 7.4223,-3.238852 l 0.135,-1.754378 c -1.0796,0 -2.834,-4.588373 0.6748,-4.588373 v -1.619426 c -1.6195,-0.809713 1.2145,-5.937895 -0.27,-12.010742 z m -20.6476,18.083589 c -6.2078,0 -7.8273,-6.477704 -5.1282,-6.477704 3.2388,0 7.6923,1.079618 7.6923,2.294187 0,1.349522 -0.135,4.183517 -2.5641,4.183517 z m 5.3981,4.723326 c -1.2146,0 -1.7544,-0.809713 -2.2942,-0.809713 0,-1.349522 1.7543,-4.588374 2.2942,-4.588374 0.5398,0 2.2941,3.373804 2.2941,4.588374 -0.5398,0 -1.0796,0.809713 -2.2941,0.809713 z m 5.398,-4.723326 c -2.4291,0 -2.5641,-2.833995 -2.5641,-4.048565 0,-1.214569 4.4535,-2.294186 7.6923,-2.294186 2.6991,-0.134953 1.0796,6.342751 -5.1282,6.342751 z"
     id="path578"
     style="stroke-width:1.34952" /><g
     id="g582"
     transform="matrix(1.3495216,0,0,1.3495216,-2275.5215,-550.90508)">
						<rect
   x="177.89999"
   y="415.20001"
   class="st0"
   width="3.5"
   height="14.2"
   id="rect580" />
					</g><polygon
     class="st0"
     points="179.7,405.1 182.6,411.5 180.8,413.4 178.6,413.4 176.8,411.5 "
     id="polygon584"
     transform="matrix(1.3495216,0,0,1.3495216,-2275.5215,-550.90508)" /><polygon
     class="st0"
     points="183.2,418.4 187.1,424 183.2,427.2 "
     id="polygon586"
     transform="matrix(1.3495216,0,0,1.3495216,-2275.5215,-550.90508)" /><polygon
     class="st0"
     points="176.2,418.4 172.3,424 176.2,427.2 "
     id="polygon588"
     transform="matrix(1.3495216,0,0,1.3495216,-2275.5215,-550.90508)" /><circle
     class="st3"
     cx="-2018.1676"
     cy="56.244675"
     r="2.1592345"
     id="circle590"
     style="stroke-width:1.34952" /><circle
     class="st3"
     cx="-2047.4521"
     cy="12.790105"
     r="3.1038995"
     id="circle592"
     style="stroke-width:1.34952" /><circle
     class="st3"
     cx="-2018.1676"
     cy="11.575502"
     r="2.1592345"
     id="circle594"
     style="stroke-width:1.34952" /><circle
     class="st3"
     cx="-2042.1891"
     cy="1.9939324"
     r="1.0796173"
     id="circle596"
     style="stroke-width:1.34952" /><circle
     class="st3"
     cx="-2045.9677"
     cy="56.244675"
     r="1.619426"
     id="circle598"
     style="stroke-width:1.34952" /></g>

</svg>
