<?xml version="1.0" encoding="UTF-8" standalone="no"?>
<!-- Generator: Adobe Illustrator 23.0.1, SVG Export Plug-In . SVG Version: 6.00 Build 0)  -->

<svg
   version="1.1"
   x="0px"
   y="0px"
   viewBox="0 0 72 72.000008"
   xml:space="preserve"
   id="svg969"
   width="72"
   height="72.000008"
   xmlns="http://www.w3.org/2000/svg"
   xmlns:svg="http://www.w3.org/2000/svg"><defs
   id="defs973" />
<style
   type="text/css"
   id="style2">
	.st0{fill:#FFFFFF;}
	.st1{fill:#B65A27;}
	.st2{fill:#898966;}
	.st3{fill:#417E24;}
	.st4{fill:#4D545E;}
	.st5{fill:#781907;}
	.st6{fill:#838383;}
	.st7{fill:#D6A648;}
	.st8{fill:#AE4025;}
	.st9{fill:#727272;}
	.st10{fill:#A15841;}
	.st11{fill:#7F8036;}
	.st12{fill:#DF6F5A;}
	.st13{enable-background:new    ;}
	.st14{fill:#B14D39;}
	.st15{fill:none;stroke:#FFFFFF;stroke-width:2.9294;stroke-miterlimit:10;}
	.st16{fill:#515A65;enable-background:new    ;}
	.st17{fill:#617F92;}
	.st18{fill:#555F47;}
	.st19{fill:#686868;}
	.st20{fill:#635956;}
	.st21{fill:#636363;}
</style>
<g
   id="layer63"
   transform="translate(1953.2129,20.577052)"><g
     id="g618"
     transform="matrix(1.2267163,0,0,1.2267163,-2265.8457,-592.35776)">
						<rect
   x="283.29999"
   y="504.89999"
   class="st0"
   width="1.8"
   height="19.9"
   id="rect616" />
					</g><polygon
     class="st0"
     points="284.2,495.8 286.3,501.1 285.2,503.2 283.2,503.2 282.1,501.1 "
     id="polygon620"
     transform="matrix(1.2267163,0,0,1.2267163,-2265.8457,-592.35776)" /><g
     id="g626"
     transform="matrix(1.2267163,0,0,1.2267163,-2265.8457,-592.35776)">
						<polygon
   class="st0"
   points="281.6,503.8 281.7,504 281.6,504 "
   id="polygon622" />
						<polygon
   class="st0"
   points="286.8,503.8 286.8,504 286.7,504 "
   id="polygon624" />
					</g><polygon
     class="st0"
     points="286.8,524.8 290.8,523.1 288.1,512.2 286.8,512.2 "
     id="polygon628"
     transform="matrix(1.2267163,0,0,1.2267163,-2265.8457,-592.35776)" /><polygon
     class="st0"
     points="281.6,524.8 277.6,523.1 280.3,512.2 281.6,512.2 "
     id="polygon630"
     transform="matrix(1.2267163,0,0,1.2267163,-2265.8457,-592.35776)" /><polygon
     class="st7"
     points="287.7,491 296.8,481.2 290.5,498.9 298.7,492.8 292.1,504 286.7,504 286.8,503.8 288.3,501.2 284.2,491.1 280.1,501.2 281.6,503.8 281.7,504 276.3,504 269.7,492.8 277.9,498.9 271.6,481.2 280.7,491 284.2,470.2 "
     id="polygon632"
     transform="matrix(1.2267163,0,0,1.2267163,-2265.8457,-592.35776)" /></g>

</svg>
