<?xml version="1.0" encoding="UTF-8" standalone="no"?>
<!-- Generator: Adobe Illustrator 23.0.1, SVG Export Plug-In . SVG Version: 6.00 Build 0)  -->

<svg
   version="1.1"
   x="0px"
   y="0px"
   viewBox="0 0 72 72"
   xml:space="preserve"
   id="svg969"
   width="72"
   height="72"
   xmlns="http://www.w3.org/2000/svg"
   xmlns:svg="http://www.w3.org/2000/svg"><defs
   id="defs973" />
<style
   type="text/css"
   id="style2">
	.st0{fill:#FFFFFF;}
	.st1{fill:#B65A27;}
	.st2{fill:#898966;}
	.st3{fill:#417E24;}
	.st4{fill:#4D545E;}
	.st5{fill:#781907;}
	.st6{fill:#838383;}
	.st7{fill:#D6A648;}
	.st8{fill:#AE4025;}
	.st9{fill:#727272;}
	.st10{fill:#A15841;}
	.st11{fill:#7F8036;}
	.st12{fill:#DF6F5A;}
	.st13{enable-background:new    ;}
	.st14{fill:#B14D39;}
	.st15{fill:none;stroke:#FFFFFF;stroke-width:2.9294;stroke-miterlimit:10;}
	.st16{fill:#515A65;enable-background:new    ;}
	.st17{fill:#617F92;}
	.st18{fill:#555F47;}
	.st19{fill:#686868;}
	.st20{fill:#635956;}
	.st21{fill:#636363;}
</style>
<g
   id="layer67"
   transform="translate(2185.102,21.303589)"><g
     id="g499"
     transform="matrix(1.3495216,0,0,1.3495216,-2485.2678,-563.20098)">
						<rect
   x="247.5"
   y="440.70001"
   class="st0"
   width="3.5"
   height="14.2"
   id="rect497" />
					</g><g
     id="g503"
     transform="matrix(1.3495216,0,0,1.3495216,-2485.2678,-563.20098)">
						<path
   class="st0"
   d="m 250,432.4 h 1.6 V 429 c 0,-1.3 -1.1,-2.4 -2.4,-2.4 -1.3,0 -2.4,1.1 -2.4,2.4 v 9.8 h 4.8 v -5.2 H 250 c -0.4,0 -0.7,-0.3 -0.7,-0.7 0.1,-0.2 0.4,-0.5 0.7,-0.5 z m -0.8,4.7 c 0,0.4 -0.3,0.7 -0.7,0.7 -0.4,0 -0.7,-0.3 -0.7,-0.7 v -1.7 c 0,-0.4 0.3,-0.7 0.7,-0.7 0.4,0 0.7,0.3 0.7,0.7 z m 0,-5.9 c 0,0.4 -0.3,0.7 -0.7,0.7 -0.4,0 -0.7,-0.3 -0.7,-0.7 v -1.7 c 0,-0.4 0.3,-0.7 0.7,-0.7 0.4,0 0.7,0.3 0.7,0.7 z"
   id="path501" />
					</g><polygon
     class="st0"
     points="252.8,452.7 252.8,443.9 256.6,449.5 "
     id="polygon505"
     transform="matrix(1.3495216,0,0,1.3495216,-2485.2678,-563.20098)" /><polygon
     class="st0"
     points="245.7,452.7 245.7,443.9 241.8,449.5 "
     id="polygon507"
     transform="matrix(1.3495216,0,0,1.3495216,-2485.2678,-563.20098)" /><g
     id="g511"
     transform="matrix(1.3495216,0,0,1.3495216,-2485.2678,-563.20098)">
						<path
   class="st19"
   d="m 242.3,422.6 c -0.6,0.5 -1.2,0.9 -1.9,1.4 -1.2,0.9 -2.3,1.8 -3.2,2.6 -0.9,-3.1 -0.6,-6.7 1.6,-10.5 -0.1,0.1 0,5.9 3.5,6.5 z"
   id="path509" />
					</g><g
     id="g515"
     transform="matrix(1.3495216,0,0,1.3495216,-2485.2678,-563.20098)">
						<path
   class="st19"
   d="m 243.5,430.1 c 0,2.4 0.8,4.7 0.9,4.7 -2,-0.9 -3.8,-2.3 -5.2,-4 1.3,-0.7 2.6,-1.5 4.1,-2.4 0.1,-0.1 0.2,-0.1 0.3,-0.2 0,0.6 -0.1,1.2 -0.1,1.9 z"
   id="path513" />
					</g><g
     id="g519"
     transform="matrix(1.3495216,0,0,1.3495216,-2485.2678,-563.20098)">
						<path
   class="st19"
   d="m 254.4,414.3 c -2.5,1.5 -4.8,3 -7,4.5 -1.7,1.2 -3.5,2.4 -5.2,3.8 -0.4,-5.2 2.3,-11.6 9.4,-15.8 -1.6,2.2 0.2,5.2 2.8,7.5 z"
   id="path517" />
					</g><g
     id="g523"
     transform="matrix(1.3495216,0,0,1.3495216,-2485.2678,-563.20098)">
						<path
   class="st19"
   d="m 254.1,434.6 c 2.5,-1.7 4.2,-12.1 -1.4,-8.5 0,0 0,-0.3 0,-0.8 0.2,-2.1 1.4,-4.1 3.1,-5.4 0.7,-0.5 1.3,-1 2,-1.5 0.6,-0.4 1.1,-0.9 1.6,-1.3 0.7,-0.6 1.4,-1.1 2,-1.7 -4,9.4 6.2,16.9 -7.3,19.2 z"
   id="path521" />
					</g><g
     id="g527"
     transform="matrix(1.3495216,0,0,1.3495216,-2485.2678,-563.20098)">
						<path
   class="st19"
   d="m 234.8,431.1 c 2.1,-2 4.3,-3.9 6.6,-5.7 2.3,-1.8 4.6,-3.5 7,-5.1 2.4,-1.6 4.8,-3.2 7.3,-4.7 2.5,-1.5 5,-2.9 7.7,-4.2 -2.1,2 -4.3,3.9 -6.6,5.7 -2.3,1.8 -4.6,3.5 -7,5.1 -2.4,1.6 -4.8,3.2 -7.3,4.7 -2.5,1.5 -5,2.9 -7.7,4.2 z"
   id="path525" />
					</g></g>

</svg>
