<?xml version="1.0" encoding="UTF-8" standalone="no"?>
<!-- Generator: Adobe Illustrator 23.0.1, SVG Export Plug-In . SVG Version: 6.00 Build 0)  -->

<svg
   version="1.1"
   x="0px"
   y="0px"
   viewBox="0 0 72 72"
   xml:space="preserve"
   id="svg969"
   width="72"
   height="72"
   xmlns="http://www.w3.org/2000/svg"
   xmlns:svg="http://www.w3.org/2000/svg"><defs
   id="defs973" />
<style
   type="text/css"
   id="style2">
	.st0{fill:#FFFFFF;}
	.st1{fill:#B65A27;}
	.st2{fill:#898966;}
	.st3{fill:#417E24;}
	.st4{fill:#4D545E;}
	.st5{fill:#781907;}
	.st6{fill:#838383;}
	.st7{fill:#D6A648;}
	.st8{fill:#AE4025;}
	.st9{fill:#727272;}
	.st10{fill:#A15841;}
	.st11{fill:#7F8036;}
	.st12{fill:#DF6F5A;}
	.st13{enable-background:new    ;}
	.st14{fill:#B14D39;}
	.st15{fill:none;stroke:#FFFFFF;stroke-width:2.9294;stroke-miterlimit:10;}
	.st16{fill:#515A65;enable-background:new    ;}
	.st17{fill:#617F92;}
	.st18{fill:#555F47;}
	.st19{fill:#686868;}
	.st20{fill:#635956;}
	.st21{fill:#636363;}
</style>
<g
   id="layer14"
   transform="translate(-521.47752,-178.61682)"><g
     id="g127"
     transform="matrix(1.2584085,0,0,1.2584085,376.14226,31.260011)">
					<g
   id="layer4_5_"
   transform="translate(-1.9975827,0.33274602)">
						<path
   class="st0"
   d="m 151.1,147.6 v 1.5 h -10 v -1.5 h 1.2 v -15.2 c 0,-1.1 1,-1.8 1,-3.3 h 5.6 c 0,1.5 1,2.3 1,3.3 v 15.2 z"
   id="path114" />
						<path
   class="st0"
   d="m 148.9,127.3 h -5.6 c 0,-1.9 1.1,-6.2 2.8,-6.2 1.7,0 2.8,4.3 2.8,6.2 z"
   id="path116" />
					</g>
					<g
   id="g125">
						<path
   class="st4"
   d="m 158,161.9 c -0.3,-0.3 -0.7,-0.5 -1,-0.5 -0.4,0 -0.8,0.4 -0.6,1.1 0.5,1.6 -3,3 -12.2,2.9 h -0.1 L 141,169 c 1,0.1 2,0.1 3.1,0.1 12.2,0 16.8,-4.1 13.9,-7.2 z"
   id="path119" />
						<path
   class="st4"
   d="m 149.9,159 -2.3,2.7 c 6.9,-0.7 8.9,-3.6 5.9,-5.5 -0.5,-0.3 -1,-0.4 -1.3,-0.4 -0.4,0 -0.4,0.3 0.4,0.7 1.3,0.9 0.8,2 -2.7,2.5 z"
   id="path121" />
						<path
   class="st4"
   d="m 154.1,150.4 c -0.3,-0.3 -5.5,4.5 -9.7,8.8 -7.9,-0.2 -9.6,-1.8 -7.5,-3 1,-0.5 1,-0.8 0.6,-0.8 -0.3,0 -0.8,0.1 -1.4,0.4 -3.6,2 -1.7,5.2 5.9,5.8 l -3.4,3.6 c -6,-0.6 -7.7,-2.1 -6.4,-3.4 0.6,-0.6 0.6,-1.2 0.1,-1.1 -0.2,0 -0.5,0.1 -0.8,0.3 -3.9,2.4 -2.5,5.9 4.4,7.5 -2.4,2.9 -4.2,5.6 -4.1,5.8 0.2,0.3 6.4,-4.7 10.1,-8.7 3.8,-4.1 12.7,-14.7 12.2,-15.2 z"
   id="path123" />
					</g>
				</g></g>

</svg>
