<?xml version="1.0" encoding="UTF-8" standalone="no"?>
<!-- Generator: Adobe Illustrator 23.0.1, SVG Export Plug-In . SVG Version: 6.00 Build 0)  -->

<svg
   version="1.1"
   x="0px"
   y="0px"
   viewBox="0 0 72 72"
   xml:space="preserve"
   id="svg969"
   width="72"
   height="72"
   xmlns="http://www.w3.org/2000/svg"
   xmlns:svg="http://www.w3.org/2000/svg"><defs
   id="defs973" />
<style
   type="text/css"
   id="style2">
	.st0{fill:#FFFFFF;}
	.st1{fill:#B65A27;}
	.st2{fill:#898966;}
	.st3{fill:#417E24;}
	.st4{fill:#4D545E;}
	.st5{fill:#781907;}
	.st6{fill:#838383;}
	.st7{fill:#D6A648;}
	.st8{fill:#AE4025;}
	.st9{fill:#727272;}
	.st10{fill:#A15841;}
	.st11{fill:#7F8036;}
	.st12{fill:#DF6F5A;}
	.st13{enable-background:new    ;}
	.st14{fill:#B14D39;}
	.st15{fill:none;stroke:#FFFFFF;stroke-width:2.9294;stroke-miterlimit:10;}
	.st16{fill:#515A65;enable-background:new    ;}
	.st17{fill:#617F92;}
	.st18{fill:#555F47;}
	.st19{fill:#686868;}
	.st20{fill:#635956;}
	.st21{fill:#636363;}
</style>
<g
   id="layer6"
   transform="translate(-143.28323,-91.606134)"><g
     id="layer2_4_"
     transform="matrix(1.4124398,0,0,1.39538,-74.374179,20.15072)">
						<polygon
   class="st0"
   points="175.3,81 183.9,81 183.9,79.7 182.9,79.7 182.9,68.7 176.3,68.7 176.3,79.7 175.3,79.7 "
   id="polygon28" />
						<path
   class="st0"
   d="m 182.8,66.9 h -6.6 c 0,-2.4 1.6,-7.8 3.3,-7.8 1.8,0 3.3,5.4 3.3,7.8 z"
   id="path30" />
					</g><path
     class="st3"
     d="m 195.2438,132.53246 c -0.70622,-2.68363 -3.81359,-7.62718 -8.19215,-7.62718 h -0.56498 v 3.95482 h 1.41244 v 6.77973 h -17.23176 v -6.77973 h 1.41244 v -3.95482 h -0.56497 c -4.37858,0 -7.62719,4.94355 -8.19216,7.62718 -1.55369,6.35597 1.41243,11.72324 -0.28249,12.14698 v 1.69492 c 3.67234,0 1.83617,4.8023 0.70622,4.8023 l 0.14124,1.83616 c 0,0 0.28248,3.38986 7.76841,3.38986 v 3.95484 c 0.84748,0.98871 1.83618,1.69492 2.82489,2.25989 0,0 0,0 0,0 0,0 0.14124,0.14125 0.28249,0.14125 l 1.69492,0.56498 c 1.27121,0.28249 2.40116,0.28249 2.96613,0.28249 0.56498,0 1.27119,0 2.2599,-0.14124 v 0 c 0,0 0,0 0,0 0.42374,-0.14125 1.55368,-0.42374 2.11867,-0.56497 0,0 0,0 0.14123,0 v 0 c 0,0 0,0 0,0 0,0 0,0 0,0 0.565,-0.28251 2.11866,-1.12996 2.96613,-2.25992 v -3.95483 c 7.48592,0 7.76841,-3.38985 7.76841,-3.38985 l 0.14126,-1.83616 c -1.12996,0 -2.96613,-4.80231 0.70622,-4.80231 v -1.69492 c -1.69494,-0.70623 1.27119,-6.0735 -0.28249,-12.42947 z m -21.61033,18.9267 c -6.49723,0 -8.19215,-6.77972 -5.36728,-6.77972 3.38985,0 8.05093,1.12995 8.05093,2.40115 0,1.41243 -0.14126,4.37857 -2.68365,4.37857 z m 5.64975,4.80229 c -1.27119,0 -1.83616,-0.84747 -2.40115,-0.84747 0,-1.41244 1.83617,-4.80229 2.40115,-4.80229 0.56497,0 2.40115,3.5311 2.40115,4.80229 -0.56497,0.14125 -1.12995,0.9887 -2.40115,0.84747 z m 5.64976,-4.80229 c -2.54238,0 -2.68363,-2.96614 -2.68363,-4.23733 0,-1.27119 4.66105,-2.40116 8.05091,-2.40116 2.82487,-0.14123 1.12995,6.63849 -5.36728,6.63849 z"
     id="path33"
     style="stroke-width:1.41244" /></g>

</svg>
