<?xml version="1.0" encoding="UTF-8" standalone="no"?>
<!-- Generator: Adobe Illustrator 23.0.1, SVG Export Plug-In . SVG Version: 6.00 Build 0)  -->

<svg
   version="1.1"
   x="0px"
   y="0px"
   viewBox="0 0 72 72"
   xml:space="preserve"
   id="svg969"
   width="72"
   height="72"
   xmlns="http://www.w3.org/2000/svg"
   xmlns:svg="http://www.w3.org/2000/svg"><defs
   id="defs973" />
<style
   type="text/css"
   id="style2">
	.st0{fill:#FFFFFF;}
	.st1{fill:#B65A27;}
	.st2{fill:#898966;}
	.st3{fill:#417E24;}
	.st4{fill:#4D545E;}
	.st5{fill:#781907;}
	.st6{fill:#838383;}
	.st7{fill:#D6A648;}
	.st8{fill:#AE4025;}
	.st9{fill:#727272;}
	.st10{fill:#A15841;}
	.st11{fill:#7F8036;}
	.st12{fill:#DF6F5A;}
	.st13{enable-background:new    ;}
	.st14{fill:#B14D39;}
	.st15{fill:none;stroke:#FFFFFF;stroke-width:2.9294;stroke-miterlimit:10;}
	.st16{fill:#515A65;enable-background:new    ;}
	.st17{fill:#617F92;}
	.st18{fill:#555F47;}
	.st19{fill:#686868;}
	.st20{fill:#635956;}
	.st21{fill:#636363;}
</style>
<g
   id="layer24"
   transform="translate(-1084.7584,92.911374)"><g
     id="g175"
     transform="matrix(1.2254032,0,0,1.2254032,1029.4046,-321.20688)">
					<path
   class="st7"
   d="m 89.1,210.6 -6.6,11.3 h -4 v 0 c 0,-1.4 -0.2,-13.3 -3.9,-13.3 -3.7,0 -3.9,11.9 -3.9,13.3 v 0 h -4 l -6.7,-11.3 8.2,6.2 -6.3,-17.8 9.1,9.8 3.5,-20.8 3.5,20.8 9.1,-9.8 -6.3,17.8 z"
   id="path168" />
					<g
   id="layer4-98_8_"
   transform="translate(21.547229,6.2585314)">
						<path
   class="st0"
   d="m 57.3,237.3 v 1.5 h -8.6 v -1.5 h 1.2 v -16.7 c 0,-1.1 1,-1.7 1,-3.2 h 4.3 c 0,1.5 1,2.1 1,3.2 v 16.7 z"
   id="path170" />
						<path
   class="st0"
   d="m 55.2,215.6 h -4.3 c 0,-3.6 1.1,-11.5 2.2,-11.5 1.1,0 2,7.9 2.1,11.5 z"
   id="path172" />
					</g>
				</g></g>

</svg>
