<?xml version="1.0" encoding="UTF-8" standalone="no"?>
<!-- Generator: Adobe Illustrator 23.0.1, SVG Export Plug-In . SVG Version: 6.00 Build 0)  -->

<svg
   version="1.1"
   x="0px"
   y="0px"
   viewBox="0 0 72 72"
   xml:space="preserve"
   id="svg969"
   width="72"
   height="72"
   xmlns="http://www.w3.org/2000/svg"
   xmlns:svg="http://www.w3.org/2000/svg"><defs
   id="defs973" />
<style
   type="text/css"
   id="style2">
	.st0{fill:#FFFFFF;}
	.st1{fill:#B65A27;}
	.st2{fill:#898966;}
	.st3{fill:#417E24;}
	.st4{fill:#4D545E;}
	.st5{fill:#781907;}
	.st6{fill:#838383;}
	.st7{fill:#D6A648;}
	.st8{fill:#AE4025;}
	.st9{fill:#727272;}
	.st10{fill:#A15841;}
	.st11{fill:#7F8036;}
	.st12{fill:#DF6F5A;}
	.st13{enable-background:new    ;}
	.st14{fill:#B14D39;}
	.st15{fill:none;stroke:#FFFFFF;stroke-width:2.9294;stroke-miterlimit:10;}
	.st16{fill:#515A65;enable-background:new    ;}
	.st17{fill:#617F92;}
	.st18{fill:#555F47;}
	.st19{fill:#686868;}
	.st20{fill:#635956;}
	.st21{fill:#636363;}
</style>
<g
   id="layer70"
   transform="translate(2358.9254,18.707676)"><circle
     class="st0"
     cx="-2322.7095"
     cy="27.354967"
     r="2.0533736"
     id="circle415"
     style="stroke-width:1.08072" /><circle
     class="st0"
     cx="-2322.7095"
     cy="21.62715"
     r="2.0533736"
     id="circle417"
     style="stroke-width:1.08072" /><circle
     class="st0"
     cx="-2322.7095"
     cy="15.89933"
     r="2.0533736"
     id="circle419"
     style="stroke-width:1.08072" /><path
     class="st0"
     d="M -2324.2223,35.460402"
     id="path421"
     style="stroke-width:1.08072" /><path
     class="st0"
     d="M -2319.3591,35.460402"
     id="path423"
     style="stroke-width:1.08072" /><g
     id="g429"
     transform="matrix(1.0807229,0,0,1.0807229,-2516.6991,-362.56985)">
						<path
   class="st0"
   d="m 182.3,344.5 c -0.7,-0.7 -1.7,-1.1 -2.8,-1.1 -2.2,0 -3.9,1.8 -3.9,3.9 v 18.5 c 0,1.1 0.4,2.1 1.1,2.8 0.7,0.7 1.7,1.2 2.8,1.2 2.2,0 3.9,-1.8 3.9,-3.9 v -18.5 c 0,-1.2 -0.4,-2.2 -1.1,-2.9 z m -5.5,2.8 c 0,-1.5 1.2,-2.8 2.8,-2.8 0.7,0 1.4,0.3 2,0.8 0.5,0.5 0.8,1.2 0.8,1.9 v 17.3 c -0.7,0.7 -1.7,1.1 -2.8,1.1 -1.1,0 -2,-0.4 -2.8,-1.1 z"
   id="path425" />
						<path
   class="st0"
   d="m 178.1,371.1 c -1.1,0.5 -1.9,1.7 -1.9,3 v 7.4 c 0,1.8 1.5,3.3 3.3,3.3 1.8,0 3.3,-1.5 3.3,-3.3 v -7.4 c 0,-1.3 -0.7,-2.4 -1.8,-3 v -1.8 h -2.9 z"
   id="path427" />
					</g><g
     class="st13"
     id="g433"
     transform="matrix(1.0807229,0,0,1.0807229,-2516.6991,-362.56985)">
						<path
   class="st17"
   d="m 185.9,349.1 c 0.2,-0.4 0.3,-0.7 0.6,-1.1 0.3,-0.3 0.8,-0.5 1.3,-0.5 1,-0.1 2,0.5 2.5,1.3 0.3,0.4 0.8,0.8 1.3,0.9 0.3,0 0.6,0 0.9,-0.1 0.3,-0.1 0.7,-0.4 1,-0.5 -0.2,0.4 -0.3,0.7 -0.6,1.1 -0.3,0.3 -0.8,0.5 -1.3,0.6 -1,0.1 -2,-0.4 -2.5,-1.2 -0.3,-0.5 -0.7,-0.8 -1.3,-1 -0.3,-0.1 -0.6,-0.1 -0.9,0 -0.3,0.1 -0.7,0.3 -1,0.5 z"
   id="path431" />
					</g><g
     class="st13"
     id="g437"
     transform="matrix(1.0807229,0,0,1.0807229,-2516.6991,-362.56985)">
						<path
   class="st17"
   d="m 185.9,352.5 c 0.2,-0.4 0.3,-0.7 0.6,-1.1 0.3,-0.3 0.8,-0.5 1.3,-0.5 1,-0.1 2,0.5 2.5,1.3 0.3,0.4 0.8,0.8 1.3,0.9 0.3,0 0.6,0 0.9,-0.1 0.3,-0.1 0.7,-0.4 1,-0.5 -0.2,0.4 -0.3,0.7 -0.6,1.1 -0.3,0.3 -0.8,0.5 -1.3,0.6 -1,0.1 -2,-0.4 -2.5,-1.2 -0.3,-0.5 -0.7,-0.8 -1.3,-1 -0.3,-0.1 -0.6,-0.1 -0.9,0 -0.3,0.1 -0.7,0.3 -1,0.5 z"
   id="path435" />
					</g><g
     class="st13"
     id="g441"
     transform="matrix(1.0807229,0,0,1.0807229,-2516.6991,-362.56985)">
						<path
   class="st17"
   d="m 173.2,349.1 c -0.4,-0.2 -0.7,-0.4 -1,-0.5 -0.3,-0.1 -0.6,-0.1 -0.9,0 -0.6,0.1 -1,0.5 -1.3,1 -0.5,0.9 -1.5,1.4 -2.5,1.2 -0.5,0 -0.9,-0.3 -1.3,-0.6 -0.3,-0.4 -0.5,-0.7 -0.6,-1.1 0.4,0.1 0.7,0.4 1,0.5 0.3,0.1 0.6,0.1 0.9,0.1 0.6,-0.1 1,-0.5 1.3,-0.9 0.5,-0.8 1.5,-1.4 2.5,-1.3 0.5,0 1,0.2 1.3,0.5 0.3,0.3 0.4,0.7 0.6,1.1 z"
   id="path439" />
					</g><g
     class="st13"
     id="g445"
     transform="matrix(1.0807229,0,0,1.0807229,-2516.6991,-362.56985)">
						<path
   class="st17"
   d="m 173.2,352.5 c -0.4,-0.2 -0.7,-0.4 -1,-0.5 -0.3,-0.1 -0.6,-0.1 -0.9,0 -0.6,0.1 -1,0.5 -1.3,1 -0.5,0.9 -1.5,1.4 -2.5,1.2 -0.5,0 -0.9,-0.3 -1.3,-0.6 -0.3,-0.4 -0.5,-0.7 -0.6,-1.1 0.4,0.1 0.7,0.4 1,0.5 0.3,0.1 0.6,0.1 0.9,0.1 0.6,-0.1 1,-0.5 1.3,-0.9 0.5,-0.8 1.5,-1.4 2.5,-1.3 0.5,0 1,0.2 1.3,0.5 0.3,0.4 0.4,0.7 0.6,1.1 z"
   id="path443" />
					</g><path
     class="st18"
     d="m -2313.307,8.7665458 c 0.108,0.5403614 0.2161,1.0807229 0.2161,1.7291562 -0.1081,0 -0.3242,0 -0.4323,0 -0.2161,0 -0.3242,0 -0.4323,0 -0.1081,0 -0.3242,0 -0.4323,0 -0.108,-0.540361 -0.3242,-1.0807225 -0.6484,-1.6210839 l 1.4049,-1.5130121 -1.621,0.9726506 c -0.2162,-0.4322891 -0.5404,-0.9726506 -0.9727,-1.2968675 0,0 -0.1081,-0.1080723 -0.1081,-0.1080723 l 1.1888,-1.8372289 v 0 l -1.9453,0.9726506 c -0.4323,-0.4322891 -0.8646,-0.756506 -1.4049,-0.9726506 l 1.513,-3.2421687 -2.4857,2.7018073 c -0.8645,-0.4322892 -1.8372,-0.6484338 -2.8098,-0.7565061 l -0.6485,-5.6197591 -0.6484,5.6197591 c -0.9727,0.1080723 -1.9453,0.3242169 -2.8099,0.7565061 l -2.3776,-2.7018073 1.513,3.2421687 c -0.5403,0.3242169 -0.9726,0.6484338 -1.4049,0.9726506 l -1.9453,-0.9726506 v 0 l 1.1888,1.8372289 c 0,0 -0.1081,0.1080723 -0.1081,0.1080723 -0.3242,0.4322892 -0.6484,0.8645784 -0.8646,1.2968675 l -1.6211,-0.9726506 1.405,1.5130121 c -0.2162,0.5403614 -0.4323,1.0807229 -0.6484,1.6210839 -0.1081,0 -0.2162,0 -0.3243,0 -0.2161,0 -0.3242,0 -0.5403,0 -0.1081,0 -0.3242,0 -0.4323,0 0,-0.540361 0.1081,-1.1887948 0.2161,-1.7291562 l -6.8085,-7.2408435 7.7812,4.8632531 c 0,-0.1080723 0.1081,-0.2161446 0.2161,-0.4322892 l -2.3776,-3.6744578 3.6745,1.9453012 c 0.1081,-0.1080723 0.2161,-0.2161446 0.3242,-0.3242169 l -5.8359,-11.9960242 8.8619,10.050723 c 0.4323,-0.2161446 0.9727,-0.3242169 1.405,-0.4322892 l 2.1614,-18.5884333 2.1615,18.5884333 c 0.4323,0.1080723 0.9726,0.2161446 1.4049,0.4322892 l 8.8619,-10.050723 -5.8359,11.9960242 c 0.1081,0.1080723 0.2162,0.2161446 0.3242,0.3242169 l 3.6745,-1.9453012 -2.3776,3.6744578 c 0.1081,0.1080723 0.1081,0.2161446 0.2162,0.4322892 l 7.7812,-4.8632531 z"
     id="path447"
     style="stroke-width:1.08072" /></g>

</svg>
