<?xml version="1.0" encoding="UTF-8" standalone="no"?>
<!-- Generator: Adobe Illustrator 23.0.1, SVG Export Plug-In . SVG Version: 6.00 Build 0)  -->

<svg
   version="1.1"
   x="0px"
   y="0px"
   viewBox="0 0 48 48"
   xml:space="preserve"
   id="svg969"
   width="48"
   height="48"
   xmlns="http://www.w3.org/2000/svg"
   xmlns:svg="http://www.w3.org/2000/svg"><defs
   id="defs973" />
<style
   type="text/css"
   id="style2">
	.st0{fill:#FFFFFF;}
	.st1{fill:#B65A27;}
	.st2{fill:#898966;}
	.st3{fill:#417E24;}
	.st4{fill:#4D545E;}
	.st5{fill:#781907;}
	.st6{fill:#838383;}
	.st7{fill:#D6A648;}
	.st8{fill:#AE4025;}
	.st9{fill:#727272;}
	.st10{fill:#A15841;}
	.st11{fill:#7F8036;}
	.st12{fill:#DF6F5A;}
	.st13{enable-background:new    ;}
	.st14{fill:#B14D39;}
	.st15{fill:none;stroke:#FFFFFF;stroke-width:2.9294;stroke-miterlimit:10;}
	.st16{fill:#515A65;enable-background:new    ;}
	.st17{fill:#617F92;}
	.st18{fill:#555F47;}
	.st19{fill:#686868;}
	.st20{fill:#635956;}
	.st21{fill:#636363;}
</style>


<g
   id="layer35"
   transform="matrix(0.97924876,0,0,0.97924876,-1001.9744,-327.147)"><path
     id="path8080_5_-6"
     class="st5"
     d="m 1027.4502,338.26465 c -0.4418,0.4418 12.5177,15.90484 18.7029,22.38458 6.3325,6.33248 20.912,18.99744 21.7955,18.26111 0.8836,-0.73634 -11.7814,-15.46304 -18.1138,-21.79551 -6.3325,-6.33249 -21.9428,-19.14471 -22.3846,-18.85018 z"
     style="fill:#ffffff;fill-opacity:1;stroke-width:1.47267" /><path
     class="st5"
     d="m 1065.5924,341.94633 c 0,0 0,0 0,0 1.6199,-2.06175 2.5035,-3.53441 2.3562,-3.82895 -0.7363,-0.73633 -15.463,11.92863 -21.6483,18.26111 -6.3324,6.33248 -18.8501,22.23731 -18.5555,22.53185 0.1472,0.14726 4.1234,-2.94535 8.836,-6.92156 v 0 c 1.3253,-1.03087 -0.1474,2.50354 -0.1474,3.97621 0,2.65081 2.6509,2.65081 2.6509,0 0,-1.61993 -2.0617,-4.27073 0.7363,-6.77427 0,0 0,0 0,0 3.829,-3.23988 7.6579,-6.77429 10.0142,-9.27783 3.3871,-3.38713 8.5415,-9.27781 12.5177,-13.99036 0,0 0,0 0,0 v 0 c 2.0617,-2.65081 0,5.89068 0,9.13056 0,3.23986 3.2399,3.23986 3.2399,0 0,-2.94534 -2.3563,-10.16143 0,-13.10676 z"
     id="path848-7"
     style="fill:#fffffe;fill-opacity:1;stroke-width:1.47267" /></g></svg>
