<?xml version="1.0" encoding="UTF-8" standalone="no"?>
<!-- Generator: Adobe Illustrator 23.0.1, SVG Export Plug-In . SVG Version: 6.00 Build 0)  -->

<svg
   version="1.1"
   x="0px"
   y="0px"
   viewBox="0 0 72 72"
   xml:space="preserve"
   id="svg969"
   width="72"
   height="72"
   xmlns="http://www.w3.org/2000/svg"
   xmlns:svg="http://www.w3.org/2000/svg"><defs
   id="defs973" />
<style
   type="text/css"
   id="style2">
	.st0{fill:#FFFFFF;}
	.st1{fill:#B65A27;}
	.st2{fill:#898966;}
	.st3{fill:#417E24;}
	.st4{fill:#4D545E;}
	.st5{fill:#781907;}
	.st6{fill:#838383;}
	.st7{fill:#D6A648;}
	.st8{fill:#AE4025;}
	.st9{fill:#727272;}
	.st10{fill:#A15841;}
	.st11{fill:#7F8036;}
	.st12{fill:#DF6F5A;}
	.st13{enable-background:new    ;}
	.st14{fill:#B14D39;}
	.st15{fill:none;stroke:#FFFFFF;stroke-width:2.9294;stroke-miterlimit:10;}
	.st16{fill:#515A65;enable-background:new    ;}
	.st17{fill:#617F92;}
	.st18{fill:#555F47;}
	.st19{fill:#686868;}
	.st20{fill:#635956;}
	.st21{fill:#636363;}
</style>
<g
   id="layer13"
   transform="translate(-0.08328378,-199.92619)"><g
     id="g159"
     transform="matrix(1.2584085,0,0,1.2584085,-189.54936,52.303787)">
					<g
   id="layer4_4_"
   transform="translate(-1.9975827,0.33274602)">
						<path
   class="st0"
   d="m 186.3,147.6 v 1.5 h -10 v -1.5 h 1.2 v -15.2 c 0,-1.1 1,-1.8 1,-3.3 h 5.6 c 0,1.5 1,2.3 1,3.3 v 15.2 z"
   id="path152" />
						<path
   class="st0"
   d="m 184.1,127.3 h -5.6 c 0,-1.9 1.1,-6.2 2.8,-6.2 1.7,0 2.8,4.3 2.8,6.2 z"
   id="path154" />
					</g>
					<path
   class="st3"
   d="m 190.6,148.4 c -0.5,-1.9 -2.7,-5.4 -5.8,-5.4 v 3.2 h 1.2 v 5 h -13.5 v -5 h 1.2 V 143 c -3.1,0.1 -5.3,3.5 -5.7,5.4 -1.1,4.5 1,8.3 -0.2,8.6 v 1.2 c 2.6,0 1.3,3.4 0.5,3.4 l 0.1,1.3 c 0,0 0.2,2.4 5.5,2.4 v 2.8 c 0.6,0.7 1.3,1.2 2,1.6 0,0 0,0 0,0 0,0 0.1,0.1 0.2,0.1 l 1.2,0.4 c 0.9,0.2 1.7,0.2 2.1,0.2 0.4,0 0.9,0 1.6,-0.1 v 0 c 0,0 0,0 0,0 0.3,-0.1 1.1,-0.3 1.5,-0.4 0,0 0,0 0.1,0 v 0 c 0,0 0,0 0,0 0,0 0,0 0,0 0.4,-0.2 1.5,-0.8 2.1,-1.6 v -2.8 c 5.3,0 5.5,-2.4 5.5,-2.4 l 0.1,-1.3 c -0.8,0 -2.1,-3.4 0.5,-3.4 v -1.2 c -1.2,-0.6 0.9,-4.3 -0.2,-8.8 z m -15.3,13.3 c -4.6,0 -5.8,-4.8 -3.8,-4.8 2.4,0 5.7,0.8 5.7,1.7 0,1.1 -0.1,3.1 -1.9,3.1 z m 4,3.5 c -0.9,0 -1.3,-0.6 -1.7,-0.6 0,-1 1.3,-3.4 1.7,-3.4 0.4,0 1.7,2.5 1.7,3.4 -0.4,0 -0.8,0.6 -1.7,0.6 z m 4,-3.5 c -1.8,0 -1.9,-2.1 -1.9,-3 0,-0.9 3.3,-1.7 5.7,-1.7 2,0 0.8,4.7 -3.8,4.7 z"
   id="path157" />
				</g></g>

</svg>
