<?xml version="1.0" encoding="UTF-8" standalone="no"?>
<!-- Generator: Adobe Illustrator 23.0.1, SVG Export Plug-In . SVG Version: 6.00 Build 0)  -->

<svg
   version="1.1"
   x="0px"
   y="0px"
   viewBox="0 0 72 72"
   xml:space="preserve"
   id="svg969"
   width="72"
   height="72"
   xmlns="http://www.w3.org/2000/svg"
   xmlns:svg="http://www.w3.org/2000/svg"><defs
   id="defs973" />
<style
   type="text/css"
   id="style2">
	.st0{fill:#FFFFFF;}
	.st1{fill:#B65A27;}
	.st2{fill:#898966;}
	.st3{fill:#417E24;}
	.st4{fill:#4D545E;}
	.st5{fill:#781907;}
	.st6{fill:#838383;}
	.st7{fill:#D6A648;}
	.st8{fill:#AE4025;}
	.st9{fill:#727272;}
	.st10{fill:#A15841;}
	.st11{fill:#7F8036;}
	.st12{fill:#DF6F5A;}
	.st13{enable-background:new    ;}
	.st14{fill:#B14D39;}
	.st15{fill:none;stroke:#FFFFFF;stroke-width:2.9294;stroke-miterlimit:10;}
	.st16{fill:#515A65;enable-background:new    ;}
	.st17{fill:#617F92;}
	.st18{fill:#555F47;}
	.st19{fill:#686868;}
	.st20{fill:#635956;}
	.st21{fill:#636363;}
</style>
<g
   id="layer5"
   transform="translate(-178.19902,-96.954558)"><polygon
     class="st0"
     points="211.2,68.7 211.2,79.7 210.2,79.7 210.2,81 218.9,81 218.9,79.7 217.9,79.7 217.9,68.7 "
     id="polygon62"
     transform="matrix(1.4124398,0,0,1.39538,-88.823165,20.131858)" /><path
     class="st0"
     d="m 218.80619,113.48278 h -9.32209 c 0,-3.34891 2.2599,-10.88396 4.66105,-10.88396 2.40115,0 4.66104,7.53505 4.66104,10.88396 z"
     id="path64"
     style="stroke-width:1.40389" /><polygon
     class="st6"
     points="206.9,84.6 202.6,86.4 205.2,82.4 201,83.3 209.2,72.3 209.2,77.2 208.2,77.2 208.2,82 209.3,82 209.3,99.3 208.5,99.3 "
     id="polygon67"
     transform="matrix(1.4124398,0,0,1.4124398,-88.416203,19.800912)" /><polygon
     class="st6"
     points="220,99.3 219.2,99.3 219.2,82 220.3,82 220.3,77.2 219.3,77.2 219.3,72.3 227.5,83.3 223.3,82.4 225.9,86.4 221.6,84.6 "
     id="polygon69"
     transform="matrix(1.4124398,0,0,1.4124398,-88.416203,19.800912)" /><polygon
     class="st6"
     points="213.7,105.6 213.3,82 215.2,82 214.8,105.6 "
     id="polygon71"
     transform="matrix(1.4124398,0,0,1.4124398,-88.416203,19.800912)" /></g>

</svg>
