<?xml version="1.0" encoding="UTF-8" standalone="no"?>
<!-- Generator: Adobe Illustrator 23.0.1, SVG Export Plug-In . SVG Version: 6.00 Build 0)  -->

<svg
   version="1.1"
   x="0px"
   y="0px"
   viewBox="0 0 72 72"
   xml:space="preserve"
   id="svg969"
   width="72"
   height="72"
   xmlns="http://www.w3.org/2000/svg"
   xmlns:svg="http://www.w3.org/2000/svg"><defs
   id="defs973" />
<style
   type="text/css"
   id="style2">
	.st0{fill:#FFFFFF;}
	.st1{fill:#B65A27;}
	.st2{fill:#898966;}
	.st3{fill:#417E24;}
	.st4{fill:#4D545E;}
	.st5{fill:#781907;}
	.st6{fill:#838383;}
	.st7{fill:#D6A648;}
	.st8{fill:#AE4025;}
	.st9{fill:#727272;}
	.st10{fill:#A15841;}
	.st11{fill:#7F8036;}
	.st12{fill:#DF6F5A;}
	.st13{enable-background:new    ;}
	.st14{fill:#B14D39;}
	.st15{fill:none;stroke:#FFFFFF;stroke-width:2.9294;stroke-miterlimit:10;}
	.st16{fill:#515A65;enable-background:new    ;}
	.st17{fill:#617F92;}
	.st18{fill:#555F47;}
	.st19{fill:#686868;}
	.st20{fill:#635956;}
	.st21{fill:#636363;}
</style>
<g
   id="layer66"
   transform="translate(2127.1019,21.303592)"><g
     id="g533"
     transform="matrix(1.3495216,0,0,1.3495216,-2380.3044,-563.20098)">
						<rect
   x="211.89999"
   y="433.5"
   class="st0"
   width="4.8000002"
   height="5.4000001"
   id="rect531" />
					</g><g
     id="g537"
     transform="matrix(1.3495216,0,0,1.3495216,-2380.3044,-563.20098)">
						<rect
   x="212.5"
   y="440.70001"
   class="st0"
   width="3.5"
   height="14.2"
   id="rect535" />
					</g><polygon
     class="st0"
     points="217.8,443.9 221.6,449.5 217.8,452.7 "
     id="polygon539"
     transform="matrix(1.3495216,0,0,1.3495216,-2380.3044,-563.20098)" /><polygon
     class="st0"
     points="210.7,443.9 206.9,449.5 210.7,452.7 "
     id="polygon541"
     transform="matrix(1.3495216,0,0,1.3495216,-2380.3044,-563.20098)" /><rect
     x="-2094.3406"
     y="15.743774"
     class="st0"
     width="1.0796173"
     height="6.207799"
     id="rect543"
     style="stroke-width:1.34952" /><rect
     x="-2089.0776"
     y="15.743774"
     class="st0"
     width="1.0796173"
     height="6.207799"
     id="rect545"
     style="stroke-width:1.34952" /><rect
     x="-2091.6416"
     y="17.228256"
     class="st0"
     width="1.0796173"
     height="6.207799"
     id="rect547"
     style="stroke-width:1.34952" /><path
     class="st7"
     d="m -2087.8631,0.0893236 c 0,0 3.5087,-9.1767466 3.2388,-9.3116986 -0.1349,-0.134953 -4.9932,5.66799 -4.9932,5.66799 0,0 -1.3495,-9.041794 -1.6194,-9.041794 -0.2699,0 -1.6194,9.041794 -1.6194,9.041794 0,0 -4.8583,-5.802943 -4.9933,-5.66799 -0.1349,0.134952 3.2389,9.3116986 3.2389,9.3116986 l -4.3185,-3.2388516 3.5088,5.8029426 h 8.2321 l 3.5087,-5.8029426 z"
     id="path549"
     style="stroke-width:1.34952" /><g
     id="g555"
     transform="matrix(1.3495216,0,0,1.3495216,-2380.3044,-563.20098)">
						<g
   id="g553">
							<path
   class="st19"
   d="m 202.7,420.5 c -0.2,0 -0.4,-0.1 -0.5,-0.2 -1.7,-1.7 -2.7,-4.1 -2.7,-6.5 0,-2.5 1,-4.8 2.7,-6.5 0.3,-0.3 0.8,-0.3 1.1,0 0.3,0.3 0.3,0.8 0,1.1 -1.5,1.5 -2.3,3.4 -2.3,5.4 0,2.1 0.8,4 2.3,5.4 0.3,0.3 0.3,0.8 0,1.1 -0.2,0.1 -0.4,0.2 -0.6,0.2 z"
   id="path551" />
						</g>
					</g><g
     id="g561"
     transform="matrix(1.3495216,0,0,1.3495216,-2380.3044,-563.20098)">
						<g
   id="g559">
							<path
   class="st19"
   d="m 206,417.2 c -0.2,0 -0.4,-0.1 -0.5,-0.2 -0.9,-0.9 -1.3,-2 -1.3,-3.2 0,-1.2 0.5,-2.4 1.3,-3.2 0.3,-0.3 0.8,-0.3 1.1,0 0.3,0.3 0.3,0.8 0,1.1 -0.6,0.6 -0.9,1.3 -0.9,2.1 0,0.8 0.3,1.6 0.9,2.1 0.3,0.3 0.3,0.8 0,1.1 -0.2,0.1 -0.4,0.2 -0.6,0.2 z"
   id="path557" />
						</g>
					</g><g
     id="g567"
     transform="matrix(1.3495216,0,0,1.3495216,-2380.3044,-563.20098)">
						<g
   id="g565">
							<path
   class="st19"
   d="m 225.8,420.5 c -0.2,0 -0.4,-0.1 -0.5,-0.2 -0.3,-0.3 -0.3,-0.8 0,-1.1 1.5,-1.5 2.3,-3.4 2.3,-5.4 0,-2.1 -0.8,-4 -2.3,-5.4 -0.3,-0.3 -0.3,-0.8 0,-1.1 0.3,-0.3 0.8,-0.3 1.1,0 1.7,1.7 2.7,4.1 2.7,6.5 0,2.5 -1,4.8 -2.7,6.5 -0.2,0.1 -0.4,0.2 -0.6,0.2 z"
   id="path563" />
						</g>
					</g><g
     id="g573"
     transform="matrix(1.3495216,0,0,1.3495216,-2380.3044,-563.20098)">
						<g
   id="g571">
							<path
   class="st19"
   d="m 222.5,417.2 c -0.2,0 -0.4,-0.1 -0.6,-0.2 -0.3,-0.3 -0.3,-0.8 0,-1.1 0.6,-0.6 0.9,-1.3 0.9,-2.1 0,-0.8 -0.3,-1.6 -0.9,-2.1 -0.3,-0.3 -0.3,-0.8 0,-1.1 0.3,-0.3 0.8,-0.3 1.1,0 0.9,0.9 1.3,2 1.3,3.2 0,1.2 -0.5,2.4 -1.3,3.2 -0.1,0.1 -0.3,0.2 -0.5,0.2 z"
   id="path569" />
						</g>
					</g></g>

</svg>
