<?xml version="1.0" encoding="UTF-8" standalone="no"?>
<!-- Generator: Adobe Illustrator 23.0.1, SVG Export Plug-In . SVG Version: 6.00 Build 0)  -->

<svg
   version="1.1"
   x="0px"
   y="0px"
   viewBox="0 0 72 72"
   xml:space="preserve"
   id="svg969"
   width="72"
   height="72"
   xmlns="http://www.w3.org/2000/svg"
   xmlns:svg="http://www.w3.org/2000/svg"><defs
   id="defs973" />
<style
   type="text/css"
   id="style2">
	.st0{fill:#FFFFFF;}
	.st1{fill:#B65A27;}
	.st2{fill:#898966;}
	.st3{fill:#417E24;}
	.st4{fill:#4D545E;}
	.st5{fill:#781907;}
	.st6{fill:#838383;}
	.st7{fill:#D6A648;}
	.st8{fill:#AE4025;}
	.st9{fill:#727272;}
	.st10{fill:#A15841;}
	.st11{fill:#7F8036;}
	.st12{fill:#DF6F5A;}
	.st13{enable-background:new    ;}
	.st14{fill:#B14D39;}
	.st15{fill:none;stroke:#FFFFFF;stroke-width:2.9294;stroke-miterlimit:10;}
	.st16{fill:#515A65;enable-background:new    ;}
	.st17{fill:#617F92;}
	.st18{fill:#555F47;}
	.st19{fill:#686868;}
	.st20{fill:#635956;}
	.st21{fill:#636363;}
</style>
<g
   id="layer60"
   transform="translate(3663.738,19.865116)"><g
     id="g682"
     transform="matrix(1.1318991,0,0,1.1318991,-3988.927,-620.89233)">
						<rect
   x="318.20001"
   y="571.70001"
   class="st0"
   width="1.8"
   height="22.9"
   id="rect680" />
					</g><polygon
     class="st0"
     points="316.8,565.8 319.1,560.6 321.4,565.8 320.4,570 317.8,570 "
     id="polygon684"
     transform="matrix(1.1318991,0,0,1.1318991,-3988.927,-620.89233)" /><polygon
     class="st0"
     points="321.8,584.1 321.8,591.3 325.5,594.6 324.6,587 "
     id="polygon686"
     transform="matrix(1.1318991,0,0,1.1318991,-3988.927,-620.89233)" /><polygon
     class="st0"
     points="316.5,584.1 316.5,591.3 312.7,594.6 313.7,587 "
     id="polygon688"
     transform="matrix(1.1318991,0,0,1.1318991,-3988.927,-620.89233)" /></g>

</svg>
