<?xml version="1.0" encoding="UTF-8" standalone="no"?>
<!-- Generator: Adobe Illustrator 23.0.1, SVG Export Plug-In . SVG Version: 6.00 Build 0)  -->

<svg
   version="1.1"
   x="0px"
   y="0px"
   viewBox="0 0 72 72"
   xml:space="preserve"
   id="svg969"
   width="72"
   height="72"
   xmlns="http://www.w3.org/2000/svg"
   xmlns:svg="http://www.w3.org/2000/svg"><defs
   id="defs973" />
<style
   type="text/css"
   id="style2">
	.st0{fill:#FFFFFF;}
	.st1{fill:#B65A27;}
	.st2{fill:#898966;}
	.st3{fill:#417E24;}
	.st4{fill:#4D545E;}
	.st5{fill:#781907;}
	.st6{fill:#838383;}
	.st7{fill:#D6A648;}
	.st8{fill:#AE4025;}
	.st9{fill:#727272;}
	.st10{fill:#A15841;}
	.st11{fill:#7F8036;}
	.st12{fill:#DF6F5A;}
	.st13{enable-background:new    ;}
	.st14{fill:#B14D39;}
	.st15{fill:none;stroke:#FFFFFF;stroke-width:2.9294;stroke-miterlimit:10;}
	.st16{fill:#515A65;enable-background:new    ;}
	.st17{fill:#617F92;}
	.st18{fill:#555F47;}
	.st19{fill:#686868;}
	.st20{fill:#635956;}
	.st21{fill:#636363;}
</style>
<g
   id="layer54"
   transform="translate(1431.0373,20.815569)"><g
     id="g804"
     transform="matrix(1.308639,0,0,1.308639,-1721.2156,-812.9099)">
						<path
   class="st0"
   d="M 250.5,639.4 H 248 l 0.1,-7.3 c 0,-0.5 0.4,-1.3 0.9,-1.3 h 0.4 c 0.5,0 0.9,0.8 0.9,1.3 z"
   id="path798" />
						<polygon
   class="st0"
   points="250.5,640.5 250.5,643.8 247.9,643.8 248,640.5 "
   id="polygon800" />
						<polygon
   class="st0"
   points="250.5,644.9 250.8,660.3 247.7,660.3 247.9,644.9 "
   id="polygon802" />
					</g><path
     class="st7"
     d="m -1375.9966,9.0462781 -8.637,14.7876209 h -6.4124 v -0.785183 l -0.1308,-8.898745 c 0,-1.570367 -1.3087,-4.056781 -3.5333,-4.056781 h -0.6544 c -2.2246,0 -3.5333,2.35555 -3.5333,4.056781 l -0.1308,8.898745 v 0.785183 h -6.4124 l -8.637,-14.7876209 10.7308,8.1135619 -8.2444,-23.2937748 11.9086,12.8246629 4.5803,-21.4616801 4.5802,21.4616801 11.9086,-12.8246629 -8.2444,23.2937748 z"
     id="path806"
     style="stroke-width:1.30864" /></g>

</svg>
